{
.appVersion = "1354";
classes = (
{
code = "fathasmall-ar
dammasmall-ar
kasrasmall-ar
fathatan-ar
dammatan-ar
kasratan-ar
fatha-ar
damma-ar
kasra-ar
shadda-ar
sukun-ar
madda-ar
hamzaabove-ar
hamzabelow-ar
alefbelow-ar
dammainverted-ar
noonghunnaabove-ar
fathaHorizont-ar
vabove-ar
vinvertedabove-ar
dotvowelbelow-ar
dammareversed-ar
fathatwodots-ar
wavyhamzabelow-ar
alefabove-ar
seenabove-ar
sukunround-ar
sukunoval-ar
maddalong-ar
hahabove-ar
yehabove-ar
meemStopabove-ar
seenbelow-ar
rhombusStopbelow-ar
noonabove-ar
rhombusStopabove-ar
dotStopabove-ar
meembelow-ar
fathaCurly-ar
dammaCurly-ar
kasraCurly-ar
fathatanCurly-ar
dammatanCurly-ar
kasratanCurly-ar
toneonedotabove-ar
tonetwodotsabove-ar
toneloopabove-ar
toneonedotbelow-ar
tonetwodotsbelow-ar
toneloopbelow-ar
openfathatan-ar
opendammatan-ar
openkasratan-ar
highwaw-ar
fathaRing-ar
fathaDotabove-ar
kasraDotbelow-ar
leftarrowheadabove-ar
rightarrowheadabove-ar
leftarrowheadbelow-ar
rightarrowheadbelow-ar
doublerightarrowheadabove-ar
doublerightarrowheadDotabove-ar
rightarrowheadDotabove-ar
dammaDot-ar
marksidewaysnoonghunna-ar
";
name = marks;
},
{
code = "  yehKashmiri-ar yehHamzaabove-ar beh-ar teh-ar theh-ar jeem-ar
  hah-ar khah-ar seen-ar sheen-ar sad-ar dad-ar
  tah-ar zah-ar ain-ar ghain-ar kehehTwodotshorizontalabove-ar kehehThreedotsbelow-ar
  yehVinverted-farsi yehTwodotsabove-farsi yehThreedotsabove-farsi feh-ar qaf-ar kaf-ar
  lam-ar meem-ar noon-ar heh-ar alefMaksura-ar yeh-ar
  behDotless-ar qafDotless-ar highhamzaYeh-ar tteh-ar tteheh-ar beeh-ar
  tehRing-ar tehThreedotsdown-ar peh-ar teheh-ar beheh-ar hahHamzaabove-ar
  hahTwodotsverticalabove-ar nyeh-ar dyeh-ar hahThreedotsabove-ar tcheh-ar tcheheh-ar
  seenDotbelowDotabove-ar seenThreedotsbelow-ar sheenThreedotsbelow-ar sadTwodotsbelow-ar sadThreedots-ar tahThreedots-ar
  ainThreedots-ar fehDotless-ar fehDotmovedbelow-ar fehDotbelow-ar veh-ar fehThreedotsbelow-ar
  peheh-ar qafDotabove-ar qafThreedotsabove-ar keheh-ar kafswash-ar kafRing-ar

glyphs = (
{
glyphname = Aogonek;
layers = (
{
layerId = master01;
paths = (
{
closed = 1;
nodes = (
"497 0 OFFCURVE",
"471 0 OFFCURVE",
"454 0 CURVE SMOOTH",
"448 0 OFFCURVE",
"454 0 OFFCURVE",
"433 0 CURVE",
"380 -31 OFFCURVE",
"346 -67 OFFCURVE",
"346 -110 CURVE SMOOTH",
"346 -134 OFFCURVE",
"372 -149 OFFCURVE",
"390 -149 CURVE SMOOTH",
"410 -149 OFFCURVE",
"433 -128 OFFCURVE",
"444 -112 CURVE",
"450 -106 OFFCURVE",
"472 -102 OFFCURVE",
"481 -107 CURVE",
"489 -114 OFFCURVE",
"493 -135 OFFCURVE",
"486 -144 CURVE SMOOTH",
"462 -177 OFFCURVE",
"424 -203 OFFCURVE",
"386 -203 CURVE SMOOTH",
"323 -203 OFFCURVE",
"287 -151 OFFCURVE",
"287 -108 CURVE SMOOTH",
"287 -61 OFFCURVE",
"313 -25 OFFCURVE",
"352 0 CURVE",
"334 0 OFFCURVE",
"310 0 OFFCURVE",
"310 30 CURVE SMOOTH",
"310 61 OFFCURVE",
"330 61 OFFCURVE",
"366 61 CURVE",
"343 165 LINE",
"181 165 LINE",
"158 61 LINE",
"194 61 OFFCURVE",
"214 61 OFFCURVE",
"214 30 CURVE SMOOTH",
"214 0 OFFCURVE",
"190 0 OFFCURVE",
"172 0 CURVE SMOOTH",
"70 0 LINE SMOOTH",
"53 0 OFFCURVE",
"27 0 OFFCURVE",
"27 30 CURVE SMOOTH",
"27 43 OFFCURVE",
"33 53 OFFCURVE",
"44 59 CURVE",
"50 61 OFFCURVE",
"73 61 OFFCURVE",
"87 61 CURVE",
"208 585 LINE SMOOTH",
"217 623 OFFCURVE",
"233 623 OFFCURVE",
"262 623 CURVE SMOOTH",
"293 623 OFFCURVE",
"307 622 OFFCURVE",
"316 584 CURVE SMOOTH",
"437 61 LINE",
"452 61 OFFCURVE",
"474 61 OFFCURVE",
"480 58 CURVE",
"492 53 OFFCURVE",
"497 43 OFFCURVE",
"497 30 CURVE SMOOTH"
);
},
{
closed = 1;
nodes = (
"262 540 LINE",
"196 226 LINE",
"328 226 LINE"
);
}
);
width = 525;
}
);
unicode = 0104;
},
{
glyphname = AE;
layers = (
{
layerId = master01;
paths = (
{
closed = 1;
nodes = (
"499 9 OFFCURVE",
"492 0 OFFCURVE",
"459 0 CURVE SMOOTH",
"265 0 LINE SMOOTH",
"249 0 OFFCURVE",
"224 0 OFFCURVE",
"224 31 CURVE SMOOTH",
"224 61 OFFCURVE",
"250 61 OFFCURVE",
"264 61 CURVE",
"264 183 LINE",
"153 183 LINE",
"128 61 LINE",
"151 61 OFFCURVE",
"174 61 OFFCURVE",
"174 30 CURVE SMOOTH",
"174 0 OFFCURVE",
"149 0 OFFCURVE",
"134 0 CURVE SMOOTH",
"63 0 LINE SMOOTH",
"48 0 OFFCURVE",
"23 0 OFFCURVE",
"23 30 CURVE SMOOTH",
"23 61 OFFCURVE",
"45 61 OFFCURVE",
"71 61 CURVE",
"170 550 LINE",
"154 550 OFFCURVE",
"130 550 OFFCURVE",
"130 581 CURVE SMOOTH",
"130 611 OFFCURVE",
"155 611 OFFCURVE",
"170 611 CURVE SMOOTH",
"451 611 LINE SMOOTH",
"485 611 OFFCURVE",
"491 601 OFFCURVE",
"491 570 CURVE SMOOTH",
"491 497 LINE SMOOTH",
"491 483 OFFCURVE",
"491 456 OFFCURVE",
"463 456 CURVE SMOOTH",
"435 456 OFFCURVE",
"435 483 OFFCURVE",
"435 497 CURVE SMOOTH",
"435 550 LINE",
"320 550 LINE",
"320 347 LINE",
"435 347 LINE SMOOTH",
"451 347 OFFCURVE",
"475 347 OFFCURVE",
"475 316 CURVE SMOOTH",
"475 286 OFFCURVE",
"450 286 OFFCURVE",
"435 286 CURVE SMOOTH",
"320 286 LINE",
"320 61 LINE",
"443 61 LINE",
"443 130 LINE SMOOTH",
"443 144 OFFCURVE",
"443 171 OFFCURVE",
"471 171 CURVE SMOOTH",
"499 171 OFFCURVE",
"499 144 OFFCURVE",
"499 130 CURVE SMOOTH",
"499 41 LINE SMOOTH"
);
},
{
closed = 1;
nodes = (
"264 550 LINE",
"227 550 LINE",
"165 244 LINE",
"264 244 LINE"
);
}
);
width = 525;
}
);
unicode = 00C6;
},
{
glyphname = B;
layers = (
{
layerId = master01;
paths = (
{
closed = 1;
nodes = (
"482 89 OFFCURVE",
"422 0 OFFCURVE",
"309 0 CURVE SMOOTH",
"63 0 LINE SMOOTH",
"49 0 OFFCURVE",
"23 0 OFFCURVE",
"23 30 CURVE SMOOTH",
"23 61 OFFCURVE",
"48 61 OFFCURVE",
"64 61 CURVE SMOOTH",
"91 61 LINE",
"91 550 LINE",
"64 550 LINE SMOOTH",
"48 550 OFFCURVE",
"23 550 OFFCURVE",
"23 581 CURVE SMOOTH",
"23 611 OFFCURVE",
"49 611 OFFCURVE",
"63 611 CURVE SMOOTH",
"289 611 LINE SMOOTH",
"400 611 OFFCURVE",
"461 529 OFFCURVE",
"461 456 CURVE SMOOTH",
"461 394 OFFCURVE",
"417 342 OFFCURVE",
"353 320 CURVE",
"434 301 OFFCURVE",
"482 236 OFFCURVE",
"482 167 CURVE SMOOTH"
);
},
{
closed = 1;
nodes = (
"392 488 OFFCURVE",
"370 550 OFFCURVE",
"285 550 CURVE SMOOTH",
"160 550 LINE",
"160 348 LINE",
"263 348 LINE SMOOTH",
"360 348 OFFCURVE",
"392 414 OFFCURVE",
"392 455 CURVE SMOOTH"
);
},
{
closed = 1;
nodes = (
"413 214 OFFCURVE",
"383 287 OFFCURVE",
"298 287 CURVE SMOOTH",
"160 287 LINE",
"160 61 LINE",
"287 61 LINE SMOOTH",
"374 61 OFFCURVE",
"413 120 OFFCURVE",
"413 169 CURVE SMOOTH"
);
}
);
width = 525;
}
);
unicode = 0042;
},
{
glyphname = C;
layers = (
{
layerId = master01;
paths = (
{
closed = 1;
nodes = (
"484 78 OFFCURVE",
"398 -11 OFFCURVE",
"282 -11 CURVE SMOOTH",
"152 -11 OFFCURVE",
"40 123 OFFCURVE",
"40 306 CURVE SMOOTH",
"40 488 OFFCURVE",
"152 622 OFFCURVE",
"281 622 CURVE SMOOTH",
"332 622 OFFCURVE",
"378 602 OFFCURVE",
"411 574 CURVE",
"424 599 OFFCURVE",
"424 601 OFFCURVE",
"426 605 CURVE",
"431 612 OFFCURVE",
"436 622 OFFCURVE",
"454 622 CURVE SMOOTH",
"484 622 OFFCURVE",
"484 597 OFFCURVE",
"484 581 CURVE SMOOTH",
"484 442 LINE SMOOTH",
"484 422 OFFCURVE",
"484 401 OFFCURVE",
"449 401 CURVE SMOOTH",
"419 401 OFFCURVE",
"417 417 OFFCURVE",
"414 434 CURVE SMOOTH",
"400 515 OFFCURVE",
"345 561 OFFCURVE",
"285 561 CURVE SMOOTH",
"196 561 OFFCURVE",
"109 455 OFFCURVE",
"109 306 CURVE SMOOTH",
"109 156 OFFCURVE",
"195 50 OFFCURVE",
"286 50 CURVE SMOOTH",
"327 50 OFFCURVE",
"408 74 OFFCURVE",
"415 172 CURVE SMOOTH",
"417 201 OFFCURVE",
"440 201 OFFCURVE",
"449 201 CURVE SMOOTH",
"460 201 OFFCURVE",
"484 201 OFFCURVE",
"484 168 CURVE SMOOTH"
);
}
);
width = 525;
}
);
unicode = 0043;
},
{
glyphname = Ccedilla;
layers = (
{
layerId = master01;
paths = (
{
closed = 1;
nodes = (
"484 94 OFFCURVE",
"427 21 OFFCURVE",
"342 -3 CURVE",
"342 -9 LINE",
"413 -23 OFFCURVE",
"441 -67 OFFCURVE",
"441 -106 CURVE SMOOTH",
"441 -208 OFFCURVE",
"301 -208 OFFCURVE",
"206 -208 CURVE SMOOTH",
"191 -208 OFFCURVE",
"175 -200 OFFCURVE",
"175 -177 CURVE SMOOTH",
"175 -146 OFFCURVE",
"197 -146 OFFCURVE",
"235 -146 CURVE SMOOTH",
"273 -146 OFFCURVE",
"372 -146 OFFCURVE",
"372 -106 CURVE SMOOTH",
"372 -86 OFFCURVE",
"349 -68 OFFCURVE",
"305 -66 CURVE SMOOTH",
"273 -64 OFFCURVE",
"273 -44 OFFCURVE",
"273 -24 CURVE SMOOTH",
"273 -11 LINE",
"147 -5 OFFCURVE",
"40 127 OFFCURVE",
"40 306 CURVE SMOOTH",
"40 488 OFFCURVE",
"152 622 OFFCURVE",
"281 622 CURVE SMOOTH",
"332 622 OFFCURVE",
"378 602 OFFCURVE",
"411 574 CURVE",
"424 599 OFFCURVE",
"424 601 OFFCURVE",
"426 605 CURVE",
"431 612 OFFCURVE",
"436 622 OFFCURVE",
"454 622 CURVE SMOOTH",
"484 622 OFFCURVE",
"484 597 OFFCURVE",
"484 581 CURVE SMOOTH",
"484 442 LINE SMOOTH",
"484 422 OFFCURVE",
"484 401 OFFCURVE",
"449 401 CURVE SMOOTH",
"419 401 OFFCURVE",
"417 417 OFFCURVE",
"414 434 CURVE SMOOTH",
"400 515 OFFCURVE",
"345 561 OFFCURVE",
"285 561 CURVE SMOOTH",
"196 561 OFFCURVE",
"109 455 OFFCURVE",
"109 306 CURVE SMOOTH",
"109 156 OFFCURVE",
"195 50 OFFCURVE",
"286 50 CURVE SMOOTH",
"327 50 OFFCURVE",
"408 74 OFFCURVE",
"415 172 CURVE SMOOTH",
"417 201 OFFCURVE",
"440 201 OFFCURVE",
"449 201 CURVE SMOOTH",
"460 201 OFFCURVE",
"484 201 OFFCURVE",
"484 168 CURVE SMOOTH"
);
}
);
width = 525;
}
);
unicode = 00C7;
},
{
glyphname = D;
layers = (
{
layerId = master01;
paths = (
{
closed = 1;
nodes = (
"485 140 OFFCURVE",
"397 0 OFFCURVE",
"266 0 CURVE SMOOTH",
"60 0 LINE SMOOTH",
"45 0 OFFCURVE",
"19 0 OFFCURVE",
"19 30 CURVE SMOOTH",
"19 61 OFFCURVE",
"44 61 OFFCURVE",
"60 61 CURVE SMOOTH",
"82 61 LINE",
"82 550 LINE",
"60 550 LINE SMOOTH",
"45 550 OFFCURVE",
"19 550 OFFCURVE",
"19 580 CURVE SMOOTH",
"19 611 OFFCURVE",
"44 611 OFFCURVE",
"60 611 CURVE SMOOTH",
"266 611 LINE SMOOTH",
"399 611 OFFCURVE",
"485 461 OFFCURVE",
"485 301 CURVE SMOOTH"
);
},
{
closed = 1;
nodes = (
"416 417 OFFCURVE",
"360 550 OFFCURVE",
"247 550 CURVE SMOOTH",
"151 550 LINE",
"151 61 LINE",
"247 61 LINE SMOOTH",
"358 61 OFFCURVE",
"416 184 OFFCURVE",
"416 301 CURVE SMOOTH"
);
}
);
width = 525;
}
);
unicode = 0044;
},
{
glyphname = Eth;
layers = (
{
layerId = master01;
paths = (
{
closed = 1;
nodes = (
"485 140 OFFCURVE",
"397 0 OFFCURVE",
"266 0 CURVE SMOOTH",
"60 0 LINE SMOOTH",
"45 0 OFFCURVE",
"19 0 OFFCURVE",
"19 30 CURVE SMOOTH",
"19 61 OFFCURVE",
"44 61 OFFCURVE",
"60 61 CURVE SMOOTH",
"82 61 LINE",
"82 275 LINE",
"54 275 LINE SMOOTH",
"37 275 OFFCURVE",
"23 288 OFFCURVE",
"23 306 CURVE SMOOTH",
"23 323 OFFCURVE",
"37 337 OFFCURVE",
"54 337 CURVE SMOOTH",
"82 337 LINE",
"82 550 LINE",
"60 550 LINE SMOOTH",
"45 550 OFFCURVE",
"19 550 OFFCURVE",
"19 580 CURVE SMOOTH",
"19 611 OFFCURVE",
"44 611 OFFCURVE",
"60 611 CURVE SMOOTH",
"266 611 LINE SMOOTH",
"399 611 OFFCURVE",
"485 461 OFFCURVE",
"485 301 CURVE SMOOTH"
);
},
{
closed = 1;
nodes = (
"416 417 OFFCURVE",
"360 550 OFFCURVE",
"247 550 CURVE SMOOTH",
"151 550 LINE",
"151 337 LINE",
"210 337 LINE SMOOTH",
"227 337 OFFCURVE",
"241 323 OFFCURVE",
"241 306 CURVE SMOOTH",
"241 288 OFFCURVE",
"227 275 OFFCURVE",
"210 275 CURVE SMOOTH",
"151 275 LINE",
"151 61 LINE",
"247 61 LINE SMOOTH",
"358 61 OFFCURVE",
"416 184 OFFCURVE",
"416 301 CURVE SMOOTH"
);
}
);
width = 525;
}
);
unicode = 00D0;
},
{
glyphname = E;
layers = (
{
layerId = master01;
paths = (
{
closed = 1;
nodes = (
"502 9 OFFCURVE",
"495 0 OFFCURVE",
"462 0 CURVE SMOOTH",
"67 0 LINE SMOOTH",
"52 0 OFFCURVE",
"26 0 OFFCURVE",
"26 30 CURVE SMOOTH",
"26 61 OFFCURVE",
"51 61 OFFCURVE",
"67 61 CURVE SMOOTH",
"97 61 LINE",
"97 550 LINE",
"67 550 LINE SMOOTH",
"52 550 OFFCURVE",
"26 550 OFFCURVE",
"26 581 CURVE SMOOTH",
"26 611 OFFCURVE",
"52 611 OFFCURVE",
"67 611 CURVE SMOOTH",
"440 611 LINE SMOOTH",
"474 611 OFFCURVE",
"480 601 OFFCURVE",
"480 570 CURVE SMOOTH",
"480 497 LINE SMOOTH",
"480 477 OFFCURVE",
"480 456 OFFCURVE",
"445 456 CURVE SMOOTH",
"411 456 OFFCURVE",
"411 478 OFFCURVE",
"411 497 CURVE SMOOTH",
"411 550 LINE",
"166 550 LINE",
"166 347 LINE",
"297 347 LINE",
"297 388 OFFCURVE",
"297 404 OFFCURVE",
"332 404 CURVE SMOOTH",
"366 404 OFFCURVE",
"366 382 OFFCURVE",
"366 363 CURVE SMOOTH",
"366 270 LINE SMOOTH",
"366 251 OFFCURVE",
"366 229 OFFCURVE",
"332 229 CURVE SMOOTH",
"297 229 OFFCURVE",
"297 245 OFFCURVE",
"297 286 CURVE",
"166 286 LINE",
"166 61 LINE",
"433 61 LINE",
"433 130 LINE SMOOTH",
"433 150 OFFCURVE",
"433 171 OFFCURVE",
"468 171 CURVE SMOOTH",
"502 171 OFFCURVE",
"502 149 OFFCURVE",
"502 130 CURVE SMOOTH",
"502 41 LINE SMOOTH"
);
}
);
width = 525;
}
);
unicode = 0045;
},
{
glyphname = Eogonek;
layers = (
{
layerId = master01;
paths = (
{
closed = 1;
nodes = (
"502 9 OFFCURVE",
"495 0 OFFCURVE",
"462 0 CURVE SMOOTH",
"433 0 LINE",
"380 -31 OFFCURVE",
"346 -67 OFFCURVE",
"346 -110 CURVE SMOOTH",
"346 -134 OFFCURVE",
"372 -149 OFFCURVE",
"390 -149 CURVE SMOOTH",
"410 -149 OFFCURVE",
"433 -128 OFFCURVE",
"444 -112 CURVE",
"450 -106 OFFCURVE",
"472 -102 OFFCURVE",
"481 -107 CURVE",
"489 -114 OFFCURVE",
"493 -135 OFFCURVE",
"486 -144 CURVE SMOOTH",
"462 -177 OFFCURVE",
"424 -203 OFFCURVE",
"386 -203 CURVE SMOOTH",
"323 -203 OFFCURVE",
"287 -151 OFFCURVE",
"287 -108 CURVE SMOOTH",
"287 -61 OFFCURVE",
"313 -25 OFFCURVE",
"352 0 CURVE",
"67 0 LINE SMOOTH",
"52 0 OFFCURVE",
"26 0 OFFCURVE",
"26 30 CURVE SMOOTH",
"26 61 OFFCURVE",
"51 61 OFFCURVE",
"67 61 CURVE SMOOTH",
"97 61 LINE",
"97 550 LINE",
"67 550 LINE SMOOTH",
"52 550 OFFCURVE",
"26 550 OFFCURVE",
"26 581 CURVE SMOOTH",
"26 611 OFFCURVE",
"52 611 OFFCURVE",
"67 611 CURVE SMOOTH",
"440 611 LINE SMOOTH",
"474 611 OFFCURVE",
"480 601 OFFCURVE",
"480 570 CURVE SMOOTH",
"480 497 LINE SMOOTH",
"480 477 OFFCURVE",
"480 456 OFFCURVE",
"445 456 CURVE SMOOTH",
"411 456 OFFCURVE",
"411 478 OFFCURVE",
"411 497 CURVE SMOOTH",
"411 550 LINE",
"166 550 LINE",
"166 347 LINE",
"297 347 LINE",
"297 388 OFFCURVE",
"297 404 OFFCURVE",
"332 404 CURVE SMOOTH",
"366 404 OFFCURVE",
"366 382 OFFCURVE",
"366 363 CURVE SMOOTH",
"366 270 LINE SMOOTH",
"366 251 OFFCURVE",
"366 229 OFFCURVE",
"332 229 CURVE SMOOTH",
"297 229 OFFCURVE",
"297 245 OFFCURVE",
"297 286 CURVE",
"166 286 LINE",
"166 61 LINE",
"433 61 LINE",
"433 130 LINE SMOOTH",
"433 150 OFFCURVE",
"433 171 OFFCURVE",
"468 171 CURVE SMOOTH",
"502 171 OFFCURVE",
"502 149 OFFCURVE",
"502 130 CURVE SMOOTH",
"502 41 LINE SMOOTH"
);
}
);
width = 525;
}
);
unicode = 0118;
},
{
glyphname = Ereversed;
layers = (
{
layerId = master01;
paths = (
{
closed = 1;
nodes = (
"502 0 OFFCURVE",
"476 0 OFFCURVE",
"461 0 CURVE SMOOTH",
"66 0 LINE SMOOTH",
"33 0 OFFCURVE",
"26 9 OFFCURVE",
"26 41 CURVE SMOOTH",
"26 130 LINE SMOOTH",
"26 149 OFFCURVE",
"26 171 OFFCURVE",
"60 171 CURVE SMOOTH",
"95 171 OFFCURVE",
"95 150 OFFCURVE",
"95 130 CURVE SMOOTH",
"95 61 LINE",
"362 61 LINE",
"362 286 LINE",
"231 286 LINE",
"231 245 OFFCURVE",
"231 229 OFFCURVE",
"196 229 CURVE SMOOTH",
"162 229 OFFCURVE",
"162 251 OFFCURVE",
"162 270 CURVE SMOOTH",
"162 363 LINE SMOOTH",
"162 382 OFFCURVE",
"162 404 OFFCURVE",
"196 404 CURVE SMOOTH",
"231 404 OFFCURVE",
"231 388 OFFCURVE",
"231 347 CURVE",
"362 347 LINE",
"362 550 LINE",
"117 550 LINE",
"117 497 LINE SMOOTH",
"117 478 OFFCURVE",
"117 456 OFFCURVE",
"83 456 CURVE SMOOTH",
"48 456 OFFCURVE",
"48 477 OFFCURVE",
"48 497 CURVE SMOOTH",
"48 570 LINE SMOOTH",
"48 601 OFFCURVE",
"54 611 OFFCURVE",
"88 611 CURVE SMOOTH",
"461 611 LINE SMOOTH",
"476 611 OFFCURVE",
"502 611 OFFCURVE",
"502 581 CURVE SMOOTH",
"502 550 OFFCURVE",
"476 550 OFFCURVE",
"461 550 CURVE SMOOTH",
"431 550 LINE",
"431 61 LINE",
"461 61 LINE SMOOTH",
"477 61 OFFCURVE",
"502 61 OFFCURVE",
"502 30 CURVE SMOOTH"
);
}
);
width = 525;
}
);
unicode = 018E;
},
{
glyphname = F;
layers = (
{
layerId = master01;
paths = (
{
closed = 1;
nodes = (
"490 477 OFFCURVE",
"490 456 OFFCURVE",
"455 456 CURVE SMOOTH",
"421 456 OFFCURVE",
"421 478 OFFCURVE",
"421 497 CURVE SMOOTH",
"421 550 LINE",
"171 550 LINE",
"171 336 LINE",
"307 336 LINE",
"307 377 OFFCURVE",
"307 393 OFFCURVE",
"342 393 CURVE SMOOTH",
"376 393 OFFCURVE",
"376 371 OFFCURVE",
"376 352 CURVE SMOOTH",
"376 259 LINE SMOOTH",
"376 240 OFFCURVE",
"376 218 OFFCURVE",
"342 218 CURVE SMOOTH",
"307 218 OFFCURVE",
"307 234 OFFCURVE",
"307 275 CURVE",
"171 275 LINE",
"171 61 LINE",
"223 61 LINE SMOOTH",
"239 61 OFFCURVE",
"263 61 OFFCURVE",
"263 30 CURVE SMOOTH",
"263 0 OFFCURVE",
"238 0 OFFCURVE",
"223 0 CURVE SMOOTH",
"69 0 LINE SMOOTH",
"54 0 OFFCURVE",
"28 0 OFFCURVE",
"28 30 CURVE SMOOTH",
"28 61 OFFCURVE",
"53 61 OFFCURVE",
"69 61 CURVE SMOOTH",
"102 61 LINE",
"102 550 LINE",
"69 550 LINE SMOOTH",
"54 550 OFFCURVE",
"28 550 OFFCURVE",
"28 580 CURVE SMOOTH",
"28 611 OFFCURVE",
"53 611 OFFCURVE",
"69 611 CURVE SMOOTH",
"450 611 LINE SMOOTH",
"484 611 OFFCURVE",
"490 601 OFFCURVE",
"490 570 CURVE SMOOTH",
"490 497 LINE SMOOTH"
);
}
);
width = 525;
}
);
unicode = 0046;
},
{
glyphname = G;
layers = (
{
layerId = master01;
paths = (
{
closed = 1;
nodes = (
"496 209 OFFCURVE",
"473 209 OFFCURVE",
"449 209 CURVE",
"449 41 LINE SMOOTH",
"449 22 OFFCURVE",
"449 0 OFFCURVE",
"415 0 CURVE SMOOTH",
"380 0 OFFCURVE",
"380 20 OFFCURVE",
"380 42 CURVE",
"360 19 OFFCURVE",
"318 -11 OFFCURVE",
"261 -11 CURVE SMOOTH",
"142 -11 OFFCURVE",
"38 122 OFFCURVE",
"38 306 CURVE SMOOTH",
"38 487 OFFCURVE",
"141 622 OFFCURVE",
"261 622 CURVE SMOOTH",
"303 622 OFFCURVE",
"343 607 OFFCURVE",
"378 577 CURVE",
"393 611 OFFCURVE",
"398 622 OFFCURVE",
"419 622 CURVE SMOOTH",
"449 622 OFFCURVE",
"449 597 OFFCURVE",
"449 581 CURVE SMOOTH",
"449 442 LINE SMOOTH",
"449 422 OFFCURVE",
"449 401 OFFCURVE",
"414 401 CURVE SMOOTH",
"388 401 OFFCURVE",
"382 413 OFFCURVE",
"380 430 CURVE SMOOTH",
"363 538 OFFCURVE",
"300 561 OFFCURVE",
"265 561 CURVE SMOOTH",
"187 561 OFFCURVE",
"107 458 OFFCURVE",
"107 305 CURVE SMOOTH",
"107 158 OFFCURVE",
"183 50 OFFCURVE",
"264 50 CURVE SMOOTH",
"317 50 OFFCURVE",
"366 97 OFFCURVE",
"378 209 CURVE",
"336 209 LINE SMOOTH",
"320 209 OFFCURVE",
"296 209 OFFCURVE",
"296 240 CURVE SMOOTH",
"296 270 OFFCURVE",
"321 270 OFFCURVE",
"336 270 CURVE SMOOTH",
"455 270 LINE SMOOTH",
"470 270 OFFCURVE",
"496 270 OFFCURVE",
"496 240 CURVE SMOOTH"
);
}
);
width = 525;
}
);
unicode = 0047;
},
{
glyphname = H;
layers = (
{
layerId = master01;
paths = (
{
closed = 1;
nodes = (
"502 0 OFFCURVE",
"477 0 OFFCURVE",
"462 0 CURVE SMOOTH",
"343 0 LINE SMOOTH",
"327 0 OFFCURVE",
"303 0 OFFCURVE",
"303 31 CURVE SMOOTH",
"303 61 OFFCURVE",
"328 61 OFFCURVE",
"343 61 CURVE SMOOTH",
"368 61 LINE",
"368 287 LINE",
"156 287 LINE",
"156 61 LINE",
"181 61 LINE SMOOTH",
"197 61 OFFCURVE",
"221 61 OFFCURVE",
"221 30 CURVE SMOOTH",
"221 0 OFFCURVE",
"196 0 OFFCURVE",
"181 0 CURVE SMOOTH",
"62 0 LINE SMOOTH",
"47 0 OFFCURVE",
"22 0 OFFCURVE",
"22 30 CURVE SMOOTH",
"22 61 OFFCURVE",
"46 61 OFFCURVE",
"62 61 CURVE SMOOTH",
"87 61 LINE",
"87 550 LINE",
"62 550 LINE SMOOTH",
"47 550 OFFCURVE",
"22 550 OFFCURVE",
"22 580 CURVE SMOOTH",
"22 611 OFFCURVE",
"46 611 OFFCURVE",
"62 611 CURVE SMOOTH",
"181 611 LINE SMOOTH",
"197 611 OFFCURVE",
"221 611 OFFCURVE",
"221 580 CURVE SMOOTH",
"221 550 OFFCURVE",
"196 550 OFFCURVE",
"181 550 CURVE SMOOTH",
"156 550 LINE",
"156 348 LINE",
"368 348 LINE",
"368 550 LINE",
"343 550 LINE SMOOTH",
"327 550 OFFCURVE",
"303 550 OFFCURVE",
"303 581 CURVE SMOOTH",
"303 611 OFFCURVE",
"328 611 OFFCURVE",
"343 611 CURVE SMOOTH",
"462 611 LINE SMOOTH",
"478 611 OFFCURVE",
"502 611 OFFCURVE",
"502 580 CURVE SMOOTH",
"502 550 OFFCURVE",
"477 550 OFFCURVE",
"462 550 CURVE SMOOTH",
"437 550 LINE",
"437 61 LINE",
"462 61 LINE SMOOTH",
"478 61 OFFCURVE",
"502 61 OFFCURVE",
"502 30 CURVE SMOOTH"
);
}
);
width = 525;
}
);
unicode = 0048;
},
{
glyphname = Hbar;
layers = (
{
layerId = master01;
paths = (
{
closed = 1;
nodes = (
"502 0 OFFCURVE",
"477 0 OFFCURVE",
"462 0 CURVE SMOOTH",
"343 0 LINE SMOOTH",
"327 0 OFFCURVE",
"303 0 OFFCURVE",
"303 31 CURVE SMOOTH",
"303 61 OFFCURVE",
"328 61 OFFCURVE",
"343 61 CURVE SMOOTH",
"368 61 LINE",
"368 287 LINE",
"156 287 LINE",
"156 61 LINE",
"181 61 LINE SMOOTH",
"197 61 OFFCURVE",
"221 61 OFFCURVE",
"221 30 CURVE SMOOTH",
"221 0 OFFCURVE",
"196 0 OFFCURVE",
"181 0 CURVE SMOOTH",
"62 0 LINE SMOOTH",
"47 0 OFFCURVE",
"22 0 OFFCURVE",
"22 30 CURVE SMOOTH",
"22 61 OFFCURVE",
"46 61 OFFCURVE",
"62 61 CURVE SMOOTH",
"87 61 LINE",
"87 427 LINE",
"57 427 LINE SMOOTH",
"40 427 OFFCURVE",
"26 441 OFFCURVE",
"26 458 CURVE SMOOTH",
"26 475 OFFCURVE",
"40 489 OFFCURVE",
"57 489 CURVE SMOOTH",
"87 489 LINE",
"87 550 LINE",
"62 550 LINE SMOOTH",
"47 550 OFFCURVE",
"22 550 OFFCURVE",
"22 580 CURVE SMOOTH",
"22 611 OFFCURVE",
"46 611 OFFCURVE",
"62 611 CURVE SMOOTH",
"181 611 LINE SMOOTH",
"197 611 OFFCURVE",
"221 611 OFFCURVE",
"221 580 CURVE SMOOTH",
"221 550 OFFCURVE",
"196 550 OFFCURVE",
"181 550 CURVE SMOOTH",
"156 550 LINE",
"156 489 LINE",
"368 489 LINE",
"368 550 LINE",
"343 550 LINE SMOOTH",
"327 550 OFFCURVE",
"303 550 OFFCURVE",
"303 581 CURVE SMOOTH",
"303 611 OFFCURVE",
"328 611 OFFCURVE",
"343 611 CURVE SMOOTH",
"462 611 LINE SMOOTH",
"478 611 OFFCURVE",
"502 611 OFFCURVE",
"502 580 CURVE SMOOTH",
"502 550 OFFCURVE",
"477 550 OFFCURVE",
"462 550 CURVE SMOOTH",
"437 550 LINE",
"437 489 LINE",
"467 489 LINE SMOOTH",
"484 489 OFFCURVE",
"498 475 OFFCURVE",
"498 458 CURVE SMOOTH",
"498 441 OFFCURVE",
"484 427 OFFCURVE",
"467 427 CURVE SMOOTH",
"437 427 LINE",
"437 61 LINE",
"462 61 LINE SMOOTH",
"478 61 OFFCURVE",
"502 61 OFFCURVE",
"502 30 CURVE SMOOTH"
);
},
{
closed = 1;
nodes = (
"368 427 LINE",
"156 427 LINE",
"156 348 LINE",
"368 348 LINE"
);
}
);
width = 525;
}
);
unicode = 0126;
},
{
glyphname = I;
layers = (
{
layerId = master01;
paths = (
{
closed = 1;
nodes = (
"446 0 OFFCURVE",
"420 0 OFFCURVE",
"405 0 CURVE SMOOTH",
"120 0 LINE SMOOTH",
"105 0 OFFCURVE",
"79 0 OFFCURVE",
"79 31 CURVE SMOOTH",
"79 61 OFFCURVE",
"105 61 OFFCURVE",
"120 61 CURVE SMOOTH",
"228 61 LINE",
"228 550 LINE",
"120 550 LINE SMOOTH",
"105 550 OFFCURVE",
"79 550 OFFCURVE",
"79 581 CURVE SMOOTH",
"79 611 OFFCURVE",
"105 611 OFFCURVE",
"120 611 CURVE SMOOTH",
"405 611 LINE SMOOTH",
"420 611 OFFCURVE",
"446 611 OFFCURVE",
"446 580 CURVE SMOOTH",
"446 550 OFFCURVE",
"420 550 OFFCURVE",
"405 550 CURVE SMOOTH",
"297 550 LINE",
"297 61 LINE",
"405 61 LINE SMOOTH",
"420 61 OFFCURVE",
"446 61 OFFCURVE",
"446 30 CURVE SMOOTH"
);
}
);
width = 525;
}
);
unicode = 0049;
},
{
glyphname = Iogonek;
layers = (
{
layerId = master01;
paths = (
{
closed = 1;
nodes = (
"446 0 OFFCURVE",
"420 0 OFFCURVE",
"405 0 CURVE SMOOTH",
"297 0 LINE",
"258 -22 OFFCURVE",
"232 -63 OFFCURVE",
"232 -110 CURVE SMOOTH",
"232 -134 OFFCURVE",
"258 -149 OFFCURVE",
"276 -149 CURVE SMOOTH",
"296 -149 OFFCURVE",
"319 -128 OFFCURVE",
"330 -112 CURVE",
"336 -106 OFFCURVE",
"358 -102 OFFCURVE",
"367 -107 CURVE",
"375 -114 OFFCURVE",
"379 -135 OFFCURVE",
"372 -144 CURVE SMOOTH",
"348 -177 OFFCURVE",
"310 -203 OFFCURVE",
"272 -203 CURVE SMOOTH",
"209 -203 OFFCURVE",
"173 -151 OFFCURVE",
"173 -108 CURVE SMOOTH",
"173 -66 OFFCURVE",
"203 -26 OFFCURVE",
"237 0 CURVE",
"120 0 LINE SMOOTH",
"105 0 OFFCURVE",
"79 0 OFFCURVE",
"79 31 CURVE SMOOTH",
"79 61 OFFCURVE",
"105 61 OFFCURVE",
"120 61 CURVE SMOOTH",
"228 61 LINE",
"228 550 LINE",
"120 550 LINE SMOOTH",
"105 550 OFFCURVE",
"79 550 OFFCURVE",
"79 581 CURVE SMOOTH",
"79 611 OFFCURVE",
"105 611 OFFCURVE",
"120 611 CURVE SMOOTH",
"405 611 LINE SMOOTH",
"420 611 OFFCURVE",
"446 611 OFFCURVE",
"446 580 CURVE SMOOTH",
"446 550 OFFCURVE",
"420 550 OFFCURVE",
"405 550 CURVE SMOOTH",
"297 550 LINE",
"297 61 LINE",
"405 61 LINE SMOOTH",
"420 61 OFFCURVE",
"446 61 OFFCURVE",
"446 30 CURVE SMOOTH"
);
}
);
width = 525;
}
);
unicode = 012E;
},
{
glyphname = J;
layers = (
{
layerId = master01;
paths = (
{
closed = 1;
nodes = (
"478 550 OFFCURVE",
"453 550 OFFCURVE",
"437 550 CURVE SMOOTH",
"407 550 LINE",
"407 134 LINE SMOOTH",
"407 43 OFFCURVE",
"326 -11 OFFCURVE",
"237 -11 CURVE SMOOTH",
"137 -11 OFFCURVE",
"71 36 OFFCURVE",
"71 99 CURVE SMOOTH",
"71 131 OFFCURVE",
"93 146 OFFCURVE",
"116 146 CURVE SMOOTH",
"141 146 OFFCURVE",
"160 126 OFFCURVE",
"160 102 CURVE SMOOTH",
"160 86 OFFCURVE",
"156 81 OFFCURVE",
"152 76 CURVE",
"181 50 OFFCURVE",
"229 50 OFFCURVE",
"237 50 CURVE SMOOTH",
"256 50 OFFCURVE",
"338 55 OFFCURVE",
"338 140 CURVE SMOOTH",
"338 550 LINE",
"256 550 LINE SMOOTH",
"241 550 OFFCURVE",
"215 550 OFFCURVE",
"215 581 CURVE SMOOTH",
"215 611 OFFCURVE",
"241 611 OFFCURVE",
"256 611 CURVE SMOOTH",
"437 611 LINE SMOOTH",
"452 611 OFFCURVE",
"478 611 OFFCURVE",
"478 581 CURVE SMOOTH"
);
}
);
width = 525;
}
);
unicode = 004A;
},
{
glyphname = K;
layers = (
{
layerId = master01;
paths = (
{
closed = 1;
nodes = (
"495 0 OFFCURVE",
"469 0 OFFCURVE",
"454 0 CURVE SMOOTH",
"379 0 LINE SMOOTH",
"363 0 OFFCURVE",
"338 0 OFFCURVE",
"338 31 CURVE SMOOTH",
"338 61 OFFCURVE",
"364 61 OFFCURVE",
"378 61 CURVE",
"238 311 LINE",
"145 194 LINE",
"145 61 LINE",
"167 61 LINE SMOOTH",
"183 61 OFFCURVE",
"208 61 OFFCURVE",
"208 30 CURVE SMOOTH",
"208 0 OFFCURVE",
"182 0 OFFCURVE",
"167 0 CURVE SMOOTH",
"67 0 LINE SMOOTH",
"51 0 OFFCURVE",
"26 0 OFFCURVE",
"26 31 CURVE SMOOTH",
"26 61 OFFCURVE",
"52 61 OFFCURVE",
"67 61 CURVE SMOOTH",
"89 61 LINE",
"89 550 LINE",
"67 550 LINE SMOOTH",
"51 550 OFFCURVE",
"26 550 OFFCURVE",
"26 581 CURVE SMOOTH",
"26 611 OFFCURVE",
"52 611 OFFCURVE",
"67 611 CURVE SMOOTH",
"167 611 LINE SMOOTH",
"183 611 OFFCURVE",
"208 611 OFFCURVE",
"208 580 CURVE SMOOTH",
"208 550 OFFCURVE",
"182 550 OFFCURVE",
"167 550 CURVE SMOOTH",
"145 550 LINE",
"145 284 LINE",
"356 550 LINE",
"342 550 OFFCURVE",
"315 550 OFFCURVE",
"315 580 CURVE SMOOTH",
"315 611 OFFCURVE",
"341 611 OFFCURVE",
"356 611 CURVE SMOOTH",
"444 611 LINE SMOOTH",
"458 611 OFFCURVE",
"485 611 OFFCURVE",
"485 581 CURVE SMOOTH",
"485 550 OFFCURVE",
"464 550 OFFCURVE",
"428 550 CURVE",
"276 358 LINE",
"436 73 LINE SMOOTH",
"437 71 OFFCURVE",
"441 65 OFFCURVE",
"443 61 CURVE",
"472 61 OFFCURVE",
"495 61 OFFCURVE",
"495 30 CURVE SMOOTH"
);
}
);
width = 525;
}
);
unicode = 004B;
},
{
glyphname = L;
layers = (
{
layerId = master01;
paths = (
{
closed = 1;
nodes = (
"488 9 OFFCURVE",
"481 0 OFFCURVE",
"448 0 CURVE SMOOTH",
"72 0 LINE SMOOTH",
"57 0 OFFCURVE",
"32 0 OFFCURVE",
"32 30 CURVE SMOOTH",
"32 61 OFFCURVE",
"56 61 OFFCURVE",
"72 61 CURVE SMOOTH",
"109 61 LINE",
"109 550 LINE",
"72 550 LINE SMOOTH",
"57 550 OFFCURVE",
"32 550 OFFCURVE",
"32 580 CURVE SMOOTH",
"32 611 OFFCURVE",
"56 611 OFFCURVE",
"72 611 CURVE SMOOTH",
"234 611 LINE SMOOTH",
"249 611 OFFCURVE",
"275 611 OFFCURVE",
"275 580 CURVE SMOOTH",
"275 550 OFFCURVE",
"248 550 OFFCURVE",
"234 550 CURVE SMOOTH",
"178 550 LINE",
"178 61 LINE",
"419 61 LINE",
"419 130 LINE SMOOTH",
"419 151 OFFCURVE",
"419 171 OFFCURVE",
"454 171 CURVE SMOOTH",
"488 171 OFFCURVE",
"488 150 OFFCURVE",
"488 130 CURVE SMOOTH",
"488 41 LINE SMOOTH"
);
}
);
width = 525;
}
);
unicode = 004C;
},
{
glyphname = Lslash;
layers = (
{
layerId = master01;
paths = (
{
closed = 1;
nodes = (
"488 9 OFFCURVE",
"481 0 OFFCURVE",
"448 0 CURVE SMOOTH",
"72 0 LINE SMOOTH",
"57 0 OFFCURVE",
"32 0 OFFCURVE",
"32 30 CURVE SMOOTH",
"32 61 OFFCURVE",
"56 61 OFFCURVE",
"72 61 CURVE SMOOTH",
"109 61 LINE",
"109 262 LINE",
"74 238 LINE SMOOTH",
"60 228 OFFCURVE",
"42 232 OFFCURVE",
"34 245 CURVE",
"33 245 LINE",
"24 259 OFFCURVE",
"28 277 OFFCURVE",
"41 286 CURVE SMOOTH",
"109 333 LINE",
"109 550 LINE",
"72 550 LINE SMOOTH",
"57 550 OFFCURVE",
"32 550 OFFCURVE",
"32 580 CURVE SMOOTH",
"32 611 OFFCURVE",
"56 611 OFFCURVE",
"72 611 CURVE SMOOTH",
"234 611 LINE SMOOTH",
"249 611 OFFCURVE",
"275 611 OFFCURVE",
"275 580 CURVE SMOOTH",
"275 550 OFFCURVE",
"248 550 OFFCURVE",
"234 550 CURVE SMOOTH",
"178 550 LINE",
"178 380 LINE",
"347 495 LINE SMOOTH",
"360 504 OFFCURVE",
"378 500 OFFCURVE",
"387 487 CURVE",
"387 486 LINE",
"397 472 OFFCURVE",
"393 454 OFFCURVE",
"380 445 CURVE SMOOTH",
"178 309 LINE",
"178 61 LINE",
"419 61 LINE",
"419 130 LINE SMOOTH",
"419 151 OFFCURVE",
"419 171 OFFCURVE",
"454 171 CURVE SMOOTH",
"488 171 OFFCURVE",
"488 150 OFFCURVE",
"488 130 CURVE SMOOTH",
"488 41 LINE SMOOTH"
);
}
);
width = 525;
}
);
unicode = 0141;
},
{
glyphname = M;
layers = (
{
layerId = master01;
paths = (
{
closed = 1;
nodes = (
"507 0 OFFCURVE",
"482 0 OFFCURVE",
"467 0 CURVE SMOOTH",
"385 0 LINE SMOOTH",
"370 0 OFFCURVE",
"345 0 OFFCURVE",
"345 30 CURVE SMOOTH",
"345 61 OFFCURVE",
"366 61 OFFCURVE",
"398 61 CURVE",
"398 538 LINE",
"397 538 LINE",
"385 485 OFFCURVE",
"300 232 OFFCURVE",
"297 226 CURVE",
"289 212 OFFCURVE",
"275 204 OFFCURVE",
"262 204 CURVE SMOOTH",
"250 204 OFFCURVE",
"238 211 OFFCURVE",
"232 219 CURVE SMOOTH",
"227 226 OFFCURVE",
"214 264 OFFCURVE",
"206 287 CURVE SMOOTH",
"202 300 OFFCURVE",
"138 492 OFFCURVE",
"127 538 CURVE",
"126 538 LINE",
"126 61 LINE",
"158 61 OFFCURVE",
"179 61 OFFCURVE",
"179 30 CURVE SMOOTH",
"179 0 OFFCURVE",
"154 0 OFFCURVE",
"139 0 CURVE SMOOTH",
"57 0 LINE SMOOTH",
"42 0 OFFCURVE",
"17 0 OFFCURVE",
"17 30 CURVE SMOOTH",
"17 61 OFFCURVE",
"38 61 OFFCURVE",
"70 61 CURVE",
"70 550 LINE",
"38 550 OFFCURVE",
"17 550 OFFCURVE",
"17 581 CURVE SMOOTH",
"17 611 OFFCURVE",
"42 611 OFFCURVE",
"57 611 CURVE SMOOTH",
"113 611 LINE SMOOTH",
"127 611 OFFCURVE",
"152 611 OFFCURVE",
"162 587 CURVE",
"164 581 OFFCURVE",
"252 322 OFFCURVE",
"262 275 CURVE",
"263 275 LINE",
"269 304 OFFCURVE",
"278 333 OFFCURVE",
"290 369 CURVE SMOOTH",
"357 571 LINE SMOOTH",
"366 597 OFFCURVE",
"370 611 OFFCURVE",
"411 611 CURVE SMOOTH",
"467 611 LINE SMOOTH",
"482 611 OFFCURVE",
"507 611 OFFCURVE",
"507 581 CURVE SMOOTH",
"507 550 OFFCURVE",
"486 550 OFFCURVE",
"454 550 CURVE",
"454 61 LINE",
"486 61 OFFCURVE",
"507 61 OFFCURVE",
"507 30 CURVE SMOOTH"
);
}
);
width = 525;
}
);
unicode = 004D;
},
{
glyphname = N;
layers = (
{
layerId = master01;
paths = (
{
closed = 1;
nodes = (
"496 550 OFFCURVE",
"471 550 OFFCURVE",
"456 550 CURVE SMOOTH",
"431 550 LINE",
"431 41 LINE SMOOTH",
"431 3 OFFCURVE",
"419 0 OFFCURVE",
"389 0 CURVE SMOOTH",
"363 0 OFFCURVE",
"347 1 OFFCURVE",
"334 36 CURVE SMOOTH",
"150 536 LINE",
"149 536 LINE",
"149 61 LINE",
"174 61 LINE SMOOTH",
"190 61 OFFCURVE",
"214 61 OFFCURVE",
"214 30 CURVE SMOOTH",
"214 0 OFFCURVE",
"189 0 OFFCURVE",
"174 0 CURVE SMOOTH",
"68 0 LINE SMOOTH",
"52 0 OFFCURVE",
"28 0 OFFCURVE",
"28 31 CURVE SMOOTH",
"28 61 OFFCURVE",
"53 61 OFFCURVE",
"68 61 CURVE SMOOTH",
"93 61 LINE",
"93 550 LINE",
"68 550 LINE SMOOTH",
"52 550 OFFCURVE",
"28 550 OFFCURVE",
"28 581 CURVE SMOOTH",
"28 611 OFFCURVE",
"53 611 OFFCURVE",
"68 611 CURVE SMOOTH",
"136 611 LINE SMOOTH",
"163 611 OFFCURVE",
"178 608 OFFCURVE",
"190 575 CURVE SMOOTH",
"374 75 LINE",
"375 75 LINE",
"375 550 LINE",
"350 550 LINE SMOOTH",
"335 550 OFFCURVE",
"310 550 OFFCURVE",
"310 580 CURVE SMOOTH",
"310 611 OFFCURVE",
"334 611 OFFCURVE",
"350 611 CURVE SMOOTH",
"456 611 LINE SMOOTH",
"472 611 OFFCURVE",
"496 611 OFFCURVE",
"496 580 CURVE SMOOTH"
);
}
);
width = 525;
}
);
unicode = 004E;
},
{
glyphname = Eng;
layers = (
{
layerId = master01;
paths = (
{
closed = 1;
nodes = (
"490 156 OFFCURVE",
"478 -11 OFFCURVE",
"350 -11 CURVE SMOOTH",
"326 -11 OFFCURVE",
"306 9 OFFCURVE",
"306 33 CURVE SMOOTH",
"306 57 OFFCURVE",
"326 77 OFFCURVE",
"350 77 CURVE SMOOTH",
"360 77 OFFCURVE",
"370 74 OFFCURVE",
"377 68 CURVE",
"420 99 OFFCURVE",
"420 212 OFFCURVE",
"420 306 CURVE SMOOTH",
"420 425 OFFCURVE",
"391 552 OFFCURVE",
"289 552 CURVE SMOOTH",
"223 552 OFFCURVE",
"174 496 OFFCURVE",
"166 428 CURVE",
"166 61 LINE",
"210 61 LINE SMOOTH",
"226 61 OFFCURVE",
"251 61 OFFCURVE",
"251 30 CURVE SMOOTH",
"251 0 OFFCURVE",
"225 0 OFFCURVE",
"211 0 CURVE SMOOTH",
"52 0 LINE SMOOTH",
"38 0 OFFCURVE",
"12 0 OFFCURVE",
"12 30 CURVE SMOOTH",
"12 61 OFFCURVE",
"37 61 OFFCURVE",
"53 61 CURVE SMOOTH",
"97 61 LINE",
"97 550 LINE",
"52 550 LINE SMOOTH",
"38 550 OFFCURVE",
"12 550 OFFCURVE",
"12 580 CURVE SMOOTH",
"12 611 OFFCURVE",
"37 611 OFFCURVE",
"53 611 CURVE SMOOTH",
"126 611 LINE SMOOTH",
"159 611 OFFCURVE",
"166 601 OFFCURVE",
"166 572 CURVE",
"199 603 OFFCURVE",
"241 622 OFFCURVE",
"289 622 CURVE SMOOTH",
"427 622 OFFCURVE",
"490 463 OFFCURVE",
"490 306 CURVE SMOOTH"
);
}
);
width = 525;
}
);
unicode = 014A;
},
{
glyphname = O;
layers = (
{
layerId = master01;
paths = (
{
closed = 1;
nodes = (
"468 16 OFFCURVE",
"446 -11 OFFCURVE",
"262 -11 CURVE SMOOTH",
"77 -11 OFFCURVE",
"56 16 OFFCURVE",
"56 305 CURVE SMOOTH",
"56 595 OFFCURVE",
"77 622 OFFCURVE",
"262 622 CURVE SMOOTH",
"447 622 OFFCURVE",
"468 594 OFFCURVE",
"468 305 CURVE SMOOTH"
);
},
{
closed = 1;
nodes = (
"399 375 OFFCURVE",
"399 450 OFFCURVE",
"387 497 CURVE SMOOTH",
"372 552 OFFCURVE",
"337 561 OFFCURVE",
"262 561 CURVE SMOOTH",
"180 561 OFFCURVE",
"149 549 OFFCURVE",
"136 490 CURVE SMOOTH",
"125 444 OFFCURVE",
"125 376 OFFCURVE",
"125 314 CURVE SMOOTH",
"125 259 OFFCURVE",
"125 172 OFFCURVE",
"137 121 CURVE SMOOTH",
"149 71 OFFCURVE",
"174 50 OFFCURVE",
"262 50 CURVE SMOOTH",
"351 50 OFFCURVE",
"377 71 OFFCURVE",
"388 127 CURVE SMOOTH",
"399 181 OFFCURVE",
"399 252 OFFCURVE",
"399 314 CURVE SMOOTH"
);
}
);
width = 525;
}
);
unicode = 004F;
},
{
glyphname = Ohorn;
layers = (
{
layerId = master01;
paths = (
{
closed = 1;
nodes = (
"495 604 OFFCURVE",
"477 566 OFFCURVE",
"445 548 CURVE",
"467 489 OFFCURVE",
"467 385 OFFCURVE",
"467 305 CURVE SMOOTH",
"467 214 OFFCURVE",
"467 90 OFFCURVE",
"434 39 CURVE SMOOTH",
"401 -11 OFFCURVE",
"327 -11 OFFCURVE",
"261 -11 CURVE SMOOTH",
"196 -11 OFFCURVE",
"121 -11 OFFCURVE",
"89 39 CURVE SMOOTH",
"56 90 OFFCURVE",
"56 214 OFFCURVE",
"56 305 CURVE SMOOTH",
"56 397 OFFCURVE",
"56 521 OFFCURVE",
"89 572 CURVE SMOOTH",
"121 622 OFFCURVE",
"196 622 OFFCURVE",
"261 622 CURVE SMOOTH",
"312 622 OFFCURVE",
"368 622 OFFCURVE",
"406 599 CURVE",
"414 600 OFFCURVE",
"421 605 OFFCURVE",
"427 614 CURVE",
"407 621 OFFCURVE",
"395 640 OFFCURVE",
"395 661 CURVE SMOOTH",
"395 686 OFFCURVE",
"415 710 OFFCURVE",
"445 711 CURVE",
"483 710 OFFCURVE",
"495 673 OFFCURVE",
"495 643 CURVE SMOOTH"
);
},
{
closed = 1;
nodes = (
"397 388 OFFCURVE",
"397 484 OFFCURVE",
"376 522 CURVE SMOOTH",
"355 560 OFFCURVE",
"306 561 OFFCURVE",
"261 561 CURVE SMOOTH",
"217 561 OFFCURVE",
"168 560 OFFCURVE",
"147 522 CURVE SMOOTH",
"125 484 OFFCURVE",
"125 388 OFFCURVE",
"125 318 CURVE SMOOTH",
"125 241 OFFCURVE",
"125 135 OFFCURVE",
"147 93 CURVE SMOOTH",
"167 54 OFFCURVE",
"216 50 OFFCURVE",
"261 50 CURVE SMOOTH",
"306 50 OFFCURVE",
"356 54 OFFCURVE",
"376 93 CURVE SMOOTH",
"397 135 OFFCURVE",
"397 241 OFFCURVE",
"397 318 CURVE SMOOTH"
);
}
);
width = 525;
}
);
unicode = 01A0;
},
{
glyphname = Oogonek;
layers = (
{
layerId = master01;
paths = (
{
closed = 1;
nodes = (
"468 28 OFFCURVE",
"448 -8 OFFCURVE",
"284 -11 CURVE",
"255 -34 OFFCURVE",
"236 -70 OFFCURVE",
"236 -110 CURVE SMOOTH",
"236 -134 OFFCURVE",
"262 -149 OFFCURVE",
"280 -149 CURVE SMOOTH",
"300 -149 OFFCURVE",
"323 -128 OFFCURVE",
"334 -112 CURVE",
"340 -106 OFFCURVE",
"362 -102 OFFCURVE",
"371 -107 CURVE",
"379 -114 OFFCURVE",
"383 -135 OFFCURVE",
"376 -144 CURVE SMOOTH",
"352 -177 OFFCURVE",
"314 -203 OFFCURVE",
"276 -203 CURVE SMOOTH",
"213 -203 OFFCURVE",
"177 -151 OFFCURVE",
"177 -108 CURVE SMOOTH",
"177 -72 OFFCURVE",
"199 -36 OFFCURVE",
"227 -11 CURVE",
"74 -6 OFFCURVE",
"56 35 OFFCURVE",
"56 305 CURVE SMOOTH",
"56 595 OFFCURVE",
"77 622 OFFCURVE",
"262 622 CURVE SMOOTH",
"447 622 OFFCURVE",
"468 594 OFFCURVE",
"468 305 CURVE SMOOTH"
);
},
{
closed = 1;
nodes = (
"399 375 OFFCURVE",
"399 450 OFFCURVE",
"387 497 CURVE SMOOTH",
"372 552 OFFCURVE",
"337 561 OFFCURVE",
"262 561 CURVE SMOOTH",
"180 561 OFFCURVE",
"149 549 OFFCURVE",
"136 490 CURVE SMOOTH",
"125 444 OFFCURVE",
"125 376 OFFCURVE",
"125 314 CURVE SMOOTH",
"125 259 OFFCURVE",
"125 172 OFFCURVE",
"137 121 CURVE SMOOTH",
"149 71 OFFCURVE",
"174 50 OFFCURVE",
"262 50 CURVE SMOOTH",
"351 50 OFFCURVE",
"377 71 OFFCURVE",
"388 127 CURVE SMOOTH",
"399 181 OFFCURVE",
"399 252 OFFCURVE",
"399 314 CURVE SMOOTH"
);
}
);
width = 525;
}
);
unicode = 01EA;
},
{
glyphname = Oslash;
layers = (
{
layerId = master01;
paths = (
{
closed = 1;
nodes = (
"468 16 OFFCURVE",
"446 -11 OFFCURVE",
"262 -11 CURVE SMOOTH",
"239 -11 OFFCURVE",
"218 -11 OFFCURVE",
"192 -9 CURVE",
"177 -55 LINE SMOOTH",
"173 -68 OFFCURVE",
"168 -85 OFFCURVE",
"147 -85 CURVE",
"147 -85 OFFCURVE",
"115 -83 OFFCURVE",
"115 -55 CURVE",
"115 -55 OFFCURVE",
"115 -47 OFFCURVE",
"132 4 CURVE",
"82 26 OFFCURVE",
"69 69 OFFCURVE",
"61 147 CURVE SMOOTH",
"56 195 OFFCURVE",
"56 260 OFFCURVE",
"56 305 CURVE SMOOTH",
"56 595 OFFCURVE",
"77 622 OFFCURVE",
"262 622 CURVE SMOOTH",
"285 622 OFFCURVE",
"306 622 OFFCURVE",
"332 620 CURVE",
"347 666 LINE SMOOTH",
"351 679 OFFCURVE",
"356 696 OFFCURVE",
"377 696 CURVE",
"377 696 OFFCURVE",
"409 694 OFFCURVE",
"409 666 CURVE",
"409 666 OFFCURVE",
"409 658 OFFCURVE",
"392 607 CURVE",
"457 579 OFFCURVE",
"468 510 OFFCURVE",
"468 305 CURVE SMOOTH"
);
},
{
closed = 1;
nodes = (
"412 509 OFFCURVE",
"391 524 OFFCURVE",
"370 540 CURVE",
"212 53 LINE",
"212 53 OFFCURVE",
"218 51 OFFCURVE",
"223 51 CURVE",
"234 50 OFFCURVE",
"236 50 OFFCURVE",
"262 50 CURVE SMOOTH",
"341 50 OFFCURVE",
"382 57 OFFCURVE",
"399 117 CURVE SMOOTH",
"412 165 OFFCURVE",
"412 245 OFFCURVE",
"412 306 CURVE SMOOTH"
);
},
{
closed = 1;
nodes = (
"312 558 OFFCURVE",
"306 560 OFFCURVE",
"301 560 CURVE",
"290 561 OFFCURVE",
"288 561 OFFCURVE",
"262 561 CURVE SMOOTH",
"183 561 OFFCURVE",
"142 554 OFFCURVE",
"125 494 CURVE SMOOTH",
"112 446 OFFCURVE",
"112 366 OFFCURVE",
"112 305 CURVE SMOOTH",
"112 102 OFFCURVE",
"133 87 OFFCURVE",
"154 71 CURVE",
"312 558 LINE"
);
}
);
width = 525;
}
);
unicode = 00D8;
},
{
glyphname = OE;
layers = (
{
layerId = master01;
paths = (
{
closed = 1;
nodes = (
"502 9 OFFCURVE",
"495 0 OFFCURVE",
"462 0 CURVE SMOOTH",
"297 0 LINE SMOOTH",
"288 0 OFFCURVE",
"274 0 OFFCURVE",
"254 -4 CURVE SMOOTH",
"220 -11 OFFCURVE",
"213 -11 OFFCURVE",
"193 -11 CURVE SMOOTH",
"83 -11 OFFCURVE",
"56 20 OFFCURVE",
"43 81 CURVE SMOOTH",
"29 144 OFFCURVE",
"29 225 OFFCURVE",
"29 306 CURVE SMOOTH",
"29 432 OFFCURVE",
"32 484 OFFCURVE",
"44 537 CURVE SMOOTH",
"59 602 OFFCURVE",
"100 622 OFFCURVE",
"193 622 CURVE SMOOTH",
"210 622 OFFCURVE",
"221 622 OFFCURVE",
"250 616 CURVE SMOOTH",
"274 611 OFFCURVE",
"285 611 OFFCURVE",
"297 611 CURVE SMOOTH",
"455 611 LINE SMOOTH",
"489 611 OFFCURVE",
"495 601 OFFCURVE",
"495 570 CURVE SMOOTH",
"495 497 LINE SMOOTH",
"495 483 OFFCURVE",
"495 456 OFFCURVE",
"467 456 CURVE SMOOTH",
"439 456 OFFCURVE",
"439 483 OFFCURVE",
"439 497 CURVE SMOOTH",
"439 550 LINE",
"318 550 LINE",
"318 347 LINE",
"440 347 LINE SMOOTH",
"456 347 OFFCURVE",
"480 347 OFFCURVE",
"480 316 CURVE SMOOTH",
"480 286 OFFCURVE",
"455 286 OFFCURVE",
"440 286 CURVE SMOOTH",
"318 286 LINE",
"318 61 LINE",
"446 61 LINE",
"446 130 LINE SMOOTH",
"446 144 OFFCURVE",
"446 171 OFFCURVE",
"474 171 CURVE SMOOTH",
"502 171 OFFCURVE",
"502 144 OFFCURVE",
"502 130 CURVE SMOOTH",
"502 41 LINE SMOOTH"
);
},
{
closed = 1;
nodes = (
"262 439 LINE SMOOTH",
"262 546 OFFCURVE",
"245 561 OFFCURVE",
"197 561 CURVE SMOOTH",
"85 561 OFFCURVE",
"85 507 OFFCURVE",
"85 314 CURVE SMOOTH",
"85 111 OFFCURVE",
"85 50 OFFCURVE",
"199 50 CURVE SMOOTH",
"246 50 OFFCURVE",
"262 69 OFFCURVE",
"262 172 CURVE SMOOTH"
);
}
);
width = 525;
}
);
unicode = 0152;
},
{
glyphname = P;
layers = (
{
layerId = master01;
paths = (
{
closed = 1;
nodes = (
"480 335 OFFCURVE",
"407 245 OFFCURVE",
"291 245 CURVE SMOOTH",
"166 245 LINE",
"166 61 LINE",
"196 61 LINE SMOOTH",
"211 61 OFFCURVE",
"237 61 OFFCURVE",
"237 30 CURVE SMOOTH",
"237 0 OFFCURVE",
"211 0 OFFCURVE",
"196 0 CURVE SMOOTH",
"67 0 LINE SMOOTH",
"52 0 OFFCURVE",
"26 0 OFFCURVE",
"26 30 CURVE SMOOTH",
"26 61 OFFCURVE",
"51 61 OFFCURVE",
"67 61 CURVE SMOOTH",
"97 61 LINE",
"97 550 LINE",
"67 550 LINE SMOOTH",
"52 550 OFFCURVE",
"26 550 OFFCURVE",
"26 581 CURVE SMOOTH",
"26 611 OFFCURVE",
"52 611 OFFCURVE",
"67 611 CURVE SMOOTH",
"291 611 LINE SMOOTH",
"406 611 OFFCURVE",
"480 521 OFFCURVE",
"480 428 CURVE SMOOTH"
);
},
{
closed = 1;
nodes = (
"411 481 OFFCURVE",
"368 550 OFFCURVE",
"272 550 CURVE SMOOTH",
"166 550 LINE",
"166 306 LINE",
"272 306 LINE SMOOTH",
"368 306 OFFCURVE",
"411 375 OFFCURVE",
"411 428 CURVE SMOOTH"
);
}
);
width = 525;
}
);
unicode = 0050;
},
{
glyphname = Thorn;
layers = (
{
layerId = master01;
paths = (
{
closed = 1;
nodes = (
"476 249 OFFCURVE",
"410 159 OFFCURVE",
"293 159 CURVE SMOOTH",
"178 159 LINE",
"178 61 LINE",
"196 61 OFFCURVE",
"229 61 OFFCURVE",
"233 60 CURVE SMOOTH",
"255 55 OFFCURVE",
"255 35 OFFCURVE",
"255 30 CURVE SMOOTH",
"255 0 OFFCURVE",
"230 0 OFFCURVE",
"212 0 CURVE SMOOTH",
"74 0 LINE SMOOTH",
"56 0 OFFCURVE",
"31 0 OFFCURVE",
"31 30 CURVE SMOOTH",
"31 58 OFFCURVE",
"54 60 OFFCURVE",
"56 61 CURVE",
"108 61 LINE",
"108 550 LINE",
"90 550 OFFCURVE",
"57 550 OFFCURVE",
"53 551 CURVE SMOOTH",
"31 556 OFFCURVE",
"31 576 OFFCURVE",
"31 581 CURVE SMOOTH",
"31 611 OFFCURVE",
"56 611 OFFCURVE",
"74 611 CURVE SMOOTH",
"212 611 LINE SMOOTH",
"230 611 OFFCURVE",
"255 611 OFFCURVE",
"255 581 CURVE SMOOTH",
"255 553 OFFCURVE",
"232 551 OFFCURVE",
"230 550 CURVE",
"178 550 LINE",
"178 507 LINE",
"292 507 LINE SMOOTH",
"413 507 OFFCURVE",
"476 415 OFFCURVE",
"476 333 CURVE SMOOTH"
);
},
{
closed = 1;
nodes = (
"406 376 OFFCURVE",
"374 446 OFFCURVE",
"278 446 CURVE SMOOTH",
"178 446 LINE",
"178 220 LINE",
"268 220 LINE SMOOTH",
"367 220 OFFCURVE",
"406 286 OFFCURVE",
"406 333 CURVE SMOOTH"
);
}
);
width = 525;
}
);
unicode = 00DE;
},
{
glyphname = Q;
layers = (
{
layerId = master01;
paths = (
{
closed = 1;
nodes = (
"468 259 OFFCURVE",
"468 192 OFFCURVE",
"462 138 CURVE SMOOTH",
"453 57 OFFCURVE",
"435 22 OFFCURVE",
"391 4 CURVE",
"398 -9 OFFCURVE",
"416 -43 OFFCURVE",
"424 -56 CURVE",
"435 -78 OFFCURVE",
"455 -114 OFFCURVE",
"455 -120 CURVE SMOOTH",
"455 -139 OFFCURVE",
"438 -139 OFFCURVE",
"423 -139 CURVE SMOOTH",
"414 -139 LINE SMOOTH",
"398 -139 OFFCURVE",
"387 -139 OFFCURVE",
"379 -127 CURVE",
"318 -10 LINE",
"307 -11 OFFCURVE",
"275 -11 OFFCURVE",
"262 -11 CURVE SMOOTH",
"77 -11 OFFCURVE",
"56 16 OFFCURVE",
"56 305 CURVE SMOOTH",
"56 595 OFFCURVE",
"77 622 OFFCURVE",
"262 622 CURVE SMOOTH",
"447 622 OFFCURVE",
"468 594 OFFCURVE",
"468 305 CURVE SMOOTH"
);
},
{
closed = 1;
nodes = (
"399 360 OFFCURVE",
"399 428 OFFCURVE",
"390 479 CURVE SMOOTH",
"379 544 OFFCURVE",
"351 561 OFFCURVE",
"262 561 CURVE SMOOTH",
"170 561 OFFCURVE",
"148 541 OFFCURVE",
"135 486 CURVE SMOOTH",
"125 438 OFFCURVE",
"125 361 OFFCURVE",
"125 305 CURVE SMOOTH",
"125 251 OFFCURVE",
"125 183 OFFCURVE",
"134 132 CURVE SMOOTH",
"144 78 OFFCURVE",
"164 50 OFFCURVE",
"254 50 CURVE SMOOTH",
"286 50 LINE",
"240 139 LINE",
"237 144 OFFCURVE",
"236 147 OFFCURVE",
"236 152 CURVE SMOOTH",
"236 171 OFFCURVE",
"254 171 OFFCURVE",
"268 171 CURVE SMOOTH",
"279 171 LINE SMOOTH",
"299 171 OFFCURVE",
"300 170 OFFCURVE",
"309 155 CURVE SMOOTH",
"357 68 LINE",
"379 83 OFFCURVE",
"399 97 OFFCURVE",
"399 306 CURVE SMOOTH"
);
}
);
width = 525;
}
);
unicode = 0051;
},
{
glyphname = R;
layers = (
{
layerId = master01;
paths = (
{
closed = 1;
nodes = (
"522 55 OFFCURVE",
"498 -11 OFFCURVE",
"435 -11 CURVE SMOOTH",
"401 -11 OFFCURVE",
"373 5 OFFCURVE",
"356 35 CURVE SMOOTH",
"337 67 OFFCURVE",
"337 97 OFFCURVE",
"337 162 CURVE SMOOTH",
"337 204 OFFCURVE",
"337 226 OFFCURVE",
"315 247 CURVE SMOOTH",
"283 275 OFFCURVE",
"253 275 OFFCURVE",
"234 275 CURVE SMOOTH",
"156 275 LINE",
"156 61 LINE",
"181 61 LINE SMOOTH",
"197 61 OFFCURVE",
"221 61 OFFCURVE",
"221 30 CURVE SMOOTH",
"221 0 OFFCURVE",
"196 0 OFFCURVE",
"181 0 CURVE SMOOTH",
"62 0 LINE SMOOTH",
"47 0 OFFCURVE",
"22 0 OFFCURVE",
"22 30 CURVE SMOOTH",
"22 61 OFFCURVE",
"46 61 OFFCURVE",
"62 61 CURVE SMOOTH",
"87 61 LINE",
"87 550 LINE",
"62 550 LINE SMOOTH",
"47 550 OFFCURVE",
"22 550 OFFCURVE",
"22 580 CURVE SMOOTH",
"22 611 OFFCURVE",
"46 611 OFFCURVE",
"62 611 CURVE SMOOTH",
"239 611 LINE SMOOTH",
"357 611 OFFCURVE",
"433 529 OFFCURVE",
"433 443 CURVE SMOOTH",
"433 402 OFFCURVE",
"414 341 OFFCURVE",
"348 304 CURVE",
"362 293 OFFCURVE",
"385 272 OFFCURVE",
"397 243 CURVE SMOOTH",
"406 220 OFFCURVE",
"406 212 OFFCURVE",
"406 149 CURVE SMOOTH",
"406 96 OFFCURVE",
"406 50 OFFCURVE",
"434 50 CURVE SMOOTH",
"451 50 OFFCURVE",
"453 87 OFFCURVE",
"453 95 CURVE SMOOTH",
"454 125 OFFCURVE",
"477 125 OFFCURVE",
"487 125 CURVE SMOOTH",
"498 125 OFFCURVE",
"522 125 OFFCURVE",
"522 93 CURVE SMOOTH"
);
},
{
closed = 1;
nodes = (
"364 491 OFFCURVE",
"320 550 OFFCURVE",
"228 550 CURVE SMOOTH",
"156 550 LINE",
"156 336 LINE",
"228 336 LINE SMOOTH",
"319 336 OFFCURVE",
"364 394 OFFCURVE",
"364 443 CURVE SMOOTH"
);
}
);
width = 525;
}
);
unicode = 0052;
},
{
glyphname = S;
layers = (
{
layerId = master01;
paths = (
{
closed = 1;
nodes = (
"472 77 OFFCURVE",
"400 -11 OFFCURVE",
"284 -11 CURVE SMOOTH",
"220 -11 OFFCURVE",
"159 5 OFFCURVE",
"119 35 CURVE",
"110 3 OFFCURVE",
"104 -11 OFFCURVE",
"82 -11 CURVE SMOOTH",
"52 -11 OFFCURVE",
"52 14 OFFCURVE",
"52 30 CURVE SMOOTH",
"52 162 LINE SMOOTH",
"52 182 OFFCURVE",
"52 203 OFFCURVE",
"87 203 CURVE SMOOTH",
"119 203 OFFCURVE",
"120 185 OFFCURVE",
"121 168 CURVE SMOOTH",
"122 150 OFFCURVE",
"126 108 OFFCURVE",
"168 81 CURVE SMOOTH",
"208 54 OFFCURVE",
"257 50 OFFCURVE",
"285 50 CURVE SMOOTH",
"364 50 OFFCURVE",
"407 109 OFFCURVE",
"407 161 CURVE SMOOTH",
"407 248 OFFCURVE",
"324 268 OFFCURVE",
"296 274 CURVE SMOOTH",
"181 301 LINE",
"98 325 OFFCURVE",
"52 391 OFFCURVE",
"52 458 CURVE SMOOTH",
"52 543 OFFCURVE",
"127 622 OFFCURVE",
"238 622 CURVE SMOOTH",
"283 622 OFFCURVE",
"337 610 OFFCURVE",
"378 575 CURVE",
"386 605 OFFCURVE",
"391 622 OFFCURVE",
"415 622 CURVE SMOOTH",
"445 622 OFFCURVE",
"445 597 OFFCURVE",
"445 581 CURVE SMOOTH",
"445 449 LINE SMOOTH",
"445 429 OFFCURVE",
"445 408 OFFCURVE",
"410 408 CURVE SMOOTH",
"390 408 OFFCURVE",
"379 414 OFFCURVE",
"376 436 CURVE",
"370 467 OFFCURVE",
"355 561 OFFCURVE",
"237 561 CURVE SMOOTH",
"166 561 OFFCURVE",
"117 513 OFFCURVE",
"117 462 CURVE SMOOTH",
"117 415 OFFCURVE",
"155 380 OFFCURVE",
"197 368 CURVE",
"278 350 LINE SMOOTH",
"356 332 OFFCURVE",
"383 325 OFFCURVE",
"424 285 CURVE",
"436 272 OFFCURVE",
"472 230 OFFCURVE",
"472 166 CURVE SMOOTH"
);
}
);
width = 525;
}
);
unicode = 0053;
},
{
glyphname = Scedilla;
layers = (
{
layerId = master01;
paths = (
{
closed = 1;
nodes = (
"472 85 OFFCURVE",
"413 6 OFFCURVE",
"316 -9 CURVE",
"316 -20 LINE",
"387 -34 OFFCURVE",
"415 -78 OFFCURVE",
"415 -117 CURVE SMOOTH",
"415 -219 OFFCURVE",
"275 -219 OFFCURVE",
"180 -219 CURVE SMOOTH",
"165 -219 OFFCURVE",
"149 -211 OFFCURVE",
"149 -188 CURVE SMOOTH",
"149 -157 OFFCURVE",
"171 -157 OFFCURVE",
"209 -157 CURVE SMOOTH",
"247 -157 OFFCURVE",
"346 -157 OFFCURVE",
"346 -117 CURVE SMOOTH",
"346 -97 OFFCURVE",
"323 -79 OFFCURVE",
"279 -77 CURVE SMOOTH",
"247 -75 OFFCURVE",
"247 -55 OFFCURVE",
"247 -35 CURVE SMOOTH",
"247 -9 LINE",
"197 -4 OFFCURVE",
"151 11 OFFCURVE",
"119 35 CURVE",
"110 3 OFFCURVE",
"104 -11 OFFCURVE",
"82 -11 CURVE SMOOTH",
"52 -11 OFFCURVE",
"52 14 OFFCURVE",
"52 30 CURVE SMOOTH",
"52 162 LINE SMOOTH",
"52 182 OFFCURVE",
"52 203 OFFCURVE",
"87 203 CURVE SMOOTH",
"119 203 OFFCURVE",
"120 185 OFFCURVE",
"121 168 CURVE SMOOTH",
"122 150 OFFCURVE",
"126 108 OFFCURVE",
"168 81 CURVE SMOOTH",
"208 54 OFFCURVE",
"257 50 OFFCURVE",
"285 50 CURVE SMOOTH",
"364 50 OFFCURVE",
"407 109 OFFCURVE",
"407 161 CURVE SMOOTH",
"407 248 OFFCURVE",
"324 268 OFFCURVE",
"296 274 CURVE SMOOTH",
"181 301 LINE",
"98 325 OFFCURVE",
"52 391 OFFCURVE",
"52 458 CURVE SMOOTH",
"52 543 OFFCURVE",
"127 622 OFFCURVE",
"238 622 CURVE SMOOTH",
"283 622 OFFCURVE",
"337 610 OFFCURVE",
"378 575 CURVE",
"386 605 OFFCURVE",
"391 622 OFFCURVE",
"415 622 CURVE SMOOTH",
"445 622 OFFCURVE",
"445 597 OFFCURVE",
"445 581 CURVE SMOOTH",
"445 449 LINE SMOOTH",
"445 429 OFFCURVE",
"445 408 OFFCURVE",
"410 408 CURVE SMOOTH",
"390 408 OFFCURVE",
"379 414 OFFCURVE",
"376 436 CURVE",
"370 467 OFFCURVE",
"355 561 OFFCURVE",
"237 561 CURVE SMOOTH",
"166 561 OFFCURVE",
"117 513 OFFCURVE",
"117 462 CURVE SMOOTH",
"117 415 OFFCURVE",
"155 380 OFFCURVE",
"197 368 CURVE",
"278 350 LINE SMOOTH",
"356 332 OFFCURVE",
"383 325 OFFCURVE",
"424 285 CURVE",
"436 272 OFFCURVE",
"472 230 OFFCURVE",
"472 166 CURVE SMOOTH"
);
}
);
width = 525;
}
);
unicode = 015E;
},
{
glyphname = Germandbls;
layers = (
{
layerId = master01;
paths = (
{
closed = 1;
nodes = (
"161 622 OFFCURVE",
"74 560 OFFCURVE",
"74 437 CURVE SMOOTH",
"74 61 LINE",
"64 61 LINE SMOOTH",
"49 61 OFFCURVE",
"23 61 OFFCURVE",
"23 30 CURVE SMOOTH",
"23 0 OFFCURVE",
"49 0 OFFCURVE",
"64 0 CURVE SMOOTH",
"153 0 LINE SMOOTH",
"168 0 OFFCURVE",
"194 0 OFFCURVE",
"194 30 CURVE SMOOTH",
"194 61 OFFCURVE",
"168 61 OFFCURVE",
"153 61 CURVE SMOOTH",
"143 61 LINE",
"143 432 LINE SMOOTH",
"143 519 OFFCURVE",
"208 561 OFFCURVE",
"261 561 CURVE SMOOTH",
"379 561 LINE",
"278 348 LINE SMOOTH",
"270 333 OFFCURVE",
"268 289 OFFCURVE",
"307 287 CURVE",
"392 287 OFFCURVE",
"422 224 OFFCURVE",
"422 179 CURVE SMOOTH",
"422 130 OFFCURVE",
"383 61 OFFCURVE",
"296 61 CURVE",
"296 85 OFFCURVE",
"296 87 OFFCURVE",
"289 97 CURVE",
"282 106 OFFCURVE",
"270 113 OFFCURVE",
"257 113 CURVE SMOOTH",
"236 113 OFFCURVE",
"216 98 OFFCURVE",
"216 71 CURVE SMOOTH",
"216 34 OFFCURVE",
"250 0 OFFCURVE",
"318 0 CURVE SMOOTH",
"431 0 OFFCURVE",
"491 99 OFFCURVE",
"491 177 CURVE SMOOTH",
"491 246 OFFCURVE",
"452 320 OFFCURVE",
"349 342 CURVE",
"457 562 LINE",
"466 583 OFFCURVE",
"476 616 OFFCURVE",
"437 622 CURVE",
"261 622 LINE SMOOTH"
);
}
);
width = 525;
}
);
unicode = 1E9E;
},
{
glyphname = T;
layers = (
{
layerId = master01;
paths = (
{
closed = 1;
nodes = (
"498 477 OFFCURVE",
"498 456 OFFCURVE",
"463 456 CURVE SMOOTH",
"429 456 OFFCURVE",
"429 478 OFFCURVE",
"429 497 CURVE SMOOTH",
"429 550 LINE",
"297 550 LINE",
"297 61 LINE",
"349 61 LINE SMOOTH",
"365 61 OFFCURVE",
"389 61 OFFCURVE",
"389 30 CURVE SMOOTH",
"389 0 OFFCURVE",
"364 0 OFFCURVE",
"349 0 CURVE SMOOTH",
"176 0 LINE SMOOTH",
"160 0 OFFCURVE",
"136 0 OFFCURVE",
"136 31 CURVE SMOOTH",
"136 61 OFFCURVE",
"161 61 OFFCURVE",
"176 61 CURVE SMOOTH",
"228 61 LINE",
"228 550 LINE",
"95 550 LINE",
"95 497 LINE SMOOTH",
"95 477 OFFCURVE",
"95 456 OFFCURVE",
"60 456 CURVE SMOOTH",
"26 456 OFFCURVE",
"26 478 OFFCURVE",
"26 497 CURVE SMOOTH",
"26 570 LINE SMOOTH",
"26 603 OFFCURVE",
"34 611 OFFCURVE",
"67 611 CURVE SMOOTH",
"458 611 LINE SMOOTH",
"492 611 OFFCURVE",
"498 601 OFFCURVE",
"498 570 CURVE SMOOTH",
"498 497 LINE SMOOTH"
);
}
);
width = 525;
}
);
unicode = 0054;
},
{
glyphname = Tcedilla;
layers = (
{
layerId = master01;
paths = (
{
closed = 1;
nodes = (
"498 477 OFFCURVE",
"498 456 OFFCURVE",
"463 456 CURVE SMOOTH",
"429 456 OFFCURVE",
"429 478 OFFCURVE",
"429 497 CURVE SMOOTH",
"429 550 LINE",
"297 550 LINE",
"297 61 LINE",
"349 61 LINE SMOOTH",
"365 61 OFFCURVE",
"389 61 OFFCURVE",
"389 30 CURVE SMOOTH",
"389 0 OFFCURVE",
"364 0 OFFCURVE",
"349 0 CURVE SMOOTH",
"296 0 LINE",
"297 -12 LINE",
"368 -26 OFFCURVE",
"396 -70 OFFCURVE",
"396 -109 CURVE SMOOTH",
"396 -211 OFFCURVE",
"256 -211 OFFCURVE",
"161 -211 CURVE SMOOTH",
"146 -211 OFFCURVE",
"130 -203 OFFCURVE",
"130 -180 CURVE SMOOTH",
"130 -149 OFFCURVE",
"152 -149 OFFCURVE",
"190 -149 CURVE SMOOTH",
"228 -149 OFFCURVE",
"327 -149 OFFCURVE",
"327 -109 CURVE SMOOTH",
"327 -89 OFFCURVE",
"304 -71 OFFCURVE",
"260 -69 CURVE SMOOTH",
"228 -67 OFFCURVE",
"228 -47 OFFCURVE",
"228 -27 CURVE SMOOTH",
"228 0 LINE",
"176 0 LINE SMOOTH",
"160 0 OFFCURVE",
"136 0 OFFCURVE",
"136 31 CURVE SMOOTH",
"136 61 OFFCURVE",
"161 61 OFFCURVE",
"176 61 CURVE SMOOTH",
"228 61 LINE",
"228 550 LINE",
"95 550 LINE",
"95 497 LINE SMOOTH",
"95 477 OFFCURVE",
"95 456 OFFCURVE",
"60 456 CURVE SMOOTH",
"26 456 OFFCURVE",
"26 478 OFFCURVE",
"26 497 CURVE SMOOTH",
"26 570 LINE SMOOTH",
"26 603 OFFCURVE",
"34 611 OFFCURVE",
"67 611 CURVE SMOOTH",
"458 611 LINE SMOOTH",
"492 611 OFFCURVE",
"498 601 OFFCURVE",
"498 570 CURVE SMOOTH",
"498 497 LINE SMOOTH"
);
}
);
width = 525;
}
);
unicode = 0162;
},
{
glyphname = U;
layers = (
{
layerId = master01;
paths = (
{
closed = 1;
nodes = (
"520 550 OFFCURVE",
"495 550 OFFCURVE",
"479 550 CURVE SMOOTH",
"449 550 LINE",
"449 204 LINE SMOOTH",
"449 81 OFFCURVE",
"362 -11 OFFCURVE",
"262 -11 CURVE SMOOTH",
"162 -11 OFFCURVE",
"75 81 OFFCURVE",
"75 204 CURVE SMOOTH",
"75 550 LINE",
"45 550 LINE SMOOTH",
"30 550 OFFCURVE",
"4 550 OFFCURVE",
"4 581 CURVE SMOOTH",
"4 611 OFFCURVE",
"30 611 OFFCURVE",
"45 611 CURVE SMOOTH",
"174 611 LINE SMOOTH",
"189 611 OFFCURVE",
"215 611 OFFCURVE",
"215 581 CURVE SMOOTH",
"215 550 OFFCURVE",
"189 550 OFFCURVE",
"174 550 CURVE SMOOTH",
"144 550 LINE",
"144 209 LINE SMOOTH",
"144 102 OFFCURVE",
"209 50 OFFCURVE",
"262 50 CURVE SMOOTH",
"314 50 OFFCURVE",
"380 102 OFFCURVE",
"380 209 CURVE SMOOTH",
"380 550 LINE",
"350 550 LINE SMOOTH",
"335 550 OFFCURVE",
"309 550 OFFCURVE",
"309 581 CURVE SMOOTH",
"309 611 OFFCURVE",
"335 611 OFFCURVE",
"350 611 CURVE SMOOTH",
"479 611 LINE SMOOTH",
"494 611 OFFCURVE",
"520 611 OFFCURVE",
"520 581 CURVE SMOOTH"
);
}
);
width = 525;
}
);
unicode = 0055;
},
{
glyphname = Uhorn;
layers = (
{
layerId = master01;
paths = (
{
closed = 1;
nodes = (
"525 597 OFFCURVE",
"492 559 OFFCURVE",
"449 546 CURVE",
"449 204 LINE SMOOTH",
"449 148 OFFCURVE",
"431 95 OFFCURVE",
"395 53 CURVE SMOOTH",
"361 14 OFFCURVE",
"313 -11 OFFCURVE",
"261 -11 CURVE SMOOTH",
"210 -11 OFFCURVE",
"161 14 OFFCURVE",
"127 53 CURVE SMOOTH",
"92 95 OFFCURVE",
"74 148 OFFCURVE",
"74 204 CURVE SMOOTH",
"74 550 LINE",
"32 550 LINE SMOOTH",
"16 550 OFFCURVE",
"4 562 OFFCURVE",
"4 578 CURVE SMOOTH",
"4 583 LINE SMOOTH",
"4 598 OFFCURVE",
"16 611 OFFCURVE",
"32 611 CURVE SMOOTH",
"186 611 LINE SMOOTH",
"202 611 OFFCURVE",
"214 598 OFFCURVE",
"214 583 CURVE SMOOTH",
"214 578 LINE SMOOTH",
"214 562 OFFCURVE",
"202 550 OFFCURVE",
"186 550 CURVE SMOOTH",
"144 550 LINE",
"144 204 LINE SMOOTH",
"144 162 OFFCURVE",
"156 123 OFFCURVE",
"180 93 CURVE SMOOTH",
"202 66 OFFCURVE",
"231 50 OFFCURVE",
"261 50 CURVE SMOOTH",
"292 50 OFFCURVE",
"321 66 OFFCURVE",
"343 93 CURVE SMOOTH",
"367 123 OFFCURVE",
"379 162 OFFCURVE",
"379 204 CURVE SMOOTH",
"379 550 LINE",
"337 550 LINE SMOOTH",
"321 550 OFFCURVE",
"309 562 OFFCURVE",
"309 578 CURVE SMOOTH",
"309 583 LINE SMOOTH",
"309 598 OFFCURVE",
"321 611 OFFCURVE",
"337 611 CURVE SMOOTH",
"421 611 LINE SMOOTH",
"426 611 OFFCURVE",
"432 609 OFFCURVE",
"436 606 CURVE",
"442 609 OFFCURVE",
"447 612 OFFCURVE",
"452 616 CURVE",
"435 625 OFFCURVE",
"425 642 OFFCURVE",
"425 661 CURVE SMOOTH",
"425 686 OFFCURVE",
"445 710 OFFCURVE",
"475 711 CURVE",
"513 710 OFFCURVE",
"525 674 OFFCURVE",
"525 644 CURVE SMOOTH"
);
}
);
width = 525;
}
);
unicode = 01AF;
},
{
glyphname = Uogonek;
layers = (
{
layerId = master01;
paths = (
{
closed = 1;
nodes = (
"520 550 OFFCURVE",
"495 550 OFFCURVE",
"479 550 CURVE SMOOTH",
"449 550 LINE",
"449 204 LINE SMOOTH",
"449 96 OFFCURVE",
"381 11 OFFCURVE",
"297 -7 CURVE",
"264 -30 OFFCURVE",
"244 -68 OFFCURVE",
"244 -110 CURVE SMOOTH",
"244 -134 OFFCURVE",
"270 -149 OFFCURVE",
"288 -149 CURVE SMOOTH",
"308 -149 OFFCURVE",
"331 -128 OFFCURVE",
"342 -112 CURVE",
"348 -106 OFFCURVE",
"370 -102 OFFCURVE",
"379 -107 CURVE",
"387 -114 OFFCURVE",
"391 -135 OFFCURVE",
"384 -144 CURVE SMOOTH",
"360 -177 OFFCURVE",
"322 -203 OFFCURVE",
"284 -203 CURVE SMOOTH",
"221 -203 OFFCURVE",
"185 -151 OFFCURVE",
"185 -108 CURVE SMOOTH",
"185 -71 OFFCURVE",
"208 -35 OFFCURVE",
"237 -9 CURVE",
"148 5 OFFCURVE",
"75 91 OFFCURVE",
"75 204 CURVE SMOOTH",
"75 550 LINE",
"45 550 LINE SMOOTH",
"30 550 OFFCURVE",
"4 550 OFFCURVE",
"4 581 CURVE SMOOTH",
"4 611 OFFCURVE",
"30 611 OFFCURVE",
"45 611 CURVE SMOOTH",
"174 611 LINE SMOOTH",
"189 611 OFFCURVE",
"215 611 OFFCURVE",
"215 581 CURVE SMOOTH",
"215 550 OFFCURVE",
"189 550 OFFCURVE",
"174 550 CURVE SMOOTH",
"144 550 LINE",
"144 209 LINE SMOOTH",
"144 102 OFFCURVE",
"209 50 OFFCURVE",
"262 50 CURVE SMOOTH",
"314 50 OFFCURVE",
"380 102 OFFCURVE",
"380 209 CURVE SMOOTH",
"380 550 LINE",
"350 550 LINE SMOOTH",
"335 550 OFFCURVE",
"309 550 OFFCURVE",
"309 581 CURVE SMOOTH",
"309 611 OFFCURVE",
"335 611 OFFCURVE",
"350 611 CURVE SMOOTH",
"479 611 LINE SMOOTH",
"494 611 OFFCURVE",
"520 611 OFFCURVE",
"520 581 CURVE SMOOTH"
);
}
);
width = 525;
}
);
unicode = 0172;
},
{
glyphname = V;
layers = (
{
layerId = master01;
paths = (
{
closed = 1;
nodes = (
"506 550 OFFCURVE",
"485 550 OFFCURVE",
"449 550 CURVE",
"317 29 LINE SMOOTH",
"308 -8 OFFCURVE",
"289 -8 OFFCURVE",
"262 -8 CURVE SMOOTH",
"233 -8 OFFCURVE",
"217 -8 OFFCURVE",
"207 30 CURVE SMOOTH",
"75 550 LINE",
"39 550 OFFCURVE",
"18 550 OFFCURVE",
"18 581 CURVE SMOOTH",
"18 611 OFFCURVE",
"44 611 OFFCURVE",
"59 611 CURVE SMOOTH",
"161 611 LINE SMOOTH",
"176 611 OFFCURVE",
"202 611 OFFCURVE",
"202 581 CURVE SMOOTH",
"202 550 OFFCURVE",
"181 550 OFFCURVE",
"146 550 CURVE",
"243 161 LINE SMOOTH",
"252 124 OFFCURVE",
"256 107 OFFCURVE",
"261 72 CURVE",
"262 72 LINE",
"269 115 OFFCURVE",
"288 191 OFFCURVE",
"301 244 CURVE SMOOTH",
"378 550 LINE",
"343 550 OFFCURVE",
"322 550 OFFCURVE",
"322 581 CURVE SMOOTH",
"322 611 OFFCURVE",
"348 611 OFFCURVE",
"363 611 CURVE SMOOTH",
"465 611 LINE SMOOTH",
"480 611 OFFCURVE",
"506 611 OFFCURVE",
"506 581 CURVE SMOOTH"
);
}
);
width = 525;
}
);
unicode = 0056;
},
{
glyphname = W;
layers = (
{
layerId = master01;
paths = (
{
closed = 1;
nodes = (
"513 550 OFFCURVE",
"486 550 OFFCURVE",
"475 550 CURVE",
"403 27 LINE SMOOTH",
"398 -8 OFFCURVE",
"374 -8 OFFCURVE",
"362 -8 CURVE SMOOTH",
"355 -8 OFFCURVE",
"329 -8 OFFCURVE",
"322 17 CURVE",
"321 19 OFFCURVE",
"267 248 OFFCURVE",
"263 293 CURVE",
"262 293 LINE",
"258 253 OFFCURVE",
"204 19 OFFCURVE",
"201 12 CURVE",
"191 -8 OFFCURVE",
"171 -8 OFFCURVE",
"162 -8 CURVE SMOOTH",
"150 -8 OFFCURVE",
"126 -8 OFFCURVE",
"121 27 CURVE SMOOTH",
"49 550 LINE",
"48 550 LINE SMOOTH",
"39 550 OFFCURVE",
"11 550 OFFCURVE",
"11 580 CURVE SMOOTH",
"11 611 OFFCURVE",
"37 611 OFFCURVE",
"52 611 CURVE SMOOTH",
"131 611 LINE SMOOTH",
"147 611 OFFCURVE",
"171 611 OFFCURVE",
"171 580 CURVE SMOOTH",
"171 550 OFFCURVE",
"146 550 OFFCURVE",
"131 550 CURVE SMOOTH",
"106 550 LINE",
"158 154 LINE SMOOTH",
"165 100 OFFCURVE",
"166 81 OFFCURVE",
"166 76 CURVE",
"167 76 LINE",
"172 138 OFFCURVE",
"219 338 OFFCURVE",
"222 345 CURVE SMOOTH",
"232 367 OFFCURVE",
"252 367 OFFCURVE",
"262 367 CURVE SMOOTH",
"271 367 OFFCURVE",
"294 367 OFFCURVE",
"303 344 CURVE",
"304 338 OFFCURVE",
"351 140 OFFCURVE",
"357 76 CURVE",
"358 76 LINE",
"359 104 OFFCURVE",
"366 156 OFFCURVE",
"374 217 CURVE SMOOTH",
"418 550 LINE",
"393 550 LINE SMOOTH",
"378 550 OFFCURVE",
"353 550 OFFCURVE",
"353 580 CURVE SMOOTH",
"353 611 OFFCURVE",
"377 611 OFFCURVE",
"393 611 CURVE SMOOTH",
"472 611 LINE SMOOTH",
"487 611 OFFCURVE",
"513 611 OFFCURVE",
"513 580 CURVE SMOOTH"
);
}
);
width = 525;
}
);
unicode = 0057;
},
{
glyphname = X;
layers = (
{
layerId = master01;
paths = (
{
closed = 1;
nodes = (
"496 0 OFFCURVE",
"470 0 OFFCURVE",
"455 0 CURVE SMOOTH",
"351 0 LINE SMOOTH",
"336 0 OFFCURVE",
"311 0 OFFCURVE",
"311 30 CURVE SMOOTH",
"311 61 OFFCURVE",
"333 61 OFFCURVE",
"356 61 CURVE",
"257 255 LINE",
"165 61 LINE",
"188 61 OFFCURVE",
"212 61 OFFCURVE",
"212 30 CURVE SMOOTH",
"212 0 OFFCURVE",
"186 0 OFFCURVE",
"171 0 CURVE SMOOTH",
"67 0 LINE SMOOTH",
"52 0 OFFCURVE",
"27 0 OFFCURVE",
"27 30 CURVE SMOOTH",
"27 61 OFFCURVE",
"51 61 OFFCURVE",
"67 61 CURVE SMOOTH",
"89 61 LINE",
"222 325 LINE",
"102 550 LINE",
"79 550 LINE SMOOTH",
"64 550 OFFCURVE",
"38 550 OFFCURVE",
"38 581 CURVE SMOOTH",
"38 611 OFFCURVE",
"64 611 OFFCURVE",
"79 611 CURVE SMOOTH",
"183 611 LINE SMOOTH",
"198 611 OFFCURVE",
"223 611 OFFCURVE",
"223 581 CURVE SMOOTH",
"223 550 OFFCURVE",
"200 550 OFFCURVE",
"180 550 CURVE",
"257 404 LINE",
"328 550 LINE",
"305 550 OFFCURVE",
"282 550 OFFCURVE",
"282 581 CURVE SMOOTH",
"282 611 OFFCURVE",
"307 611 OFFCURVE",
"322 611 CURVE SMOOTH",
"426 611 LINE SMOOTH",
"441 611 OFFCURVE",
"467 611 OFFCURVE",
"467 580 CURVE SMOOTH",
"467 550 OFFCURVE",
"441 550 OFFCURVE",
"426 550 CURVE SMOOTH",
"404 550 LINE",
"291 326 LINE",
"432 61 LINE",
"455 61 LINE SMOOTH",
"470 61 OFFCURVE",
"496 61 OFFCURVE",
"496 30 CURVE SMOOTH"
);
}
);
width = 525;
}
);
unicode = 0058;
},
{
glyphname = Y;
layers = (
{
layerId = master01;
paths = (
{
closed = 1;
nodes = (
"505 550 OFFCURVE",
"480 550 OFFCURVE",
"465 550 CURVE SMOOTH",
"444 550 LINE",
"297 244 LINE",
"297 61 LINE",
"322 61 LINE SMOOTH",
"338 61 OFFCURVE",
"362 61 OFFCURVE",
"362 30 CURVE SMOOTH",
"362 0 OFFCURVE",
"337 0 OFFCURVE",
"322 0 CURVE SMOOTH",
"203 0 LINE SMOOTH",
"187 0 OFFCURVE",
"163 0 OFFCURVE",
"163 31 CURVE SMOOTH",
"163 61 OFFCURVE",
"188 61 OFFCURVE",
"203 61 CURVE SMOOTH",
"228 61 LINE",
"228 244 LINE",
"80 550 LINE",
"59 550 LINE SMOOTH",
"43 550 OFFCURVE",
"19 550 OFFCURVE",
"19 581 CURVE SMOOTH",
"19 611 OFFCURVE",
"44 611 OFFCURVE",
"59 611 CURVE SMOOTH",
"163 611 LINE SMOOTH",
"178 611 OFFCURVE",
"203 611 OFFCURVE",
"203 581 CURVE SMOOTH",
"203 550 OFFCURVE",
"181 550 OFFCURVE",
"157 550 CURVE",
"167 529 OFFCURVE",
"248 365 OFFCURVE",
"262 314 CURVE",
"367 550 LINE",
"343 550 OFFCURVE",
"321 550 OFFCURVE",
"321 581 CURVE SMOOTH",
"321 611 OFFCURVE",
"346 611 OFFCURVE",
"361 611 CURVE SMOOTH",
"465 611 LINE SMOOTH",
"481 611 OFFCURVE",
"505 611 OFFCURVE",
"505 580 CURVE SMOOTH"
);
}
);
width = 525;
}
);
unicode = 0059;
},
{
glyphname = Z;
layers = (
{
layerId = master01;
paths = (
{
closed = 1;
nodes = (
"481 9 OFFCURVE",
"474 0 OFFCURVE",
"441 0 CURVE SMOOTH",
"89 0 LINE SMOOTH",
"70 0 OFFCURVE",
"48 0 OFFCURVE",
"48 34 CURVE SMOOTH",
"48 44 OFFCURVE",
"48 50 OFFCURVE",
"58 65 CURVE SMOOTH",
"387 550 LINE",
"129 550 LINE",
"129 497 LINE SMOOTH",
"129 477 OFFCURVE",
"129 456 OFFCURVE",
"94 456 CURVE SMOOTH",
"60 456 OFFCURVE",
"60 478 OFFCURVE",
"60 497 CURVE SMOOTH",
"60 570 LINE SMOOTH",
"60 603 OFFCURVE",
"68 611 OFFCURVE",
"101 611 CURVE SMOOTH",
"435 611 LINE SMOOTH",
"454 611 OFFCURVE",
"476 611 OFFCURVE",
"476 577 CURVE SMOOTH",
"476 567 OFFCURVE",
"476 561 OFFCURVE",
"466 546 CURVE SMOOTH",
"137 61 LINE",
"412 61 LINE",
"412 133 LINE SMOOTH",
"412 153 OFFCURVE",
"412 174 OFFCURVE",
"447 174 CURVE SMOOTH",
"481 174 OFFCURVE",
"481 152 OFFCURVE",
"481 133 CURVE SMOOTH",
"481 41 LINE SMOOTH"
);
}
);
width = 525;
}
);
unicode = 005A;
},
{
glyphname = a;
layers = (
{
layerId = master01;
paths = (
{
closed = 1;
nodes = (
"519 0 OFFCURVE",
"497 0 OFFCURVE",
"469 0 CURVE SMOOTH",
"431 0 OFFCURVE",
"383 1 OFFCURVE",
"361 32 CURVE",
"314 1 OFFCURVE",
"252 -6 OFFCURVE",
"215 -6 CURVE SMOOTH",
"113 -6 OFFCURVE",
"50 59 OFFCURVE",
"50 128 CURVE SMOOTH",
"50 224 OFFCURVE",
"173 274 OFFCURVE",
"350 277 CURVE",
"350 348 OFFCURVE",
"298 379 OFFCURVE",
"222 379 CURVE SMOOTH",
"213 379 OFFCURVE",
"200 379 OFFCURVE",
"186 378 CURVE SMOOTH",
"166 376 OFFCURVE",
"165 375 OFFCURVE",
"165 367 CURVE",
"164 330 OFFCURVE",
"136 321 OFFCURVE",
"121 321 CURVE SMOOTH",
"97 321 OFFCURVE",
"76 337 OFFCURVE",
"76 367 CURVE SMOOTH",
"76 440 OFFCURVE",
"178 440 OFFCURVE",
"221 440 CURVE SMOOTH",
"365 440 OFFCURVE",
"419 356 OFFCURVE",
"419 285 CURVE SMOOTH",
"419 69 LINE",
"427 66 OFFCURVE",
"437 61 OFFCURVE",
"479 61 CURVE SMOOTH",
"494 61 OFFCURVE",
"519 61 OFFCURVE",
"519 31 CURVE SMOOTH"
);
},
{
closed = 1;
nodes = (
"350 218 LINE",
"205 214 OFFCURVE",
"119 177 OFFCURVE",
"119 128 CURVE SMOOTH",
"119 89 OFFCURVE",
"160 55 OFFCURVE",
"222 55 CURVE SMOOTH",
"230 55 OFFCURVE",
"275 55 OFFCURVE",
"311 72 CURVE SMOOTH",
"350 90 OFFCURVE",
"350 111 OFFCURVE",
"350 134 CURVE SMOOTH"
);
}
);
width = 525;
}
);
unicode = 0061;
},
{
glyphname = aogonek;
layers = (
{
layerId = master01;
paths = (
{
closed = 1;
nodes = (
"519 0 OFFCURVE",
"497 0 OFFCURVE",
"469 0 CURVE",
"416 -31 OFFCURVE",
"377 -67 OFFCURVE",
"377 -110 CURVE SMOOTH",
"377 -134 OFFCURVE",
"403 -149 OFFCURVE",
"421 -149 CURVE SMOOTH",
"441 -149 OFFCURVE",
"464 -128 OFFCURVE",
"475 -112 CURVE",
"481 -106 OFFCURVE",
"503 -102 OFFCURVE",
"512 -107 CURVE",
"520 -114 OFFCURVE",
"524 -135 OFFCURVE",
"517 -144 CURVE SMOOTH",
"493 -177 OFFCURVE",
"455 -203 OFFCURVE",
"417 -203 CURVE SMOOTH",
"354 -203 OFFCURVE",
"318 -151 OFFCURVE",
"318 -108 CURVE SMOOTH",
"318 -61 OFFCURVE",
"355 -16 OFFCURVE",
"394 9 CURVE",
"381 13 OFFCURVE",
"369 21 OFFCURVE",
"361 32 CURVE",
"314 1 OFFCURVE",
"252 -6 OFFCURVE",
"215 -6 CURVE SMOOTH",
"113 -6 OFFCURVE",
"50 59 OFFCURVE",
"50 128 CURVE SMOOTH",
"50 224 OFFCURVE",
"173 274 OFFCURVE",
"350 277 CURVE",
"350 348 OFFCURVE",
"298 379 OFFCURVE",
"222 379 CURVE SMOOTH",
"213 379 OFFCURVE",
"200 379 OFFCURVE",
"186 378 CURVE SMOOTH",
"166 376 OFFCURVE",
"165 375 OFFCURVE",
"165 367 CURVE",
"164 330 OFFCURVE",
"136 321 OFFCURVE",
"121 321 CURVE SMOOTH",
"97 321 OFFCURVE",
"76 337 OFFCURVE",
"76 367 CURVE SMOOTH",
"76 440 OFFCURVE",
"178 440 OFFCURVE",
"221 440 CURVE SMOOTH",
"365 440 OFFCURVE",
"419 356 OFFCURVE",
"419 285 CURVE SMOOTH",
"419 69 LINE",
"427 66 OFFCURVE",
"437 61 OFFCURVE",
"479 61 CURVE SMOOTH",
"494 61 OFFCURVE",
"519 61 OFFCURVE",
"519 31 CURVE SMOOTH"
);
},
{
closed = 1;
nodes = (
"350 218 LINE",
"205 214 OFFCURVE",
"119 177 OFFCURVE",
"119 128 CURVE SMOOTH",
"119 89 OFFCURVE",
"160 55 OFFCURVE",
"222 55 CURVE SMOOTH",
"230 55 OFFCURVE",
"275 55 OFFCURVE",
"311 72 CURVE SMOOTH",
"350 90 OFFCURVE",
"350 111 OFFCURVE",
"350 134 CURVE SMOOTH"
);
}
);
width = 525;
}
);
unicode = 0105;
},
{
glyphname = ae;
layers = (
{
layerId = master01;
paths = (
{
closed = 1;
nodes = (
"504 89 OFFCURVE",
"474 -6 OFFCURVE",
"389 -6 CURVE SMOOTH",
"324 -6 OFFCURVE",
"283 53 OFFCURVE",
"276 63 CURVE",
"250 19 OFFCURVE",
"197 -6 OFFCURVE",
"147 -6 CURVE SMOOTH",
"75 -6 OFFCURVE",
"33 59 OFFCURVE",
"33 118 CURVE SMOOTH",
"33 201 OFFCURVE",
"122 247 OFFCURVE",
"234 248 CURVE",
"234 281 LINE SMOOTH",
"234 344 OFFCURVE",
"203 379 OFFCURVE",
"154 379 CURVE SMOOTH",
"142 379 OFFCURVE",
"128 379 OFFCURVE",
"128 375 CURVE SMOOTH",
"128 372 OFFCURVE",
"129 369 OFFCURVE",
"129 366 CURVE",
"126 324 OFFCURVE",
"93 321 OFFCURVE",
"85 321 CURVE SMOOTH",
"61 321 OFFCURVE",
"40 337 OFFCURVE",
"40 367 CURVE SMOOTH",
"40 400 OFFCURVE",
"65 440 OFFCURVE",
"157 440 CURVE SMOOTH",
"211 440 OFFCURVE",
"248 411 OFFCURVE",
"272 368 CURVE",
"302 420 OFFCURVE",
"344 440 OFFCURVE",
"379 440 CURVE SMOOTH",
"451 440 OFFCURVE",
"504 366 OFFCURVE",
"504 233 CURVE SMOOTH",
"504 202 OFFCURVE",
"500 191 OFFCURVE",
"464 191 CURVE SMOOTH",
"292 191 LINE",
"300 106 OFFCURVE",
"350 55 OFFCURVE",
"394 55 CURVE SMOOTH",
"416 55 OFFCURVE",
"438 73 OFFCURVE",
"448 112 CURVE",
"450 118 OFFCURVE",
"454 137 OFFCURVE",
"476 137 CURVE SMOOTH",
"492 137 OFFCURVE",
"504 124 OFFCURVE",
"504 109 CURVE SMOOTH"
);
},
{
closed = 1;
nodes = (
"442 347 OFFCURVE",
"409 379 OFFCURVE",
"379 379 CURVE SMOOTH",
"336 379 OFFCURVE",
"298 315 OFFCURVE",
"292 251 CURVE",
"447 251 LINE"
);
},
{
closed = 1;
nodes = (
"155 186 OFFCURVE",
"89 162 OFFCURVE",
"89 119 CURVE SMOOTH",
"89 89 OFFCURVE",
"112 55 OFFCURVE",
"153 55 CURVE SMOOTH",
"160 55 OFFCURVE",
"188 57 OFFCURVE",
"211 76 CURVE SMOOTH",
"233 94 OFFCURVE",
"233 115 OFFCURVE",
"233 134 CURVE SMOOTH",
"233 163 OFFCURVE",
"233 178 OFFCURVE",
"234 189 CURVE"
);
}
);
width = 525;
}
);
unicode = 00E6;
},
{
glyphname = b;
layers = (
{
layerId = master01;
paths = (
{
closed = 1;
nodes = (
"488 89 OFFCURVE",
"391 -6 OFFCURVE",
"282 -6 CURVE SMOOTH",
"250 -6 OFFCURVE",
"207 3 OFFCURVE",
"166 45 CURVE",
"166 20 OFFCURVE",
"166 0 OFFCURVE",
"132 0 CURVE SMOOTH",
"97 0 OFFCURVE",
"97 21 OFFCURVE",
"97 41 CURVE SMOOTH",
"97 550 LINE",
"52 550 LINE SMOOTH",
"38 550 OFFCURVE",
"12 550 OFFCURVE",
"12 580 CURVE SMOOTH",
"12 611 OFFCURVE",
"37 611 OFFCURVE",
"53 611 CURVE SMOOTH",
"126 611 LINE SMOOTH",
"160 611 OFFCURVE",
"166 601 OFFCURVE",
"166 570 CURVE SMOOTH",
"166 388 LINE",
"200 419 OFFCURVE",
"245 437 OFFCURVE",
"293 437 CURVE SMOOTH",
"399 437 OFFCURVE",
"488 339 OFFCURVE",
"488 216 CURVE SMOOTH"
);
},
{
closed = 1;
nodes = (
"419 303 OFFCURVE",
"361 376 OFFCURVE",
"287 376 CURVE SMOOTH",
"224 376 OFFCURVE",
"166 323 OFFCURVE",
"166 264 CURVE SMOOTH",
"166 191 LINE SMOOTH",
"166 143 OFFCURVE",
"201 55 OFFCURVE",
"279 55 CURVE SMOOTH",
"349 55 OFFCURVE",
"419 120 OFFCURVE",
"419 216 CURVE SMOOTH"
);
}
);
width = 525;
}
);
unicode = 0062;
},
{
glyphname = c;
layers = (
{
layerId = master01;
paths = (
{
closed = 1;
nodes = (
"466 92 OFFCURVE",
"432 -6 OFFCURVE",
"293 -6 CURVE SMOOTH",
"167 -6 OFFCURVE",
"73 96 OFFCURVE",
"73 216 CURVE SMOOTH",
"73 304 OFFCURVE",
"133 440 OFFCURVE",
"305 440 CURVE SMOOTH",
"350 440 OFFCURVE",
"454 440 OFFCURVE",
"454 367 CURVE SMOOTH",
"454 338 OFFCURVE",
"433 321 OFFCURVE",
"409 321 CURVE SMOOTH",
"385 321 OFFCURVE",
"366 335 OFFCURVE",
"365 370 CURVE SMOOTH",
"365 379 OFFCURVE",
"326 379 OFFCURVE",
"305 379 CURVE SMOOTH",
"170 379 OFFCURVE",
"142 264 OFFCURVE",
"142 216 CURVE SMOOTH",
"142 125 OFFCURVE",
"214 55 OFFCURVE",
"299 55 CURVE SMOOTH",
"373 55 OFFCURVE",
"392 102 OFFCURVE",
"398 115 CURVE",
"405 135 OFFCURVE",
"415 137 OFFCURVE",
"431 137 CURVE SMOOTH",
"437 137 OFFCURVE",
"466 137 OFFCURVE",
"466 109 CURVE SMOOTH"
);
}
);
width = 525;
}
);
unicode = 0063;
},
{
glyphname = ccedilla;
layers = (
{
layerId = master01;
paths = (
{
closed = 1;
nodes = (
"466 94 OFFCURVE",
"440 18 OFFCURVE",
"342 -1 CURVE",
"342 -9 LINE",
"413 -23 OFFCURVE",
"441 -67 OFFCURVE",
"441 -106 CURVE SMOOTH",
"441 -208 OFFCURVE",
"301 -208 OFFCURVE",
"206 -208 CURVE SMOOTH",
"191 -208 OFFCURVE",
"175 -200 OFFCURVE",
"175 -177 CURVE SMOOTH",
"175 -146 OFFCURVE",
"197 -146 OFFCURVE",
"235 -146 CURVE SMOOTH",
"273 -146 OFFCURVE",
"372 -146 OFFCURVE",
"372 -106 CURVE SMOOTH",
"372 -86 OFFCURVE",
"349 -68 OFFCURVE",
"305 -66 CURVE SMOOTH",
"273 -64 OFFCURVE",
"273 -44 OFFCURVE",
"273 -24 CURVE SMOOTH",
"273 -5 LINE",
"157 5 OFFCURVE",
"73 102 OFFCURVE",
"73 216 CURVE SMOOTH",
"73 304 OFFCURVE",
"133 440 OFFCURVE",
"305 440 CURVE SMOOTH",
"350 440 OFFCURVE",
"454 440 OFFCURVE",
"454 367 CURVE SMOOTH",
"454 338 OFFCURVE",
"433 321 OFFCURVE",
"409 321 CURVE SMOOTH",
"385 321 OFFCURVE",
"366 335 OFFCURVE",
"365 370 CURVE SMOOTH",
"365 379 OFFCURVE",
"326 379 OFFCURVE",
"305 379 CURVE SMOOTH",
"170 379 OFFCURVE",
"142 264 OFFCURVE",
"142 216 CURVE SMOOTH",
"142 125 OFFCURVE",
"214 55 OFFCURVE",
"299 55 CURVE SMOOTH",
"373 55 OFFCURVE",
"392 102 OFFCURVE",
"398 115 CURVE",
"405 135 OFFCURVE",
"415 137 OFFCURVE",
"431 137 CURVE SMOOTH",
"437 137 OFFCURVE",
"466 137 OFFCURVE",
"466 109 CURVE SMOOTH"
);
}
);
width = 525;
}
);
unicode = 00E7;
},
{
glyphname = d;
layers = (
{
layerId = master01;
paths = (
{
closed = 1;
nodes = (
"512 0 OFFCURVE",
"487 0 OFFCURVE",
"471 0 CURVE SMOOTH",
"398 0 LINE SMOOTH",
"358 0 OFFCURVE",
"358 14 OFFCURVE",
"358 50 CURVE",
"330 21 OFFCURVE",
"288 -6 OFFCURVE",
"232 -6 CURVE SMOOTH",
"126 -6 OFFCURVE",
"36 91 OFFCURVE",
"36 215 CURVE SMOOTH",
"36 342 OFFCURVE",
"132 437 OFFCURVE",
"241 437 CURVE SMOOTH",
"284 437 OFFCURVE",
"325 421 OFFCURVE",
"358 392 CURVE",
"358 550 LINE",
"313 550 LINE SMOOTH",
"299 550 OFFCURVE",
"273 550 OFFCURVE",
"273 580 CURVE SMOOTH",
"273 611 OFFCURVE",
"298 611 OFFCURVE",
"314 611 CURVE SMOOTH",
"387 611 LINE SMOOTH",
"421 611 OFFCURVE",
"427 601 OFFCURVE",
"427 570 CURVE SMOOTH",
"427 61 LINE",
"472 61 LINE SMOOTH",
"486 61 OFFCURVE",
"512 61 OFFCURVE",
"512 31 CURVE SMOOTH"
);
},
{
closed = 1;
nodes = (
"358 265 LINE SMOOTH",
"358 320 OFFCURVE",
"309 376 OFFCURVE",
"245 376 CURVE SMOOTH",
"175 376 OFFCURVE",
"105 311 OFFCURVE",
"105 215 CURVE SMOOTH",
"105 126 OFFCURVE",
"165 55 OFFCURVE",
"236 55 CURVE SMOOTH",
"313 55 OFFCURVE",
"358 138 OFFCURVE",
"358 194 CURVE SMOOTH"
);
}
);
width = 525;
}
);
unicode = 0064;
},
{
glyphname = eth;
layers = (
{
layerId = master01;
paths = (
{
closed = 1;
nodes = (
"467 196 OFFCURVE",
"467 130 OFFCURVE",
"414 67 CURVE SMOOTH",
"369 14 OFFCURVE",
"311 -6 OFFCURVE",
"262 -6 CURVE SMOOTH",
"151 -6 OFFCURVE",
"57 91 OFFCURVE",
"57 215 CURVE SMOOTH",
"57 341 OFFCURVE",
"151 439 OFFCURVE",
"262 439 CURVE SMOOTH",
"297 439 OFFCURVE",
"325 428 OFFCURVE",
"331 426 CURVE",
"311 453 OFFCURVE",
"282 478 OFFCURVE",
"264 491 CURVE",
"249 500 LINE",
"161 464 LINE SMOOTH",
"156 462 OFFCURVE",
"151 461 OFFCURVE",
"146 461 CURVE SMOOTH",
"128 461 OFFCURVE",
"114 474 OFFCURVE",
"114 490 CURVE SMOOTH",
"114 504 OFFCURVE",
"124 516 OFFCURVE",
"138 522 CURVE SMOOTH",
"173 536 LINE",
"159 540 OFFCURVE",
"145 544 OFFCURVE",
"131 546 CURVE SMOOTH",
"117 548 OFFCURVE",
"105 549 OFFCURVE",
"95 549 CURVE SMOOTH",
"64 550 OFFCURVE",
"64 577 OFFCURVE",
"64 577 CURVE",
"64 589 OFFCURVE",
"76 611 OFFCURVE",
"106 611 CURVE SMOOTH",
"160 611 OFFCURVE",
"213 597 OFFCURVE",
"261 572 CURVE",
"351 608 LINE SMOOTH",
"356 610 OFFCURVE",
"361 611 OFFCURVE",
"366 611 CURVE SMOOTH",
"384 611 OFFCURVE",
"398 599 OFFCURVE",
"398 583 CURVE SMOOTH",
"398 569 OFFCURVE",
"388 556 OFFCURVE",
"374 551 CURVE SMOOTH",
"323 530 LINE",
"467 413 OFFCURVE",
"467 276 OFFCURVE",
"467 231 CURVE SMOOTH"
);
},
{
closed = 1;
nodes = (
"398 299 OFFCURVE",
"341 378 OFFCURVE",
"263 378 CURVE SMOOTH",
"192 378 OFFCURVE",
"128 313 OFFCURVE",
"128 223 CURVE SMOOTH",
"128 129 OFFCURVE",
"190 55 OFFCURVE",
"263 55 CURVE SMOOTH",
"341 55 OFFCURVE",
"398 137 OFFCURVE",
"398 219 CURVE SMOOTH"
);
}
);
width = 525;
}
);
unicode = 00F0;
},
{
glyphname = dcroat;
layers = (
{
layerId = master01;
paths = (
{
closed = 1;
nodes = (
"512 0 OFFCURVE",
"487 0 OFFCURVE",
"471 0 CURVE SMOOTH",
"398 0 LINE SMOOTH",
"358 0 OFFCURVE",
"358 14 OFFCURVE",
"358 50 CURVE",
"330 21 OFFCURVE",
"288 -6 OFFCURVE",
"232 -6 CURVE SMOOTH",
"126 -6 OFFCURVE",
"36 91 OFFCURVE",
"36 215 CURVE SMOOTH",
"36 342 OFFCURVE",
"132 437 OFFCURVE",
"241 437 CURVE SMOOTH",
"284 437 OFFCURVE",
"325 421 OFFCURVE",
"358 392 CURVE",
"358 459 LINE",
"210 459 LINE SMOOTH",
"193 459 OFFCURVE",
"179 473 OFFCURVE",
"179 490 CURVE SMOOTH",
"179 507 OFFCURVE",
"193 521 OFFCURVE",
"210 521 CURVE SMOOTH",
"358 521 LINE",
"358 550 LINE",
"313 550 LINE SMOOTH",
"299 550 OFFCURVE",
"273 550 OFFCURVE",
"273 580 CURVE SMOOTH",
"273 611 OFFCURVE",
"298 611 OFFCURVE",
"314 611 CURVE SMOOTH",
"387 611 LINE SMOOTH",
"421 611 OFFCURVE",
"427 601 OFFCURVE",
"427 570 CURVE SMOOTH",
"427 521 LINE",
"477 521 LINE SMOOTH",
"494 521 OFFCURVE",
"508 507 OFFCURVE",
"508 490 CURVE SMOOTH",
"508 473 OFFCURVE",
"494 459 OFFCURVE",
"477 459 CURVE SMOOTH",
"427 459 LINE",
"427 61 LINE",
"472 61 LINE SMOOTH",
"486 61 OFFCURVE",
"512 61 OFFCURVE",
"512 31 CURVE SMOOTH"
);
},
{
closed = 1;
nodes = (
"358 265 LINE SMOOTH",
"358 320 OFFCURVE",
"309 376 OFFCURVE",
"245 376 CURVE SMOOTH",
"175 376 OFFCURVE",
"105 311 OFFCURVE",
"105 215 CURVE SMOOTH",
"105 126 OFFCURVE",
"165 55 OFFCURVE",
"236 55 CURVE SMOOTH",
"313 55 OFFCURVE",
"358 138 OFFCURVE",
"358 194 CURVE SMOOTH"
);
}
);
width = 525;
}
);
unicode = 0111;
},
{
glyphname = e;
layers = (
{
layerId = master01;
paths = (
{
closed = 1;
nodes = (
"464 84 OFFCURVE",
"417 -6 OFFCURVE",
"285 -6 CURVE SMOOTH",
"156 -6 OFFCURVE",
"55 95 OFFCURVE",
"55 217 CURVE SMOOTH",
"55 340 OFFCURVE",
"151 440 OFFCURVE",
"270 440 CURVE SMOOTH",
"400 440 OFFCURVE",
"464 342 OFFCURVE",
"464 228 CURVE SMOOTH",
"464 191 OFFCURVE",
"445 191 OFFCURVE",
"424 191 CURVE SMOOTH",
"126 191 LINE",
"142 105 OFFCURVE",
"217 55 OFFCURVE",
"292 55 CURVE SMOOTH",
"320 55 OFFCURVE",
"374 64 OFFCURVE",
"396 115 CURVE",
"403 134 OFFCURVE",
"411 137 OFFCURVE",
"429 137 CURVE SMOOTH",
"435 137 OFFCURVE",
"464 137 OFFCURVE",
"464 109 CURVE SMOOTH"
);
},
{
closed = 1;
nodes = (
"384 354 OFFCURVE",
"322 379 OFFCURVE",
"270 379 CURVE SMOOTH",
"200 379 OFFCURVE",
"141 324 OFFCURVE",
"127 251 CURVE",
"393 251 LINE"
);
}
);
width = 525;
}
);
unicode = 0065;
},
{
glyphname = eogonek;
layers = (
{
layerId = master01;
paths = (
{
closed = 1;
nodes = (
"464 89 OFFCURVE",
"434 28 OFFCURVE",
"353 4 CURVE",
"300 -27 OFFCURVE",
"266 -67 OFFCURVE",
"266 -110 CURVE SMOOTH",
"266 -134 OFFCURVE",
"292 -149 OFFCURVE",
"310 -149 CURVE SMOOTH",
"330 -149 OFFCURVE",
"353 -128 OFFCURVE",
"364 -112 CURVE",
"370 -106 OFFCURVE",
"392 -102 OFFCURVE",
"401 -107 CURVE",
"409 -114 OFFCURVE",
"413 -135 OFFCURVE",
"406 -144 CURVE SMOOTH",
"382 -177 OFFCURVE",
"344 -203 OFFCURVE",
"306 -203 CURVE SMOOTH",
"243 -203 OFFCURVE",
"207 -151 OFFCURVE",
"207 -108 CURVE SMOOTH",
"207 -61 OFFCURVE",
"225 -30 OFFCURVE",
"264 -5 CURVE",
"145 5 OFFCURVE",
"55 102 OFFCURVE",
"55 217 CURVE SMOOTH",
"55 340 OFFCURVE",
"151 440 OFFCURVE",
"270 440 CURVE SMOOTH",
"400 440 OFFCURVE",
"464 342 OFFCURVE",
"464 228 CURVE SMOOTH",
"464 191 OFFCURVE",
"445 191 OFFCURVE",
"424 191 CURVE SMOOTH",
"126 191 LINE",
"142 105 OFFCURVE",
"217 55 OFFCURVE",
"292 55 CURVE SMOOTH",
"320 55 OFFCURVE",
"374 64 OFFCURVE",
"396 115 CURVE",
"403 134 OFFCURVE",
"411 137 OFFCURVE",
"429 137 CURVE SMOOTH",
"435 137 OFFCURVE",
"464 137 OFFCURVE",
"464 109 CURVE SMOOTH"
);
},
{
closed = 1;
nodes = (
"384 354 OFFCURVE",
"322 379 OFFCURVE",
"270 379 CURVE SMOOTH",
"200 379 OFFCURVE",
"141 324 OFFCURVE",
"127 251 CURVE",
"393 251 LINE"
);
}
);
width = 525;
}
);
unicode = 0119;
},
{
glyphname = ereversed;
layers = (
{
layerId = master01;
paths = (
{
closed = 1;
nodes = (
"464 95 OFFCURVE",
"363 -6 OFFCURVE",
"234 -6 CURVE SMOOTH",
"102 -6 OFFCURVE",
"55 84 OFFCURVE",
"55 109 CURVE SMOOTH",
"55 137 OFFCURVE",
"84 137 OFFCURVE",
"90 137 CURVE SMOOTH",
"108 137 OFFCURVE",
"116 134 OFFCURVE",
"123 115 CURVE",
"145 64 OFFCURVE",
"199 55 OFFCURVE",
"227 55 CURVE SMOOTH",
"302 55 OFFCURVE",
"377 105 OFFCURVE",
"393 191 CURVE",
"95 191 LINE SMOOTH",
"74 191 OFFCURVE",
"55 191 OFFCURVE",
"55 228 CURVE SMOOTH",
"55 342 OFFCURVE",
"119 440 OFFCURVE",
"249 440 CURVE SMOOTH",
"368 440 OFFCURVE",
"464 340 OFFCURVE",
"464 217 CURVE SMOOTH"
);
},
{
closed = 1;
nodes = (
"378 324 OFFCURVE",
"319 379 OFFCURVE",
"249 379 CURVE SMOOTH",
"197 379 OFFCURVE",
"135 354 OFFCURVE",
"126 251 CURVE",
"392 251 LINE"
);
}
);
width = 525;
}
);
unicode = 0258;
},
{
glyphname = eturned;
layers = (
{
layerId = master01;
paths = (
{
closed = 1;
nodes = (
"464 94 OFFCURVE",
"368 -6 OFFCURVE",
"249 -6 CURVE SMOOTH",
"119 -6 OFFCURVE",
"55 92 OFFCURVE",
"55 206 CURVE SMOOTH",
"55 243 OFFCURVE",
"74 243 OFFCURVE",
"95 243 CURVE SMOOTH",
"393 243 LINE",
"377 329 OFFCURVE",
"302 379 OFFCURVE",
"227 379 CURVE SMOOTH",
"199 379 OFFCURVE",
"145 370 OFFCURVE",
"123 319 CURVE",
"116 300 OFFCURVE",
"108 297 OFFCURVE",
"90 297 CURVE SMOOTH",
"84 297 OFFCURVE",
"55 297 OFFCURVE",
"55 325 CURVE SMOOTH",
"55 350 OFFCURVE",
"102 440 OFFCURVE",
"234 440 CURVE SMOOTH",
"363 440 OFFCURVE",
"464 339 OFFCURVE",
"464 217 CURVE SMOOTH"
);
},
{
closed = 1;
nodes = (
"126 183 LINE",
"135 80 OFFCURVE",
"197 55 OFFCURVE",
"249 55 CURVE SMOOTH",
"319 55 OFFCURVE",
"378 110 OFFCURVE",
"392 183 CURVE"
);
}
);
width = 525;
}
);
unicode = 01DD;
},
{
glyphname = f;
layers = (
{
layerId = master01;
paths = (
{
closed = 1;
nodes = (
"437 529 OFFCURVE",
"414 513 OFFCURVE",
"394 513 CURVE SMOOTH",
"359 513 OFFCURVE",
"350 552 OFFCURVE",
"350 556 CURVE",
"320 556 OFFCURVE",
"253 556 OFFCURVE",
"253 478 CURVE SMOOTH",
"253 431 LINE",
"375 431 LINE SMOOTH",
"391 431 OFFCURVE",
"415 431 OFFCURVE",
"415 400 CURVE SMOOTH",
"415 370 OFFCURVE",
"390 370 OFFCURVE",
"375 370 CURVE SMOOTH",
"253 370 LINE",
"253 61 LINE",
"354 61 LINE SMOOTH",
"369 61 OFFCURVE",
"395 61 OFFCURVE",
"395 30 CURVE SMOOTH",
"395 0 OFFCURVE",
"369 0 OFFCURVE",
"354 0 CURVE SMOOTH",
"83 0 LINE SMOOTH",
"68 0 OFFCURVE",
"42 0 OFFCURVE",
"42 31 CURVE SMOOTH",
"42 61 OFFCURVE",
"68 61 OFFCURVE",
"83 61 CURVE SMOOTH",
"184 61 LINE",
"184 370 LINE",
"83 370 LINE SMOOTH",
"68 370 OFFCURVE",
"43 370 OFFCURVE",
"43 400 CURVE SMOOTH",
"43 431 OFFCURVE",
"68 431 OFFCURVE",
"84 431 CURVE SMOOTH",
"184 431 LINE",
"184 484 LINE SMOOTH",
"184 571 OFFCURVE",
"261 617 OFFCURVE",
"341 617 CURVE SMOOTH",
"357 617 OFFCURVE",
"437 617 OFFCURVE",
"437 557 CURVE SMOOTH"
);
}
);
width = 525;
}
);
unicode = 0066;
},
{
glyphname = g;
layers = (
{
layerId = master01;
paths = (
{
closed = 1;
nodes = (
"509 359 OFFCURVE",
"486 347 OFFCURVE",
"469 347 CURVE SMOOTH",
"459 347 OFFCURVE",
"436 354 OFFCURVE",
"430 381 CURVE",
"417 380 OFFCURVE",
"393 376 OFFCURVE",
"372 364 CURVE",
"389 336 OFFCURVE",
"398 307 OFFCURVE",
"398 277 CURVE SMOOTH",
"398 188 OFFCURVE",
"325 116 OFFCURVE",
"233 116 CURVE SMOOTH",
"184 116 OFFCURVE",
"146 139 OFFCURVE",
"143 141 CURVE",
"139 131 OFFCURVE",
"137 117 OFFCURVE",
"137 113 CURVE",
"137 113 OFFCURVE",
"138 91 OFFCURVE",
"149 77 CURVE SMOOTH",
"161 63 OFFCURVE",
"167 63 OFFCURVE",
"182 63 CURVE",
"190 61 OFFCURVE",
"203 61 OFFCURVE",
"211 61 CURVE SMOOTH",
"281 61 LINE SMOOTH",
"371 61 OFFCURVE",
"413 39 OFFCURVE",
"426 32 CURVE SMOOTH",
"477 5 OFFCURVE",
"495 -45 OFFCURVE",
"495 -82 CURVE SMOOTH",
"495 -167 OFFCURVE",
"390 -229 OFFCURVE",
"262 -229 CURVE SMOOTH",
"134 -229 OFFCURVE",
"29 -168 OFFCURVE",
"29 -82 CURVE SMOOTH",
"29 -71 OFFCURVE",
"29 -3 OFFCURVE",
"103 42 CURVE",
"94 54 OFFCURVE",
"80 79 OFFCURVE",
"80 114 CURVE SMOOTH",
"80 144 OFFCURVE",
"89 166 OFFCURVE",
"100 182 CURVE",
"85 201 OFFCURVE",
"68 234 OFFCURVE",
"68 277 CURVE SMOOTH",
"68 362 OFFCURVE",
"139 437 OFFCURVE",
"233 437 CURVE SMOOTH",
"279 437 OFFCURVE",
"314 418 OFFCURVE",
"330 407 CURVE",
"376 441 OFFCURVE",
"425 442 OFFCURVE",
"436 442 CURVE SMOOTH",
"490 442 OFFCURVE",
"509 411 OFFCURVE",
"509 388 CURVE SMOOTH"
);
},
{
closed = 1;
nodes = (
"329 330 OFFCURVE",
"287 377 OFFCURVE",
"233 377 CURVE SMOOTH",
"181 377 OFFCURVE",
"137 333 OFFCURVE",
"137 276 CURVE SMOOTH",
"137 223 OFFCURVE",
"179 176 OFFCURVE",
"233 176 CURVE SMOOTH",
"285 176 OFFCURVE",
"329 220 OFFCURVE",
"329 277 CURVE SMOOTH"
);
},
{
closed = 1;
nodes = (
"437 4 OFFCURVE",
"324 4 OFFCURVE",
"235 4 CURVE SMOOTH",
"162 4 OFFCURVE",
"153 4 OFFCURVE",
"128 -12 CURVE SMOOTH",
"96 -32 OFFCURVE",
"87 -64 OFFCURVE",
"87 -82 CURVE SMOOTH",
"87 -126 OFFCURVE",
"162 -169 OFFCURVE",
"262 -169 CURVE SMOOTH",
"362 -169 OFFCURVE",
"437 -126 OFFCURVE",
"437 -82 CURVE SMOOTH"
);
}
);
width = 525;
}
);
unicode = 0067;
},
{
glyphname = gcommaaccent;
layers = (
{
components = (
{
name = g;
}
);
layerId = master01;
paths = (
{
closed = 1;
nodes = (
"289 626 OFFCURVE",
"275 622 OFFCURVE",
"268 620 CURVE SMOOTH",
"259 617 OFFCURVE",
"223 605 OFFCURVE",
"212 558 CURVE",
"217 560 OFFCURVE",
"223 561 OFFCURVE",
"227 561 CURVE SMOOTH",
"252 561 OFFCURVE",
"274 542 OFFCURVE",
"274 513 CURVE SMOOTH",
"274 489 OFFCURVE",
"256 467 OFFCURVE",
"226 467 CURVE SMOOTH",
"193 467 OFFCURVE",
"164 496 OFFCURVE",
"164 542 CURVE SMOOTH",
"164 624 OFFCURVE",
"241 665 OFFCURVE",
"265 665 CURVE SMOOTH",
"277 665 OFFCURVE",
"289 652 OFFCURVE",
"289 641 CURVE SMOOTH"
);
}
);
width = 525;
}
);
unicode = 0123;
},
{
glyphname = h;
layers = (
{
layerId = master01;
paths = (
{
closed = 1;
nodes = (
"512 0 OFFCURVE",
"486 0 OFFCURVE",
"472 0 CURVE SMOOTH",
"319 0 LINE SMOOTH",
"305 0 OFFCURVE",
"278 0 OFFCURVE",
"278 30 CURVE SMOOTH",
"278 61 OFFCURVE",
"303 61 OFFCURVE",
"319 61 CURVE SMOOTH",
"358 61 LINE",
"358 288 LINE SMOOTH",
"358 348 OFFCURVE",
"344 376 OFFCURVE",
"291 376 CURVE SMOOTH",
"240 376 OFFCURVE",
"166 338 OFFCURVE",
"166 238 CURVE SMOOTH",
"166 61 LINE",
"210 61 LINE SMOOTH",
"226 61 OFFCURVE",
"251 61 OFFCURVE",
"251 30 CURVE SMOOTH",
"251 0 OFFCURVE",
"225 0 OFFCURVE",
"211 0 CURVE SMOOTH",
"52 0 LINE SMOOTH",
"38 0 OFFCURVE",
"12 0 OFFCURVE",
"12 30 CURVE SMOOTH",
"12 61 OFFCURVE",
"37 61 OFFCURVE",
"53 61 CURVE SMOOTH",
"97 61 LINE",
"97 550 LINE",
"52 550 LINE SMOOTH",
"38 550 OFFCURVE",
"12 550 OFFCURVE",
"12 580 CURVE SMOOTH",
"12 611 OFFCURVE",
"37 611 OFFCURVE",
"53 611 CURVE SMOOTH",
"126 611 LINE SMOOTH",
"160 611 OFFCURVE",
"166 601 OFFCURVE",
"166 570 CURVE SMOOTH",
"166 384 LINE",
"185 403 OFFCURVE",
"230 437 OFFCURVE",
"297 437 CURVE SMOOTH",
"376 437 OFFCURVE",
"427 394 OFFCURVE",
"427 293 CURVE SMOOTH",
"427 61 LINE",
"471 61 LINE SMOOTH",
"487 61 OFFCURVE",
"512 61 OFFCURVE",
"512 30 CURVE SMOOTH"
);
}
);
width = 525;
}
);
unicode = 0068;
},
{
glyphname = hbar;
layers = (
{
layerId = master01;
paths = (
{
closed = 1;
nodes = (
"512 0 OFFCURVE",
"486 0 OFFCURVE",
"472 0 CURVE SMOOTH",
"319 0 LINE SMOOTH",
"305 0 OFFCURVE",
"278 0 OFFCURVE",
"278 30 CURVE SMOOTH",
"278 61 OFFCURVE",
"303 61 OFFCURVE",
"319 61 CURVE SMOOTH",
"358 61 LINE",
"358 288 LINE SMOOTH",
"358 348 OFFCURVE",
"344 376 OFFCURVE",
"291 376 CURVE SMOOTH",
"240 376 OFFCURVE",
"166 338 OFFCURVE",
"166 238 CURVE SMOOTH",
"166 61 LINE",
"210 61 LINE SMOOTH",
"226 61 OFFCURVE",
"251 61 OFFCURVE",
"251 30 CURVE SMOOTH",
"251 0 OFFCURVE",
"225 0 OFFCURVE",
"211 0 CURVE SMOOTH",
"52 0 LINE SMOOTH",
"38 0 OFFCURVE",
"12 0 OFFCURVE",
"12 30 CURVE SMOOTH",
"12 61 OFFCURVE",
"37 61 OFFCURVE",
"53 61 CURVE SMOOTH",
"97 61 LINE",
"97 459 LINE",
"47 459 LINE SMOOTH",
"30 459 OFFCURVE",
"16 473 OFFCURVE",
"16 490 CURVE SMOOTH",
"16 507 OFFCURVE",
"30 521 OFFCURVE",
"47 521 CURVE SMOOTH",
"97 521 LINE",
"97 550 LINE",
"52 550 LINE SMOOTH",
"38 550 OFFCURVE",
"12 550 OFFCURVE",
"12 580 CURVE SMOOTH",
"12 611 OFFCURVE",
"37 611 OFFCURVE",
"53 611 CURVE SMOOTH",
"126 611 LINE SMOOTH",
"160 611 OFFCURVE",
"166 601 OFFCURVE",
"166 570 CURVE SMOOTH",
"166 521 LINE",
"263 521 LINE SMOOTH",
"280 521 OFFCURVE",
"294 507 OFFCURVE",
"294 490 CURVE SMOOTH",
"294 473 OFFCURVE",
"280 459 OFFCURVE",
"263 459 CURVE SMOOTH",
"166 459 LINE",
"166 384 LINE",
"185 403 OFFCURVE",
"230 437 OFFCURVE",
"297 437 CURVE SMOOTH",
"376 437 OFFCURVE",
"427 394 OFFCURVE",
"427 293 CURVE SMOOTH",
"427 61 LINE",
"471 61 LINE SMOOTH",
"487 61 OFFCURVE",
"512 61 OFFCURVE",
"512 30 CURVE SMOOTH"
);
}
);
width = 525;
}
);
unicode = 0127;
},
{
glyphname = dotlessi;
layers = (
{
layerId = master01;
paths = (
{
closed = 1;
nodes = (
"455 0 OFFCURVE",
"429 0 OFFCURVE",
"414 0 CURVE SMOOTH",
"119 0 LINE SMOOTH",
"104 0 OFFCURVE",
"78 0 OFFCURVE",
"78 30 CURVE SMOOTH",
"78 61 OFFCURVE",
"103 61 OFFCURVE",
"119 61 CURVE SMOOTH",
"240 61 LINE",
"240 370 LINE",
"127 370 LINE SMOOTH",
"112 370 OFFCURVE",
"86 370 OFFCURVE",
"86 401 CURVE SMOOTH",
"86 431 OFFCURVE",
"112 431 OFFCURVE",
"127 431 CURVE SMOOTH",
"269 431 LINE SMOOTH",
"303 431 OFFCURVE",
"309 421 OFFCURVE",
"309 390 CURVE SMOOTH",
"309 61 LINE",
"414 61 LINE SMOOTH",
"429 61 OFFCURVE",
"455 61 OFFCURVE",
"455 30 CURVE SMOOTH"
);
}
);
width = 525;
}
);
unicode = 0131;
},
{
glyphname = iogonek;
layers = (
{
components = (
{
name = dotaccent;
transform = "{1, 0, 0, 1, -4, 7}";
}
);
layerId = master01;
paths = (
{
closed = 1;
nodes = (
"455 0 OFFCURVE",
"429 0 OFFCURVE",
"414 0 CURVE SMOOTH",
"285 0 LINE",
"246 -22 OFFCURVE",
"220 -63 OFFCURVE",
"220 -110 CURVE SMOOTH",
"220 -134 OFFCURVE",
"246 -149 OFFCURVE",
"264 -149 CURVE SMOOTH",
"284 -149 OFFCURVE",
"307 -128 OFFCURVE",
"318 -112 CURVE",
"324 -106 OFFCURVE",
"346 -102 OFFCURVE",
"355 -107 CURVE",
"363 -114 OFFCURVE",
"367 -135 OFFCURVE",
"360 -144 CURVE SMOOTH",
"336 -177 OFFCURVE",
"298 -203 OFFCURVE",
"260 -203 CURVE SMOOTH",
"197 -203 OFFCURVE",
"161 -151 OFFCURVE",
"161 -108 CURVE SMOOTH",
"161 -66 OFFCURVE",
"190 -26 OFFCURVE",
"224 0 CURVE",
"119 0 LINE SMOOTH",
"104 0 OFFCURVE",
"78 0 OFFCURVE",
"78 30 CURVE SMOOTH",
"78 61 OFFCURVE",
"103 61 OFFCURVE",
"119 61 CURVE SMOOTH",
"240 61 LINE",
"240 370 LINE",
"127 370 LINE SMOOTH",
"112 370 OFFCURVE",
"86 370 OFFCURVE",
"86 401 CURVE SMOOTH",
"86 431 OFFCURVE",
"112 431 OFFCURVE",
"127 431 CURVE SMOOTH",
"269 431 LINE SMOOTH",
"303 431 OFFCURVE",
"309 421 OFFCURVE",
"309 390 CURVE SMOOTH",
"309 61 LINE",
"414 61 LINE SMOOTH",
"429 61 OFFCURVE",
"455 61 OFFCURVE",
"455 30 CURVE SMOOTH"
);
}
);
width = 525;
}
);
unicode = 012F;
},
{
glyphname = jdotless;
layers = (
{
layerId = master01;
paths = (
{
closed = 1;
nodes = (
"368 -108 OFFCURVE",
"332 -228 OFFCURVE",
"187 -228 CURVE SMOOTH",
"146 -228 OFFCURVE",
"48 -228 OFFCURVE",
"48 -152 CURVE SMOOTH",
"48 -123 OFFCURVE",
"70 -106 OFFCURVE",
"93 -106 CURVE SMOOTH",
"114 -106 OFFCURVE",
"137 -123 OFFCURVE",
"137 -151 CURVE SMOOTH",
"137 -158 OFFCURVE",
"137 -160 OFFCURVE",
"136 -163 CURVE",
"151 -165 OFFCURVE",
"163 -167 OFFCURVE",
"192 -167 CURVE SMOOTH",
"215 -167 OFFCURVE",
"246 -167 OFFCURVE",
"273 -129 CURVE SMOOTH",
"299 -94 OFFCURVE",
"299 -56 OFFCURVE",
"299 -39 CURVE SMOOTH",
"299 370 LINE",
"169 370 LINE SMOOTH",
"154 370 OFFCURVE",
"129 370 OFFCURVE",
"129 400 CURVE SMOOTH",
"129 431 OFFCURVE",
"154 431 OFFCURVE",
"170 431 CURVE SMOOTH",
"328 431 LINE SMOOTH",
"362 431 OFFCURVE",
"368 421 OFFCURVE",
"368 390 CURVE SMOOTH",
"368 -44 LINE SMOOTH"
);
}
);
width = 525;
}
);
unicode = 0237;
},
{
glyphname = k;
layers = (
{
layerId = master01;
paths = (
{
closed = 1;
nodes = (
"508 0 OFFCURVE",
"482 0 OFFCURVE",
"467 0 CURVE SMOOTH",
"349 0 LINE SMOOTH",
"334 0 OFFCURVE",
"309 0 OFFCURVE",
"309 30 CURVE SMOOTH",
"309 61 OFFCURVE",
"329 61 OFFCURVE",
"365 61 CURVE",
"246 216 LINE",
"166 142 LINE",
"166 61 LINE",
"215 61 LINE SMOOTH",
"231 61 OFFCURVE",
"255 61 OFFCURVE",
"255 30 CURVE SMOOTH",
"255 0 OFFCURVE",
"230 0 OFFCURVE",
"215 0 CURVE SMOOTH",
"61 0 LINE SMOOTH",
"45 0 OFFCURVE",
"21 0 OFFCURVE",
"21 31 CURVE SMOOTH",
"21 61 OFFCURVE",
"46 61 OFFCURVE",
"61 61 CURVE SMOOTH",
"110 61 LINE",
"110 550 LINE",
"61 550 LINE SMOOTH",
"45 550 OFFCURVE",
"21 550 OFFCURVE",
"21 581 CURVE SMOOTH",
"21 611 OFFCURVE",
"46 611 OFFCURVE",
"61 611 CURVE SMOOTH",
"126 611 LINE SMOOTH",
"160 611 OFFCURVE",
"166 601 OFFCURVE",
"166 570 CURVE SMOOTH",
"166 218 LINE",
"328 370 LINE",
"291 370 LINE SMOOTH",
"276 370 OFFCURVE",
"251 370 OFFCURVE",
"251 400 CURVE SMOOTH",
"251 431 OFFCURVE",
"275 431 OFFCURVE",
"291 431 CURVE SMOOTH",
"445 431 LINE SMOOTH",
"460 431 OFFCURVE",
"486 431 OFFCURVE",
"486 400 CURVE SMOOTH",
"486 370 OFFCURVE",
"460 370 OFFCURVE",
"445 370 CURVE SMOOTH",
"410 370 LINE",
"287 255 LINE",
"436 61 LINE",
"467 61 LINE SMOOTH",
"482 61 OFFCURVE",
"508 61 OFFCURVE",
"508 30 CURVE SMOOTH"
);
}
);
width = 525;
}
);
unicode = 006B;
},
{
glyphname = l;
layers = (
{
layerId = master01;
paths = (
{
closed = 1;
nodes = (
"467 0 OFFCURVE",
"442 0 OFFCURVE",
"427 0 CURVE SMOOTH",
"98 0 LINE SMOOTH",
"84 0 OFFCURVE",
"58 0 OFFCURVE",
"58 30 CURVE SMOOTH",
"58 61 OFFCURVE",
"83 61 OFFCURVE",
"99 61 CURVE SMOOTH",
"228 61 LINE",
"228 550 LINE",
"98 550 LINE SMOOTH",
"84 550 OFFCURVE",
"58 550 OFFCURVE",
"58 580 CURVE SMOOTH",
"58 611 OFFCURVE",
"83 611 OFFCURVE",
"99 611 CURVE SMOOTH",
"257 611 LINE SMOOTH",
"291 611 OFFCURVE",
"297 601 OFFCURVE",
"297 570 CURVE SMOOTH",
"297 61 LINE",
"427 61 LINE SMOOTH",
"443 61 OFFCURVE",
"467 61 OFFCURVE",
"467 30 CURVE SMOOTH"
);
}
);
width = 525;
}
);
unicode = 006C;
},
{
glyphname = lslash;
layers = (
{
layerId = master01;
paths = (
{
closed = 1;
nodes = (
"467 0 OFFCURVE",
"442 0 OFFCURVE",
"427 0 CURVE SMOOTH",
"98 0 LINE SMOOTH",
"84 0 OFFCURVE",
"58 0 OFFCURVE",
"58 30 CURVE SMOOTH",
"58 61 OFFCURVE",
"83 61 OFFCURVE",
"99 61 CURVE SMOOTH",
"228 61 LINE",
"228 307 LINE",
"126 238 LINE SMOOTH",
"111 228 OFFCURVE",
"94 232 OFFCURVE",
"86 245 CURVE",
"85 245 LINE",
"76 259 OFFCURVE",
"80 277 OFFCURVE",
"93 286 CURVE SMOOTH",
"228 378 LINE",
"228 550 LINE",
"98 550 LINE SMOOTH",
"84 550 OFFCURVE",
"58 550 OFFCURVE",
"58 580 CURVE SMOOTH",
"58 611 OFFCURVE",
"83 611 OFFCURVE",
"99 611 CURVE SMOOTH",
"257 611 LINE SMOOTH",
"291 611 OFFCURVE",
"297 601 OFFCURVE",
"297 570 CURVE SMOOTH",
"297 426 LINE",
"399 495 LINE SMOOTH",
"412 504 OFFCURVE",
"430 500 OFFCURVE",
"439 487 CURVE",
"439 486 LINE",
"449 472 OFFCURVE",
"445 454 OFFCURVE",
"432 445 CURVE SMOOTH",
"297 354 LINE",
"297 61 LINE",
"427 61 LINE SMOOTH",
"443 61 OFFCURVE",
"467 61 OFFCURVE",
"467 30 CURVE SMOOTH"
);
}
);
width = 525;
}
);
unicode = 0142;
},
{
glyphname = m;
layers = (
{
layerId = master01;
paths = (
{
closed = 1;
nodes = (
"516 0 OFFCURVE",
"490 0 OFFCURVE",
"475 0 CURVE SMOOTH",
"400 0 LINE SMOOTH",
"386 0 OFFCURVE",
"359 0 OFFCURVE",
"359 30 CURVE SMOOTH",
"359 61 OFFCURVE",
"384 61 OFFCURVE",
"403 61 CURVE",
"403 294 LINE SMOOTH",
"403 359 OFFCURVE",
"389 376 OFFCURVE",
"366 376 CURVE SMOOTH",
"325 376 OFFCURVE",
"284 329 OFFCURVE",
"284 240 CURVE SMOOTH",
"284 61 LINE",
"320 61 OFFCURVE",
"341 61 OFFCURVE",
"341 30 CURVE SMOOTH",
"341 0 OFFCURVE",
"315 0 OFFCURVE",
"300 0 CURVE SMOOTH",
"225 0 LINE SMOOTH",
"211 0 OFFCURVE",
"184 0 OFFCURVE",
"184 30 CURVE SMOOTH",
"184 61 OFFCURVE",
"209 61 OFFCURVE",
"228 61 CURVE",
"228 294 LINE SMOOTH",
"228 359 OFFCURVE",
"214 376 OFFCURVE",
"191 376 CURVE SMOOTH",
"150 376 OFFCURVE",
"109 329 OFFCURVE",
"109 240 CURVE SMOOTH",
"109 61 LINE",
"145 61 OFFCURVE",
"166 61 OFFCURVE",
"166 30 CURVE SMOOTH",
"166 0 OFFCURVE",
"140 0 OFFCURVE",
"125 0 CURVE SMOOTH",
"37 0 LINE SMOOTH",
"23 0 OFFCURVE",
"-4 0 OFFCURVE",
"-4 30 CURVE SMOOTH",
"-4 61 OFFCURVE",
"17 61 OFFCURVE",
"53 61 CURVE",
"53 370 LINE",
"17 370 OFFCURVE",
"-4 370 OFFCURVE",
"-4 401 CURVE SMOOTH",
"-4 431 OFFCURVE",
"22 431 OFFCURVE",
"37 431 CURVE SMOOTH",
"69 431 LINE SMOOTH",
"87 431 OFFCURVE",
"107 431 OFFCURVE",
"109 401 CURVE",
"133 423 OFFCURVE",
"163 437 OFFCURVE",
"195 437 CURVE SMOOTH",
"228 437 OFFCURVE",
"256 419 OFFCURVE",
"271 385 CURVE",
"299 424 OFFCURVE",
"340 437 OFFCURVE",
"370 437 CURVE SMOOTH",
"459 437 OFFCURVE",
"459 323 OFFCURVE",
"459 303 CURVE SMOOTH",
"459 61 LINE",
"495 61 OFFCURVE",
"516 61 OFFCURVE",
"516 30 CURVE SMOOTH"
);
}
);
width = 525;
}
);
unicode = 006D;
},
{
glyphname = n;
layers = (
{
layerId = master01;
paths = (
{
closed = 1;
nodes = (
"512 0 OFFCURVE",
"486 0 OFFCURVE",
"472 0 CURVE SMOOTH",
"319 0 LINE SMOOTH",
"305 0 OFFCURVE",
"278 0 OFFCURVE",
"278 30 CURVE SMOOTH",
"278 61 OFFCURVE",
"303 61 OFFCURVE",
"319 61 CURVE SMOOTH",
"358 61 LINE",
"358 288 LINE SMOOTH",
"358 348 OFFCURVE",
"344 376 OFFCURVE",
"291 376 CURVE SMOOTH",
"240 376 OFFCURVE",
"166 338 OFFCURVE",
"166 238 CURVE SMOOTH",
"166 61 LINE",
"210 61 LINE SMOOTH",
"226 61 OFFCURVE",
"251 61 OFFCURVE",
"251 30 CURVE SMOOTH",
"251 0 OFFCURVE",
"225 0 OFFCURVE",
"211 0 CURVE SMOOTH",
"52 0 LINE SMOOTH",
"38 0 OFFCURVE",
"12 0 OFFCURVE",
"12 30 CURVE SMOOTH",
"12 61 OFFCURVE",
"37 61 OFFCURVE",
"53 61 CURVE SMOOTH",
"97 61 LINE",
"97 370 LINE",
"52 370 LINE SMOOTH",
"38 370 OFFCURVE",
"12 370 OFFCURVE",
"12 400 CURVE SMOOTH",
"12 431 OFFCURVE",
"37 431 OFFCURVE",
"53 431 CURVE SMOOTH",
"126 431 LINE SMOOTH",
"166 431 OFFCURVE",
"166 416 OFFCURVE",
"166 384 CURVE",
"185 403 OFFCURVE",
"230 437 OFFCURVE",
"297 437 CURVE SMOOTH",
"376 437 OFFCURVE",
"427 394 OFFCURVE",
"427 293 CURVE SMOOTH",
"427 61 LINE",
"471 61 LINE SMOOTH",
"487 61 OFFCURVE",
"512 61 OFFCURVE",
"512 30 CURVE SMOOTH"
);
}
);
width = 525;
}
);
unicode = 006E;
},
{
glyphname = eng;
layers = (
{
layerId = master01;
paths = (
{
closed = 1;
nodes = (
"462 -9 OFFCURVE",
"457 -82 OFFCURVE",
"438 -138 CURVE SMOOTH",
"418 -195 OFFCURVE",
"384 -233 OFFCURVE",
"324 -233 CURVE SMOOTH",
"304 -233 OFFCURVE",
"289 -218 OFFCURVE",
"289 -198 CURVE SMOOTH",
"289 -179 OFFCURVE",
"304 -163 OFFCURVE",
"324 -163 CURVE SMOOTH",
"393 -163 OFFCURVE",
"393 -40 OFFCURVE",
"393 61 CURVE SMOOTH",
"393 288 LINE SMOOTH",
"393 348 OFFCURVE",
"379 376 OFFCURVE",
"326 376 CURVE SMOOTH",
"275 376 OFFCURVE",
"201 338 OFFCURVE",
"201 238 CURVE SMOOTH",
"201 61 LINE",
"245 61 LINE SMOOTH",
"261 61 OFFCURVE",
"286 61 OFFCURVE",
"286 30 CURVE SMOOTH",
"286 0 OFFCURVE",
"260 0 OFFCURVE",
"246 0 CURVE SMOOTH",
"87 0 LINE SMOOTH",
"73 0 OFFCURVE",
"47 0 OFFCURVE",
"47 30 CURVE SMOOTH",
"47 61 OFFCURVE",
"72 61 OFFCURVE",
"88 61 CURVE SMOOTH",
"132 61 LINE",
"132 370 LINE",
"87 370 LINE SMOOTH",
"73 370 OFFCURVE",
"47 370 OFFCURVE",
"47 400 CURVE SMOOTH",
"47 431 OFFCURVE",
"72 431 OFFCURVE",
"88 431 CURVE SMOOTH",
"161 431 LINE SMOOTH",
"201 431 OFFCURVE",
"201 416 OFFCURVE",
"201 384 CURVE",
"220 403 OFFCURVE",
"265 437 OFFCURVE",
"332 437 CURVE SMOOTH",
"411 437 OFFCURVE",
"462 394 OFFCURVE",
"462 293 CURVE SMOOTH",
"462 61 LINE SMOOTH"
);
}
);
width = 525;
}
);
unicode = 014B;
},
{
glyphname = o;
layers = (
{
layerId = master01;
paths = (
{
closed = 1;
nodes = (
"467 90 OFFCURVE",
"372 -6 OFFCURVE",
"262 -6 CURVE SMOOTH",
"152 -6 OFFCURVE",
"57 89 OFFCURVE",
"57 216 CURVE SMOOTH",
"57 341 OFFCURVE",
"150 440 OFFCURVE",
"262 440 CURVE SMOOTH",
"374 440 OFFCURVE",
"467 341 OFFCURVE",
"467 216 CURVE SMOOTH"
);
},
{
closed = 1;
nodes = (
"398 314 OFFCURVE",
"334 379 OFFCURVE",
"262 379 CURVE SMOOTH",
"191 379 OFFCURVE",
"126 314 OFFCURVE",
"126 223 CURVE SMOOTH",
"126 130 OFFCURVE",
"188 55 OFFCURVE",
"262 55 CURVE SMOOTH",
"336 55 OFFCURVE",
"398 130 OFFCURVE",
"398 223 CURVE SMOOTH"
);
}
);
width = 525;
}
);
unicode = 006F;
},
{
glyphname = ohorn;
layers = (
{
layerId = master01;
paths = (
{
closed = 1;
nodes = (
"466 157 OFFCURVE",
"445 101 OFFCURVE",
"406 59 CURVE SMOOTH",
"369 19 OFFCURVE",
"317 -6 OFFCURVE",
"261 -6 CURVE SMOOTH",
"206 -6 OFFCURVE",
"154 19 OFFCURVE",
"117 59 CURVE SMOOTH",
"78 101 OFFCURVE",
"57 157 OFFCURVE",
"57 215 CURVE SMOOTH",
"57 274 OFFCURVE",
"77 330 OFFCURVE",
"117 373 CURVE SMOOTH",
"154 414 OFFCURVE",
"206 439 OFFCURVE",
"261 439 CURVE SMOOTH",
"295 439 OFFCURVE",
"327 430 OFFCURVE",
"356 413 CURVE",
"360 416 OFFCURVE",
"366 418 OFFCURVE",
"371 418 CURVE SMOOTH",
"380 418 OFFCURVE",
"388 424 OFFCURVE",
"394 434 CURVE",
"374 441 OFFCURVE",
"362 460 OFFCURVE",
"362 480 CURVE SMOOTH",
"362 506 OFFCURVE",
"382 529 OFFCURVE",
"412 530 CURVE SMOOTH",
"451 530 OFFCURVE",
"462 493 OFFCURVE",
"462 463 CURVE SMOOTH",
"462 423 OFFCURVE",
"443 384 OFFCURVE",
"411 367 CURVE",
"447 325 OFFCURVE",
"466 271 OFFCURVE",
"466 215 CURVE SMOOTH"
);
},
{
closed = 1;
nodes = (
"397 264 OFFCURVE",
"383 303 OFFCURVE",
"357 333 CURVE SMOOTH",
"333 360 OFFCURVE",
"298 378 OFFCURVE",
"261 378 CURVE SMOOTH",
"225 378 OFFCURVE",
"190 360 OFFCURVE",
"166 333 CURVE SMOOTH",
"140 303 OFFCURVE",
"126 264 OFFCURVE",
"126 224 CURVE SMOOTH",
"126 181 OFFCURVE",
"139 138 OFFCURVE",
"166 105 CURVE SMOOTH",
"190 75 OFFCURVE",
"224 56 OFFCURVE",
"261 56 CURVE SMOOTH",
"299 56 OFFCURVE",
"333 75 OFFCURVE",
"357 105 CURVE SMOOTH",
"384 138 OFFCURVE",
"397 181 OFFCURVE",
"397 224 CURVE SMOOTH"
);
}
);
width = 525;
}
);
unicode = 01A1;
},
{
glyphname = oogonek;
layers = (
{
layerId = master01;
paths = (
{
closed = 1;
nodes = (
"467 100 OFFCURVE",
"387 10 OFFCURVE",
"289 -4 CURVE",
"253 -27 OFFCURVE",
"231 -66 OFFCURVE",
"231 -110 CURVE SMOOTH",
"231 -134 OFFCURVE",
"257 -149 OFFCURVE",
"275 -149 CURVE SMOOTH",
"295 -149 OFFCURVE",
"318 -128 OFFCURVE",
"329 -112 CURVE",
"335 -106 OFFCURVE",
"357 -102 OFFCURVE",
"366 -107 CURVE",
"374 -114 OFFCURVE",
"378 -135 OFFCURVE",
"371 -144 CURVE SMOOTH",
"347 -177 OFFCURVE",
"309 -203 OFFCURVE",
"271 -203 CURVE SMOOTH",
"208 -203 OFFCURVE",
"172 -151 OFFCURVE",
"172 -108 CURVE SMOOTH",
"172 -68 OFFCURVE",
"199 -29 OFFCURVE",
"231 -3 CURVE",
"135 13 OFFCURVE",
"57 101 OFFCURVE",
"57 216 CURVE SMOOTH",
"57 341 OFFCURVE",
"150 440 OFFCURVE",
"262 440 CURVE SMOOTH",
"374 440 OFFCURVE",
"467 341 OFFCURVE",
"467 216 CURVE SMOOTH"
);
},
{
closed = 1;
nodes = (
"398 314 OFFCURVE",
"334 379 OFFCURVE",
"262 379 CURVE SMOOTH",
"191 379 OFFCURVE",
"126 314 OFFCURVE",
"126 223 CURVE SMOOTH",
"126 130 OFFCURVE",
"188 55 OFFCURVE",
"262 55 CURVE SMOOTH",
"336 55 OFFCURVE",
"398 130 OFFCURVE",
"398 223 CURVE SMOOTH"
);
}
);
width = 525;
}
);
unicode = 01EB;
},
{
glyphname = oslash;
layers = (
{
layerId = master01;
paths = (
{
closed = 1;
nodes = (
"481 538 OFFCURVE",
"481 532 OFFCURVE",
"474 520 CURVE SMOOTH",
"399 390 LINE",
"448 345 OFFCURVE",
"479 283 OFFCURVE",
"479 216 CURVE SMOOTH",
"479 92 OFFCURVE",
"380 -6 OFFCURVE",
"262 -6 CURVE SMOOTH",
"244 -6 OFFCURVE",
"213 -4 OFFCURVE",
"179 11 CURVE",
"102 -121 LINE",
"98 -129 OFFCURVE",
"91 -140 OFFCURVE",
"75 -140 CURVE SMOOTH",
"63 -140 OFFCURVE",
"43 -130 OFFCURVE",
"43 -110 CURVE SMOOTH",
"43 -102 OFFCURVE",
"53 -84 OFFCURVE",
"60 -72 CURVE SMOOTH",
"126 42 LINE",
"67 93 OFFCURVE",
"45 158 OFFCURVE",
"45 216 CURVE SMOOTH",
"45 338 OFFCURVE",
"141 440 OFFCURVE",
"262 440 CURVE SMOOTH",
"302 440 OFFCURVE",
"330 429 OFFCURVE",
"347 422 CURVE",
"422 552 LINE SMOOTH",
"427 561 OFFCURVE",
"433 571 OFFCURVE",
"449 571 CURVE SMOOTH",
"461 571 OFFCURVE",
"481 561 OFFCURVE",
"481 541 CURVE SMOOTH"
);
},
{
closed = 1;
nodes = (
"423 252 OFFCURVE",
"410 301 OFFCURVE",
"368 338 CURVE",
"210 63 LINE",
"229 57 OFFCURVE",
"235 55 OFFCURVE",
"262 55 CURVE SMOOTH",
"350 55 OFFCURVE",
"423 126 OFFCURVE",
"423 216 CURVE SMOOTH"
);
},
{
closed = 1;
nodes = (
"296 377 OFFCURVE",
"290 379 OFFCURVE",
"262 379 CURVE SMOOTH",
"174 379 OFFCURVE",
"101 306 OFFCURVE",
"101 216 CURVE SMOOTH",
"101 181 OFFCURVE",
"112 135 OFFCURVE",
"156 94 CURVE",
"316 370 LINE"
);
}
);
width = 525;
}
);
unicode = 00F8;
},
{
glyphname = oe;
layers = (
{
layerId = master01;
paths = (
{
closed = 1;
nodes = (
"505 90 OFFCURVE",
"479 -6 OFFCURVE",
"398 -6 CURVE SMOOTH",
"338 -6 OFFCURVE",
"299 46 OFFCURVE",
"281 83 CURVE",
"262 45 OFFCURVE",
"223 -6 OFFCURVE",
"164 -6 CURVE SMOOTH",
"85 -6 OFFCURVE",
"19 88 OFFCURVE",
"19 217 CURVE SMOOTH",
"19 346 OFFCURVE",
"85 440 OFFCURVE",
"164 440 CURVE SMOOTH",
"227 440 OFFCURVE",
"265 382 OFFCURVE",
"280 353 CURVE",
"301 396 OFFCURVE",
"336 440 OFFCURVE",
"388 440 CURVE SMOOTH",
"456 440 OFFCURVE",
"505 366 OFFCURVE",
"505 233 CURVE SMOOTH",
"505 202 OFFCURVE",
"500 191 OFFCURVE",
"465 191 CURVE SMOOTH",
"310 191 LINE",
"317 114 OFFCURVE",
"359 55 OFFCURVE",
"402 55 CURVE SMOOTH",
"424 55 OFFCURVE",
"441 76 OFFCURVE",
"449 112 CURVE SMOOTH",
"450 117 OFFCURVE",
"455 137 OFFCURVE",
"477 137 CURVE SMOOTH",
"491 137 OFFCURVE",
"505 126 OFFCURVE",
"505 108 CURVE SMOOTH"
);
},
{
closed = 1;
nodes = (
"443 352 OFFCURVE",
"411 379 OFFCURVE",
"388 379 CURVE SMOOTH",
"354 379 OFFCURVE",
"318 322 OFFCURVE",
"311 251 CURVE",
"448 251 LINE"
);
},
{
closed = 1;
nodes = (
"253 317 OFFCURVE",
"207 379 OFFCURVE",
"164 379 CURVE SMOOTH",
"121 379 OFFCURVE",
"75 318 OFFCURVE",
"75 223 CURVE SMOOTH",
"75 127 OFFCURVE",
"120 55 OFFCURVE",
"164 55 CURVE SMOOTH",
"208 55 OFFCURVE",
"253 127 OFFCURVE",
"253 223 CURVE SMOOTH"
);
}
);
width = 525;
}
);
unicode = 0153;
},
{
glyphname = p;
layers = (
{
layerId = master01;
paths = (
{
closed = 1;
nodes = (
"488 89 OFFCURVE",
"391 -6 OFFCURVE",
"282 -6 CURVE SMOOTH",
"250 -6 OFFCURVE",
"207 3 OFFCURVE",
"166 45 CURVE",
"166 -161 LINE",
"210 -161 LINE SMOOTH",
"226 -161 OFFCURVE",
"251 -161 OFFCURVE",
"251 -192 CURVE SMOOTH",
"251 -222 OFFCURVE",
"225 -222 OFFCURVE",
"211 -222 CURVE SMOOTH",
"52 -222 LINE SMOOTH",
"38 -222 OFFCURVE",
"12 -222 OFFCURVE",
"12 -192 CURVE SMOOTH",
"12 -161 OFFCURVE",
"37 -161 OFFCURVE",
"53 -161 CURVE SMOOTH",
"97 -161 LINE",
"97 370 LINE",
"52 370 LINE SMOOTH",
"38 370 OFFCURVE",
"12 370 OFFCURVE",
"12 400 CURVE SMOOTH",
"12 431 OFFCURVE",
"37 431 OFFCURVE",
"53 431 CURVE SMOOTH",
"126 431 LINE SMOOTH",
"164 431 OFFCURVE",
"166 417 OFFCURVE",
"166 388 CURVE",
"200 419 OFFCURVE",
"245 437 OFFCURVE",
"293 437 CURVE SMOOTH",
"399 437 OFFCURVE",
"488 339 OFFCURVE",
"488 216 CURVE SMOOTH"
);
},
{
closed = 1;
nodes = (
"419 303 OFFCURVE",
"361 376 OFFCURVE",
"287 376 CURVE SMOOTH",
"224 376 OFFCURVE",
"166 323 OFFCURVE",
"166 264 CURVE SMOOTH",
"166 191 LINE SMOOTH",
"166 143 OFFCURVE",
"201 55 OFFCURVE",
"279 55 CURVE SMOOTH",
"349 55 OFFCURVE",
"419 120 OFFCURVE",
"419 216 CURVE SMOOTH"
);
}
);
width = 525;
}
);
unicode = 0070;
},
{
glyphname = thorn;
layers = (
{
layerId = master01;
paths = (
{
closed = 1;
nodes = (
"488 89 OFFCURVE",
"391 -6 OFFCURVE",
"282 -6 CURVE SMOOTH",
"250 -6 OFFCURVE",
"207 3 OFFCURVE",
"166 45 CURVE",
"166 -161 LINE",
"210 -161 LINE SMOOTH",
"226 -161 OFFCURVE",
"251 -161 OFFCURVE",
"251 -192 CURVE SMOOTH",
"251 -222 OFFCURVE",
"225 -222 OFFCURVE",
"211 -222 CURVE SMOOTH",
"52 -222 LINE SMOOTH",
"38 -222 OFFCURVE",
"12 -222 OFFCURVE",
"12 -192 CURVE SMOOTH",
"12 -161 OFFCURVE",
"37 -161 OFFCURVE",
"53 -161 CURVE SMOOTH",
"97 -161 LINE",
"97 550 LINE",
"52 550 LINE SMOOTH",
"38 550 OFFCURVE",
"12 550 OFFCURVE",
"12 580 CURVE SMOOTH",
"12 611 OFFCURVE",
"37 611 OFFCURVE",
"53 611 CURVE SMOOTH",
"126 611 LINE SMOOTH",
"160 611 OFFCURVE",
"166 601 OFFCURVE",
"166 570 CURVE SMOOTH",
"166 388 LINE",
"200 419 OFFCURVE",
"245 437 OFFCURVE",
"293 437 CURVE SMOOTH",
"399 437 OFFCURVE",
"488 339 OFFCURVE",
"488 216 CURVE SMOOTH"
);
},
{
closed = 1;
nodes = (
"419 303 OFFCURVE",
"361 376 OFFCURVE",
"287 376 CURVE SMOOTH",
"224 376 OFFCURVE",
"166 323 OFFCURVE",
"166 264 CURVE SMOOTH",
"166 191 LINE SMOOTH",
"166 143 OFFCURVE",
"201 55 OFFCURVE",
"279 55 CURVE SMOOTH",
"349 55 OFFCURVE",
"419 120 OFFCURVE",
"419 216 CURVE SMOOTH"
);
}
);
width = 525;
}
);
unicode = 00FE;
},
{
glyphname = q;
layers = (
{
layerId = master01;
paths = (
{
closed = 1;
nodes = (
"537 -222 OFFCURVE",
"512 -222 OFFCURVE",
"497 -222 CURVE SMOOTH",
"330 -222 LINE SMOOTH",
"314 -222 OFFCURVE",
"290 -222 OFFCURVE",
"290 -191 CURVE SMOOTH",
"290 -161 OFFCURVE",
"315 -161 OFFCURVE",
"330 -161 CURVE SMOOTH",
"379 -161 LINE",
"379 54 LINE",
"358 31 OFFCURVE",
"312 -6 OFFCURVE",
"244 -6 CURVE SMOOTH",
"134 -6 OFFCURVE",
"40 91 OFFCURVE",
"40 215 CURVE SMOOTH",
"40 342 OFFCURVE",
"142 437 OFFCURVE",
"254 437 CURVE SMOOTH",
"311 437 OFFCURVE",
"352 411 OFFCURVE",
"379 382 CURVE",
"379 420 OFFCURVE",
"379 437 OFFCURVE",
"414 437 CURVE SMOOTH",
"448 437 OFFCURVE",
"448 415 OFFCURVE",
"448 396 CURVE SMOOTH",
"448 -161 LINE",
"497 -161 LINE SMOOTH",
"513 -161 OFFCURVE",
"537 -161 OFFCURVE",
"537 -192 CURVE SMOOTH"
);
},
{
closed = 1;
nodes = (
"379 233 LINE SMOOTH",
"379 299 OFFCURVE",
"334 376 OFFCURVE",
"259 376 CURVE SMOOTH",
"179 376 OFFCURVE",
"109 307 OFFCURVE",
"109 215 CURVE SMOOTH",
"109 125 OFFCURVE",
"174 55 OFFCURVE",
"248 55 CURVE SMOOTH",
"330 55 OFFCURVE",
"379 137 OFFCURVE",
"379 194 CURVE SMOOTH"
);
}
);
width = 525;
}
);
unicode = 0071;
},
{
glyphname = r;
layers = (
{
layerId = master01;
paths = (
{
closed = 1;
nodes = (
"487 348 OFFCURVE",
"467 332 OFFCURVE",
"445 332 CURVE SMOOTH",
"420 332 OFFCURVE",
"403 352 OFFCURVE",
"402 376 CURVE",
"281 376 OFFCURVE",
"222 280 OFFCURVE",
"222 186 CURVE SMOOTH",
"222 61 LINE",
"333 61 LINE SMOOTH",
"348 61 OFFCURVE",
"374 61 OFFCURVE",
"374 30 CURVE SMOOTH",
"374 0 OFFCURVE",
"348 0 OFFCURVE",
"333 0 CURVE SMOOTH",
"72 0 LINE SMOOTH",
"56 0 OFFCURVE",
"32 0 OFFCURVE",
"32 31 CURVE SMOOTH",
"32 61 OFFCURVE",
"57 61 OFFCURVE",
"72 61 CURVE SMOOTH",
"153 61 LINE",
"153 370 LINE",
"72 370 LINE SMOOTH",
"56 370 OFFCURVE",
"32 370 OFFCURVE",
"32 401 CURVE SMOOTH",
"32 431 OFFCURVE",
"57 431 OFFCURVE",
"72 431 CURVE SMOOTH",
"182 431 LINE SMOOTH",
"216 431 OFFCURVE",
"222 421 OFFCURVE",
"222 390 CURVE SMOOTH",
"222 356 LINE",
"277 419 OFFCURVE",
"341 437 OFFCURVE",
"392 437 CURVE SMOOTH",
"475 437 OFFCURVE",
"487 395 OFFCURVE",
"487 375 CURVE SMOOTH"
);
}
);
width = 525;
}
);
unicode = 0072;
},
{
glyphname = s;
layers = (
{
layerId = master01;
paths = (
{
closed = 1;
nodes = (
"459 77 OFFCURVE",
"427 -6 OFFCURVE",
"269 -6 CURVE SMOOTH",
"241 -6 OFFCURVE",
"188 -4 OFFCURVE",
"139 32 CURVE",
"127 -5 OFFCURVE",
"111 -6 OFFCURVE",
"102 -6 CURVE SMOOTH",
"72 -6 OFFCURVE",
"72 19 OFFCURVE",
"72 35 CURVE SMOOTH",
"72 132 LINE SMOOTH",
"72 152 OFFCURVE",
"72 173 OFFCURVE",
"107 173 CURVE SMOOTH",
"133 173 OFFCURVE",
"137 162 OFFCURVE",
"142 144 CURVE SMOOTH",
"167 66 OFFCURVE",
"223 55 OFFCURVE",
"270 55 CURVE SMOOTH",
"361 55 OFFCURVE",
"398 88 OFFCURVE",
"398 125 CURVE SMOOTH",
"398 178 OFFCURVE",
"318 191 OFFCURVE",
"269 199 CURVE SMOOTH",
"177 213 OFFCURVE",
"72 230 OFFCURVE",
"72 322 CURVE SMOOTH",
"72 358 OFFCURVE",
"95 440 OFFCURVE",
"262 440 CURVE SMOOTH",
"281 440 OFFCURVE",
"325 440 OFFCURVE",
"369 419 CURVE",
"371 426 OFFCURVE",
"375 440 OFFCURVE",
"399 440 CURVE SMOOTH",
"429 440 OFFCURVE",
"429 415 OFFCURVE",
"429 399 CURVE SMOOTH",
"429 330 LINE SMOOTH",
"429 310 OFFCURVE",
"429 289 OFFCURVE",
"394 289 CURVE SMOOTH",
"363 289 OFFCURVE",
"361 306 OFFCURVE",
"360 323 CURVE",
"357 349 OFFCURVE",
"343 379 OFFCURVE",
"260 379 CURVE SMOOTH",
"165 379 OFFCURVE",
"133 348 OFFCURVE",
"133 322 CURVE SMOOTH",
"133 283 OFFCURVE",
"201 271 OFFCURVE",
"230 267 CURVE SMOOTH",
"298 255 LINE SMOOTH",
"330 250 OFFCURVE",
"459 229 OFFCURVE",
"459 125 CURVE SMOOTH"
);
}
);
width = 525;
}
);
unicode = 0073;
},
{
glyphname = scedilla;
layers = (
{
layerId = master01;
paths = (
{
closed = 1;
nodes = (
"459 82 OFFCURVE",
"434 12 OFFCURVE",
"316 -3 CURVE",
"316 -9 LINE",
"387 -23 OFFCURVE",
"415 -67 OFFCURVE",
"415 -106 CURVE SMOOTH",
"415 -208 OFFCURVE",
"275 -208 OFFCURVE",
"180 -208 CURVE SMOOTH",
"165 -208 OFFCURVE",
"149 -200 OFFCURVE",
"149 -177 CURVE SMOOTH",
"149 -146 OFFCURVE",
"171 -146 OFFCURVE",
"209 -146 CURVE SMOOTH",
"247 -146 OFFCURVE",
"346 -146 OFFCURVE",
"346 -106 CURVE SMOOTH",
"346 -86 OFFCURVE",
"323 -68 OFFCURVE",
"279 -66 CURVE SMOOTH",
"247 -64 OFFCURVE",
"247 -44 OFFCURVE",
"247 -24 CURVE SMOOTH",
"247 -5 LINE",
"218 -3 OFFCURVE",
"177 4 OFFCURVE",
"139 32 CURVE",
"127 -5 OFFCURVE",
"111 -6 OFFCURVE",
"102 -6 CURVE SMOOTH",
"72 -6 OFFCURVE",
"72 19 OFFCURVE",
"72 35 CURVE SMOOTH",
"72 132 LINE SMOOTH",
"72 152 OFFCURVE",
"72 173 OFFCURVE",
"107 173 CURVE SMOOTH",
"133 173 OFFCURVE",
"137 162 OFFCURVE",
"142 144 CURVE SMOOTH",
"167 66 OFFCURVE",
"223 55 OFFCURVE",
"270 55 CURVE SMOOTH",
"361 55 OFFCURVE",
"398 88 OFFCURVE",
"398 125 CURVE SMOOTH",
"398 178 OFFCURVE",
"318 191 OFFCURVE",
"269 199 CURVE SMOOTH",
"177 213 OFFCURVE",
"72 230 OFFCURVE",
"72 322 CURVE SMOOTH",
"72 358 OFFCURVE",
"95 440 OFFCURVE",
"262 440 CURVE SMOOTH",
"281 440 OFFCURVE",
"325 440 OFFCURVE",
"369 419 CURVE",
"371 426 OFFCURVE",
"375 440 OFFCURVE",
"399 440 CURVE SMOOTH",
"429 440 OFFCURVE",
"429 415 OFFCURVE",
"429 399 CURVE SMOOTH",
"429 330 LINE SMOOTH",
"429 310 OFFCURVE",
"429 289 OFFCURVE",
"394 289 CURVE SMOOTH",
"363 289 OFFCURVE",
"361 306 OFFCURVE",
"360 323 CURVE",
"357 349 OFFCURVE",
"343 379 OFFCURVE",
"260 379 CURVE SMOOTH",
"165 379 OFFCURVE",
"133 348 OFFCURVE",
"133 322 CURVE SMOOTH",
"133 283 OFFCURVE",
"201 271 OFFCURVE",
"230 267 CURVE SMOOTH",
"298 255 LINE SMOOTH",
"330 250 OFFCURVE",
"459 229 OFFCURVE",
"459 125 CURVE SMOOTH"
);
}
);
width = 525;
}
);
unicode = 015F;
},
{
glyphname = germandbls;
layers = (
{
layerId = master01;
paths = (
{
closed = 1;
nodes = (
"495 65 OFFCURVE",
"404 -6 OFFCURVE",
"312 -6 CURVE SMOOTH",
"244 -6 OFFCURVE",
"210 32 OFFCURVE",
"210 69 CURVE SMOOTH",
"210 96 OFFCURVE",
"230 111 OFFCURVE",
"251 111 CURVE SMOOTH",
"264 111 OFFCURVE",
"276 104 OFFCURVE",
"283 95 CURVE",
"290 85 OFFCURVE",
"290 83 OFFCURVE",
"290 59 CURVE",
"296 56 OFFCURVE",
"305 55 OFFCURVE",
"312 55 CURVE SMOOTH",
"365 55 OFFCURVE",
"426 98 OFFCURVE",
"426 175 CURVE SMOOTH",
"426 230 OFFCURVE",
"397 362 OFFCURVE",
"262 370 CURVE",
"262 370 OFFCURVE",
"238 375 OFFCURVE",
"238 400 CURVE SMOOTH",
"238 423 OFFCURVE",
"254 430 OFFCURVE",
"266 431 CURVE",
"368 434 OFFCURVE",
"397 485 OFFCURVE",
"397 507 CURVE SMOOTH",
"397 531 OFFCURVE",
"350 556 OFFCURVE",
"288 556 CURVE SMOOTH",
"262 556 OFFCURVE",
"237 552 OFFCURVE",
"214 542 CURVE SMOOTH",
"180 527 OFFCURVE",
"180 514 OFFCURVE",
"180 494 CURVE SMOOTH",
"180 41 LINE SMOOTH",
"180 9 OFFCURVE",
"173 0 OFFCURVE",
"140 0 CURVE SMOOTH",
"57 0 LINE SMOOTH",
"42 0 OFFCURVE",
"17 0 OFFCURVE",
"17 30 CURVE SMOOTH",
"17 61 OFFCURVE",
"41 61 OFFCURVE",
"57 61 CURVE SMOOTH",
"111 61 LINE",
"111 370 LINE",
"57 370 LINE SMOOTH",
"42 370 OFFCURVE",
"17 370 OFFCURVE",
"17 400 CURVE SMOOTH",
"17 431 OFFCURVE",
"41 431 OFFCURVE",
"57 431 CURVE SMOOTH",
"111 431 LINE",
"111 501 LINE SMOOTH",
"111 594 OFFCURVE",
"225 617 OFFCURVE",
"289 617 CURVE SMOOTH",
"385 617 OFFCURVE",
"466 573 OFFCURVE",
"466 508 CURVE SMOOTH",
"466 478 OFFCURVE",
"452 432 OFFCURVE",
"383 395 CURVE",
"480 327 OFFCURVE",
"495 224 OFFCURVE",
"495 175 CURVE SMOOTH"
);
}
);
width = 525;
}
);
unicode = 00DF;
},
{
glyphname = longs;
layers = (
{
layerId = master01;
paths = (
{
closed = 1;
nodes = (
"437 529 OFFCURVE",
"414 513 OFFCURVE",
"394 513 CURVE SMOOTH",
"359 513 OFFCURVE",
"350 552 OFFCURVE",
"350 556 CURVE",
"320 556 OFFCURVE",
"253 556 OFFCURVE",
"253 478 CURVE SMOOTH",
"253 61 LINE",
"354 61 LINE SMOOTH",
"369 61 OFFCURVE",
"395 61 OFFCURVE",
"395 30 CURVE SMOOTH",
"395 0 OFFCURVE",
"369 0 OFFCURVE",
"354 0 CURVE SMOOTH",
"83 0 LINE SMOOTH",
"68 0 OFFCURVE",
"42 0 OFFCURVE",
"42 31 CURVE SMOOTH",
"42 61 OFFCURVE",
"68 61 OFFCURVE",
"83 61 CURVE SMOOTH",
"184 61 LINE",
"184 370 LINE",
"83 370 LINE SMOOTH",
"68 370 OFFCURVE",
"43 370 OFFCURVE",
"43 400 CURVE SMOOTH",
"43 431 OFFCURVE",
"68 431 OFFCURVE",
"84 431 CURVE SMOOTH",
"184 431 LINE",
"184 484 LINE SMOOTH",
"184 571 OFFCURVE",
"261 617 OFFCURVE",
"341 617 CURVE SMOOTH",
"357 617 OFFCURVE",
"437 617 OFFCURVE",
"437 557 CURVE SMOOTH"
);
}
);
width = 525;
}
);
unicode = 017F;
},
{
glyphname = t;
layers = (
{
layerId = master01;
paths = (
{
closed = 1;
nodes = (
"449 37 OFFCURVE",
"368 -6 OFFCURVE",
"294 -6 CURVE SMOOTH",
"221 -6 OFFCURVE",
"153 30 OFFCURVE",
"153 126 CURVE SMOOTH",
"153 370 LINE",
"65 370 LINE SMOOTH",
"50 370 OFFCURVE",
"25 370 OFFCURVE",
"25 400 CURVE SMOOTH",
"25 431 OFFCURVE",
"50 431 OFFCURVE",
"66 431 CURVE SMOOTH",
"153 431 LINE",
"153 513 LINE SMOOTH",
"153 533 OFFCURVE",
"153 554 OFFCURVE",
"188 554 CURVE SMOOTH",
"222 554 OFFCURVE",
"222 532 OFFCURVE",
"222 513 CURVE SMOOTH",
"222 431 LINE",
"386 431 LINE SMOOTH",
"402 431 OFFCURVE",
"426 431 OFFCURVE",
"426 400 CURVE SMOOTH",
"426 370 OFFCURVE",
"401 370 OFFCURVE",
"386 370 CURVE SMOOTH",
"222 370 LINE",
"222 132 LINE SMOOTH",
"222 107 OFFCURVE",
"222 55 OFFCURVE",
"299 55 CURVE SMOOTH",
"322 55 OFFCURVE",
"379 65 OFFCURVE",
"380 127 CURVE SMOOTH",
"380 144 OFFCURVE",
"381 165 OFFCURVE",
"414 165 CURVE SMOOTH",
"449 165 OFFCURVE",
"449 144 OFFCURVE",
"449 126 CURVE SMOOTH"
);
}
);
width = 525;
}
);
unicode = 0074;
},
{
glyphname = tcedilla;
layers = (
{
layerId = master01;
paths = (
{
closed = 1;
nodes = (
"449 51 OFFCURVE",
"392 9 OFFCURVE",
"330 -3 CURVE",
"330 -12 LINE",
"401 -26 OFFCURVE",
"429 -70 OFFCURVE",
"429 -109 CURVE SMOOTH",
"429 -211 OFFCURVE",
"289 -211 OFFCURVE",
"194 -211 CURVE SMOOTH",
"179 -211 OFFCURVE",
"163 -203 OFFCURVE",
"163 -180 CURVE SMOOTH",
"163 -149 OFFCURVE",
"185 -149 OFFCURVE",
"223 -149 CURVE SMOOTH",
"261 -149 OFFCURVE",
"360 -149 OFFCURVE",
"360 -109 CURVE SMOOTH",
"360 -89 OFFCURVE",
"337 -71 OFFCURVE",
"293 -69 CURVE SMOOTH",
"261 -67 OFFCURVE",
"261 -47 OFFCURVE",
"261 -27 CURVE SMOOTH",
"261 -3 LINE",
"202 6 OFFCURVE",
"153 45 OFFCURVE",
"153 126 CURVE SMOOTH",
"153 370 LINE",
"65 370 LINE SMOOTH",
"50 370 OFFCURVE",
"25 370 OFFCURVE",
"25 400 CURVE SMOOTH",
"25 431 OFFCURVE",
"50 431 OFFCURVE",
"66 431 CURVE SMOOTH",
"153 431 LINE",
"153 513 LINE SMOOTH",
"153 533 OFFCURVE",
"153 554 OFFCURVE",
"188 554 CURVE SMOOTH",
"222 554 OFFCURVE",
"222 532 OFFCURVE",
"222 513 CURVE SMOOTH",
"222 431 LINE",
"386 431 LINE SMOOTH",
"402 431 OFFCURVE",
"426 431 OFFCURVE",
"426 400 CURVE SMOOTH",
"426 370 OFFCURVE",
"401 370 OFFCURVE",
"386 370 CURVE SMOOTH",
"222 370 LINE",
"222 132 LINE SMOOTH",
"222 107 OFFCURVE",
"222 55 OFFCURVE",
"299 55 CURVE SMOOTH",
"322 55 OFFCURVE",
"379 65 OFFCURVE",
"380 127 CURVE SMOOTH",
"380 144 OFFCURVE",
"381 165 OFFCURVE",
"414 165 CURVE SMOOTH",
"449 165 OFFCURVE",
"449 144 OFFCURVE",
"449 126 CURVE SMOOTH"
);
}
);
width = 525;
}
);
unicode = 0163;
},
{
glyphname = u;
layers = (
{
layerId = master01;
paths = (
{
closed = 1;
nodes = (
"512 0 OFFCURVE",
"487 0 OFFCURVE",
"471 0 CURVE SMOOTH",
"398 0 LINE SMOOTH",
"380 0 OFFCURVE",
"359 0 OFFCURVE",
"358 32 CURVE",
"321 4 OFFCURVE",
"280 -6 OFFCURVE",
"239 -6 CURVE SMOOTH",
"166 -6 OFFCURVE",
"97 18 OFFCURVE",
"97 114 CURVE SMOOTH",
"97 370 LINE",
"52 370 LINE SMOOTH",
"38 370 OFFCURVE",
"12 370 OFFCURVE",
"12 400 CURVE SMOOTH",
"12 431 OFFCURVE",
"37 431 OFFCURVE",
"53 431 CURVE SMOOTH",
"126 431 LINE SMOOTH",
"160 431 OFFCURVE",
"166 421 OFFCURVE",
"166 390 CURVE SMOOTH",
"166 120 LINE SMOOTH",
"166 88 OFFCURVE",
"166 55 OFFCURVE",
"245 55 CURVE SMOOTH",
"277 55 OFFCURVE",
"358 67 OFFCURVE",
"358 157 CURVE SMOOTH",
"358 370 LINE",
"313 370 LINE SMOOTH",
"299 370 OFFCURVE",
"273 370 OFFCURVE",
"273 400 CURVE SMOOTH",
"273 431 OFFCURVE",
"298 431 OFFCURVE",
"314 431 CURVE SMOOTH",
"387 431 LINE SMOOTH",
"421 431 OFFCURVE",
"427 421 OFFCURVE",
"427 390 CURVE SMOOTH",
"427 61 LINE",
"472 61 LINE SMOOTH",
"486 61 OFFCURVE",
"512 61 OFFCURVE",
"512 31 CURVE SMOOTH"
);
}
);
width = 525;
}
);
unicode = 0075;
},
{
glyphname = uhorn;
layers = (
{
layerId = master01;
paths = (
{
closed = 1;
nodes = (
"512 13 OFFCURVE",
"499 0 OFFCURVE",
"483 0 CURVE SMOOTH",
"386 0 LINE SMOOTH",
"370 0 OFFCURVE",
"357 13 OFFCURVE",
"357 28 CURVE SMOOTH",
"357 32 LINE",
"326 8 OFFCURVE",
"286 -6 OFFCURVE",
"243 -6 CURVE SMOOTH",
"201 -6 OFFCURVE",
"166 -1 OFFCURVE",
"136 21 CURVE SMOOTH",
"108 42 OFFCURVE",
"96 75 OFFCURVE",
"96 110 CURVE SMOOTH",
"96 369 LINE",
"39 369 LINE SMOOTH",
"24 369 OFFCURVE",
"11 382 OFFCURVE",
"11 397 CURVE SMOOTH",
"11 402 LINE SMOOTH",
"11 418 OFFCURVE",
"24 430 OFFCURVE",
"39 430 CURVE SMOOTH",
"137 430 LINE SMOOTH",
"153 430 OFFCURVE",
"165 418 OFFCURVE",
"165 402 CURVE SMOOTH",
"165 110 LINE SMOOTH",
"165 91 OFFCURVE",
"171 77 OFFCURVE",
"181 70 CURVE SMOOTH",
"196 59 OFFCURVE",
"216 56 OFFCURVE",
"248 56 CURVE SMOOTH",
"309 56 OFFCURVE",
"357 96 OFFCURVE",
"357 146 CURVE SMOOTH",
"357 369 LINE",
"301 369 LINE SMOOTH",
"285 369 OFFCURVE",
"273 382 OFFCURVE",
"273 397 CURVE SMOOTH",
"273 402 LINE SMOOTH",
"273 418 OFFCURVE",
"285 430 OFFCURVE",
"301 430 CURVE SMOOTH",
"399 430 LINE SMOOTH",
"405 430 OFFCURVE",
"411 428 OFFCURVE",
"415 425 CURVE",
"423 428 OFFCURVE",
"430 432 OFFCURVE",
"435 436 CURVE",
"419 445 OFFCURVE",
"409 462 OFFCURVE",
"409 480 CURVE SMOOTH",
"409 506 OFFCURVE",
"429 530 OFFCURVE",
"459 530 CURVE SMOOTH",
"497 530 OFFCURVE",
"509 493 OFFCURVE",
"509 464 CURVE SMOOTH",
"509 414 OFFCURVE",
"473 378 OFFCURVE",
"427 365 CURVE",
"427 61 LINE",
"483 61 LINE SMOOTH",
"499 61 OFFCURVE",
"512 49 OFFCURVE",
"512 33 CURVE SMOOTH",
"512 28 LINE SMOOTH"
);
}
);
width = 525;
}
);
unicode = 01B0;
},
{
glyphname = uogonek;
layers = (
{
layerId = master01;
paths = (
{
closed = 1;
nodes = (
"504 -177 OFFCURVE",
"466 -203 OFFCURVE",
"428 -203 CURVE SMOOTH",
"365 -203 OFFCURVE",
"329 -151 OFFCURVE",
"329 -108 CURVE SMOOTH",
"329 -66 OFFCURVE",
"359 -26 OFFCURVE",
"393 0 CURVE",
"376 0 OFFCURVE",
"359 3 OFFCURVE",
"358 32 CURVE",
"321 4 OFFCURVE",
"280 -6 OFFCURVE",
"239 -6 CURVE SMOOTH",
"166 -6 OFFCURVE",
"97 18 OFFCURVE",
"97 114 CURVE SMOOTH",
"97 370 LINE",
"52 370 LINE SMOOTH",
"38 370 OFFCURVE",
"12 370 OFFCURVE",
"12 400 CURVE SMOOTH",
"12 431 OFFCURVE",
"37 431 OFFCURVE",
"53 431 CURVE SMOOTH",
"126 431 LINE SMOOTH",
"160 431 OFFCURVE",
"166 421 OFFCURVE",
"166 390 CURVE SMOOTH",
"166 120 LINE SMOOTH",
"166 88 OFFCURVE",
"166 55 OFFCURVE",
"245 55 CURVE SMOOTH",
"277 55 OFFCURVE",
"358 67 OFFCURVE",
"358 157 CURVE SMOOTH",
"358 370 LINE",
"313 370 LINE SMOOTH",
"299 370 OFFCURVE",
"273 370 OFFCURVE",
"273 400 CURVE SMOOTH",
"273 431 OFFCURVE",
"298 431 OFFCURVE",
"314 431 CURVE SMOOTH",
"387 431 LINE SMOOTH",
"421 431 OFFCURVE",
"427 421 OFFCURVE",
"427 390 CURVE SMOOTH",
"427 61 LINE",
"472 61 LINE SMOOTH",
"486 61 OFFCURVE",
"512 61 OFFCURVE",
"512 31 CURVE SMOOTH",
"512 0 OFFCURVE",
"487 0 OFFCURVE",
"471 0 CURVE SMOOTH",
"453 0 LINE",
"414 -22 OFFCURVE",
"388 -63 OFFCURVE",
"388 -110 CURVE SMOOTH",
"388 -134 OFFCURVE",
"414 -149 OFFCURVE",
"432 -149 CURVE SMOOTH",
"452 -149 OFFCURVE",
"475 -128 OFFCURVE",
"486 -112 CURVE",
"492 -106 OFFCURVE",
"514 -102 OFFCURVE",
"523 -107 CURVE",
"531 -114 OFFCURVE",
"535 -135 OFFCURVE",
"528 -144 CURVE SMOOTH"
);
}
);
width = 525;
}
);
unicode = 0173;
},
{
glyphname = v;
layers = (
{
layerId = master01;
paths = (
{
closed = 1;
nodes = (
"500 370 OFFCURVE",
"475 370 OFFCURVE",
"460 370 CURVE SMOOTH",
"430 370 LINE",
"315 29 LINE SMOOTH",
"304 -4 OFFCURVE",
"281 -4 OFFCURVE",
"262 -4 CURVE SMOOTH",
"241 -4 OFFCURVE",
"221 -4 OFFCURVE",
"209 30 CURVE SMOOTH",
"94 370 LINE",
"64 370 LINE SMOOTH",
"49 370 OFFCURVE",
"24 370 OFFCURVE",
"24 400 CURVE SMOOTH",
"24 431 OFFCURVE",
"48 431 OFFCURVE",
"64 431 CURVE SMOOTH",
"181 431 LINE SMOOTH",
"197 431 OFFCURVE",
"221 431 OFFCURVE",
"221 400 CURVE SMOOTH",
"221 370 OFFCURVE",
"196 370 OFFCURVE",
"181 370 CURVE SMOOTH",
"153 370 LINE",
"262 48 LINE",
"371 370 LINE",
"343 370 LINE SMOOTH",
"327 370 OFFCURVE",
"303 370 OFFCURVE",
"303 401 CURVE SMOOTH",
"303 431 OFFCURVE",
"328 431 OFFCURVE",
"343 431 CURVE SMOOTH",
"460 431 LINE SMOOTH",
"476 431 OFFCURVE",
"500 431 OFFCURVE",
"500 400 CURVE SMOOTH"
);
}
);
width = 525;
}
);
unicode = 0076;
},
{
glyphname = w;
layers = (
{
layerId = master01;
paths = (
{
closed = 1;
nodes = (
"508 370 OFFCURVE",
"487 370 OFFCURVE",
"457 370 CURVE",
"397 34 LINE SMOOTH",
"393 12 OFFCURVE",
"390 -4 OFFCURVE",
"353 -4 CURVE SMOOTH",
"341 -4 OFFCURVE",
"323 -4 OFFCURVE",
"311 13 CURVE",
"307 21 OFFCURVE",
"270 138 OFFCURVE",
"265 190 CURVE",
"264 190 LINE",
"261 168 OFFCURVE",
"260 154 OFFCURVE",
"235 66 CURVE SMOOTH",
"217 5 OFFCURVE",
"214 -4 OFFCURVE",
"174 -4 CURVE SMOOTH",
"134 -4 OFFCURVE",
"131 11 OFFCURVE",
"127 34 CURVE SMOOTH",
"67 370 LINE",
"37 370 OFFCURVE",
"16 370 OFFCURVE",
"16 401 CURVE SMOOTH",
"16 431 OFFCURVE",
"40 431 OFFCURVE",
"58 431 CURVE SMOOTH",
"173 431 LINE SMOOTH",
"192 431 OFFCURVE",
"215 431 OFFCURVE",
"215 400 CURVE SMOOTH",
"215 370 OFFCURVE",
"191 370 OFFCURVE",
"173 370 CURVE SMOOTH",
"124 370 LINE",
"176 72 LINE",
"177 72 LINE",
"181 92 OFFCURVE",
"221 230 OFFCURVE",
"224 237 CURVE",
"235 259 OFFCURVE",
"254 259 OFFCURVE",
"264 259 CURVE SMOOTH",
"299 259 OFFCURVE",
"302 248 OFFCURVE",
"320 185 CURVE SMOOTH",
"332 144 OFFCURVE",
"345 98 OFFCURVE",
"349 72 CURVE",
"350 72 LINE",
"400 370 LINE",
"351 370 LINE SMOOTH",
"332 370 OFFCURVE",
"309 370 OFFCURVE",
"309 401 CURVE SMOOTH",
"309 431 OFFCURVE",
"333 431 OFFCURVE",
"351 431 CURVE SMOOTH",
"466 431 LINE SMOOTH",
"484 431 OFFCURVE",
"508 431 OFFCURVE",
"508 401 CURVE SMOOTH"
);
}
);
width = 525;
}
);
unicode = 0077;
},
{
glyphname = x;
layers = (
{
layerId = master01;
paths = (
{
closed = 1;
nodes = (
"496 0 OFFCURVE",
"469 0 OFFCURVE",
"455 0 CURVE SMOOTH",
"338 0 LINE SMOOTH",
"323 0 OFFCURVE",
"298 0 OFFCURVE",
"298 30 CURVE SMOOTH",
"298 61 OFFCURVE",
"320 61 OFFCURVE",
"348 61 CURVE",
"259 184 LINE",
"173 61 LINE",
"204 61 OFFCURVE",
"225 61 OFFCURVE",
"225 30 CURVE SMOOTH",
"225 0 OFFCURVE",
"200 0 OFFCURVE",
"185 0 CURVE SMOOTH",
"68 0 LINE SMOOTH",
"54 0 OFFCURVE",
"27 0 OFFCURVE",
"27 30 CURVE SMOOTH",
"27 61 OFFCURVE",
"53 61 OFFCURVE",
"68 61 CURVE SMOOTH",
"108 61 LINE",
"232 222 LINE",
"114 370 LINE",
"74 370 LINE SMOOTH",
"60 370 OFFCURVE",
"33 370 OFFCURVE",
"33 400 CURVE SMOOTH",
"33 431 OFFCURVE",
"59 431 OFFCURVE",
"74 431 CURVE SMOOTH",
"191 431 LINE SMOOTH",
"206 431 OFFCURVE",
"231 431 OFFCURVE",
"231 401 CURVE SMOOTH",
"231 370 OFFCURVE",
"209 370 OFFCURVE",
"183 370 CURVE",
"259 269 LINE",
"333 370 LINE",
"306 370 OFFCURVE",
"284 370 OFFCURVE",
"284 401 CURVE SMOOTH",
"284 431 OFFCURVE",
"309 431 OFFCURVE",
"324 431 CURVE SMOOTH",
"441 431 LINE SMOOTH",
"456 431 OFFCURVE",
"482 431 OFFCURVE",
"482 400 CURVE SMOOTH",
"482 370 OFFCURVE",
"455 370 OFFCURVE",
"441 370 CURVE SMOOTH",
"401 370 LINE",
"287 222 LINE",
"415 61 LINE",
"455 61 LINE SMOOTH",
"470 61 OFFCURVE",
"496 61 OFFCURVE",
"496 30 CURVE SMOOTH"
);
}
);
width = 525;
}
);
unicode = 0078;
},
{
glyphname = y;
layers = (
{
layerId = master01;
paths = (
{
closed = 1;
nodes = (
"500 370 OFFCURVE",
"475 370 OFFCURVE",
"460 370 CURVE SMOOTH",
"430 370 LINE",
"275 -85 LINE SMOOTH",
"271 -96 OFFCURVE",
"226 -228 OFFCURVE",
"126 -228 CURVE SMOOTH",
"77 -228 OFFCURVE",
"43 -188 OFFCURVE",
"43 -146 CURVE SMOOTH",
"43 -120 OFFCURVE",
"60 -102 OFFCURVE",
"87 -102 CURVE SMOOTH",
"112 -102 OFFCURVE",
"130 -120 OFFCURVE",
"130 -145 CURVE SMOOTH",
"130 -158 OFFCURVE",
"125 -167 OFFCURVE",
"125 -167 CURVE",
"140 -166 OFFCURVE",
"176 -164 OFFCURVE",
"205 -109 CURVE SMOOTH",
"218 -84 OFFCURVE",
"243 0 OFFCURVE",
"243 0 CURVE",
"243 0 OFFCURVE",
"243 3 OFFCURVE",
"239 13 CURVE SMOOTH",
"97 370 LINE",
"66 370 LINE SMOOTH",
"51 370 OFFCURVE",
"26 370 OFFCURVE",
"26 400 CURVE SMOOTH",
"26 431 OFFCURVE",
"50 431 OFFCURVE",
"66 431 CURVE SMOOTH",
"183 431 LINE SMOOTH",
"199 431 OFFCURVE",
"223 431 OFFCURVE",
"223 400 CURVE SMOOTH",
"223 370 OFFCURVE",
"198 370 OFFCURVE",
"183 370 CURVE SMOOTH",
"158 370 LINE",
"251 130 LINE SMOOTH",
"258 111 OFFCURVE",
"267 90 OFFCURVE",
"272 71 CURVE",
"273 71 LINE",
"280 102 OFFCURVE",
"286 120 OFFCURVE",
"299 157 CURVE SMOOTH",
"371 370 LINE",
"343 370 LINE SMOOTH",
"327 370 OFFCURVE",
"303 370 OFFCURVE",
"303 401 CURVE SMOOTH",
"303 431 OFFCURVE",
"328 431 OFFCURVE",
"343 431 CURVE SMOOTH",
"460 431 LINE SMOOTH",
"476 431 OFFCURVE",
"500 431 OFFCURVE",
"500 400 CURVE SMOOTH"
);
}
);
width = 525;
}
);
unicode = 0079;
},
{
glyphname = z;
layers = (
{
layerId = master01;
paths = (
{
closed = 1;
nodes = (
"475 26 OFFCURVE",
"475 6 OFFCURVE",
"453 0 CURVE",
"74 0 LINE SMOOTH",
"55 0 OFFCURVE",
"33 0 OFFCURVE",
"33 34 CURVE SMOOTH",
"33 51 OFFCURVE",
"34 54 OFFCURVE",
"55 74 CURVE SMOOTH",
"367 370 LINE",
"118 370 LINE",
"118 344 LINE SMOOTH",
"118 324 OFFCURVE",
"118 303 OFFCURVE",
"83 303 CURVE SMOOTH",
"49 303 OFFCURVE",
"49 325 OFFCURVE",
"49 344 CURVE SMOOTH",
"49 390 LINE SMOOTH",
"49 423 OFFCURVE",
"57 431 OFFCURVE",
"90 431 CURVE SMOOTH",
"430 431 LINE SMOOTH",
"449 431 OFFCURVE",
"471 431 OFFCURVE",
"471 397 CURVE SMOOTH",
"471 380 OFFCURVE",
"470 377 OFFCURVE",
"449 357 CURVE SMOOTH",
"137 61 LINE",
"406 61 LINE",
"406 99 LINE SMOOTH",
"406 119 OFFCURVE",
"406 140 OFFCURVE",
"441 140 CURVE SMOOTH",
"475 140 OFFCURVE",
"475 118 OFFCURVE",
"475 99 CURVE SMOOTH",
"475 41 LINE SMOOTH"
);
}
);
width = 525;
}
);
unicode = 007A;
},
{
glyphname = ordfeminine;
layers = (
{
layerId = master01;
paths = (
{
closed = 1;
nodes = (
"427 314 OFFCURVE",
"411 314 OFFCURVE",
"392 314 CURVE SMOOTH",
"365 314 OFFCURVE",
"331 315 OFFCURVE",
"316 337 CURVE",
"283 315 OFFCURVE",
"240 310 OFFCURVE",
"214 310 CURVE SMOOTH",
"142 310 OFFCURVE",
"98 355 OFFCURVE",
"98 404 CURVE SMOOTH",
"98 471 OFFCURVE",
"184 506 OFFCURVE",
"308 508 CURVE",
"308 558 OFFCURVE",
"272 579 OFFCURVE",
"219 579 CURVE SMOOTH",
"194 579 LINE",
"180 577 OFFCURVE",
"179 577 OFFCURVE",
"179 571 CURVE",
"178 545 OFFCURVE",
"159 539 OFFCURVE",
"148 539 CURVE SMOOTH",
"131 539 OFFCURVE",
"117 550 OFFCURVE",
"117 571 CURVE SMOOTH",
"117 622 OFFCURVE",
"188 622 OFFCURVE",
"218 622 CURVE SMOOTH",
"319 622 OFFCURVE",
"357 563 OFFCURVE",
"357 514 CURVE SMOOTH",
"357 362 LINE",
"362 360 OFFCURVE",
"369 357 OFFCURVE",
"399 357 CURVE SMOOTH",
"409 357 OFFCURVE",
"427 357 OFFCURVE",
"427 336 CURVE SMOOTH"
);
},
{
closed = 1;
nodes = (
"396 246 OFFCURVE",
"382 237 OFFCURVE",
"365 237 CURVE SMOOTH",
"160 237 LINE SMOOTH",
"143 237 OFFCURVE",
"129 246 OFFCURVE",
"129 258 CURVE SMOOTH",
"129 270 OFFCURVE",
"143 280 OFFCURVE",
"160 280 CURVE SMOOTH",
"365 280 LINE SMOOTH",
"382 280 OFFCURVE",
"396 270 OFFCURVE",
"396 258 CURVE SMOOTH"
);
},
{
closed = 1;
nodes = (
"308 467 LINE",
"207 464 OFFCURVE",
"147 438 OFFCURVE",
"147 404 CURVE SMOOTH",
"147 376 OFFCURVE",
"175 353 OFFCURVE",
"219 353 CURVE SMOOTH",
"224 353 OFFCURVE",
"256 353 OFFCURVE",
"281 365 CURVE SMOOTH",
"308 377 OFFCURVE",
"308 392 OFFCURVE",
"308 408 CURVE SMOOTH"
);
}
);
width = 525;
}
);
unicode = 00AA;
},
{
glyphname = ordmasculine;
layers = (
{
layerId = master01;
paths = (
{
closed = 1;
nodes = (
"406 377 OFFCURVE",
"339 310 OFFCURVE",
"263 310 CURVE SMOOTH",
"186 310 OFFCURVE",
"119 376 OFFCURVE",
"119 465 CURVE SMOOTH",
"119 553 OFFCURVE",
"184 622 OFFCURVE",
"263 622 CURVE SMOOTH",
"341 622 OFFCURVE",
"406 553 OFFCURVE",
"406 465 CURVE SMOOTH"
);
},
{
closed = 1;
nodes = (
"375 246 OFFCURVE",
"361 237 OFFCURVE",
"344 237 CURVE SMOOTH",
"181 237 LINE SMOOTH",
"164 237 OFFCURVE",
"150 246 OFFCURVE",
"150 258 CURVE SMOOTH",
"150 270 OFFCURVE",
"164 280 OFFCURVE",
"181 280 CURVE SMOOTH",
"344 280 LINE SMOOTH",
"361 280 OFFCURVE",
"375 270 OFFCURVE",
"375 258 CURVE SMOOTH"
);
},
{
closed = 1;
nodes = (
"358 534 OFFCURVE",
"313 579 OFFCURVE",
"263 579 CURVE SMOOTH",
"213 579 OFFCURVE",
"167 534 OFFCURVE",
"167 470 CURVE SMOOTH",
"167 405 OFFCURVE",
"211 353 OFFCURVE",
"263 353 CURVE SMOOTH",
"314 353 OFFCURVE",
"358 405 OFFCURVE",
"358 470 CURVE SMOOTH"
);
}
);
width = 525;
}
);
unicode = 00BA;
},
{
glyphname = A;
layers = (
{
layerId = master01;
paths = (
{
closed = 1;
nodes = (
"497 0 OFFCURVE",
"471 0 OFFCURVE",
"454 0 CURVE SMOOTH",
"352 0 LINE SMOOTH",
"334 0 OFFCURVE",
"310 0 OFFCURVE",
"310 30 CURVE SMOOTH",
"310 61 OFFCURVE",
"330 61 OFFCURVE",
"366 61 CURVE",
"343 165 LINE",
"181 165 LINE",
"158 61 LINE",
"194 61 OFFCURVE",
"214 61 OFFCURVE",
"214 30 CURVE SMOOTH",
"214 0 OFFCURVE",
"190 0 OFFCURVE",
"172 0 CURVE SMOOTH",
"70 0 LINE SMOOTH",
"53 0 OFFCURVE",
"27 0 OFFCURVE",
"27 30 CURVE SMOOTH",
"27 43 OFFCURVE",
"33 53 OFFCURVE",
"44 59 CURVE",
"50 61 OFFCURVE",
"73 61 OFFCURVE",
"87 61 CURVE",
"208 585 LINE SMOOTH",
"217 623 OFFCURVE",
"233 623 OFFCURVE",
"262 623 CURVE SMOOTH",
"293 623 OFFCURVE",
"307 622 OFFCURVE",
"316 584 CURVE SMOOTH",
"437 61 LINE",
"452 61 OFFCURVE",
"474 61 OFFCURVE",
"480 58 CURVE",
"492 53 OFFCURVE",
"497 43 OFFCURVE",
"497 30 CURVE SMOOTH"
);
},
{
closed = 1;
nodes = (
"262 540 LINE",
"196 226 LINE",
"328 226 LINE"
);
}
);
width = 525;
}
);
unicode = 0041;
subCategory = Spacing;
},
{
glyphname = "Be-cy";
layers = (
{
layerId = master01;
paths = (
{
closed = 1;
nodes = (
"22 60 OFFCURVE",
"48 62 OFFCURVE",
"57 62 CURVE SMOOTH",
"90 62 LINE",
"90 549 LINE",
"61 549 LINE SMOOTH",
"44 549 OFFCURVE",
"22 551 OFFCURVE",
"22 580 CURVE SMOOTH",
"22 592 OFFCURVE",
"28 611 OFFCURVE",
"57 611 CURVE SMOOTH",
"403 611 LINE SMOOTH",
"441 611 OFFCURVE",
"440 586 OFFCURVE",
"440 573 CURVE SMOOTH",
"440 488 LINE SMOOTH",
"440 473 OFFCURVE",
"434 455 OFFCURVE",
"406 455 CURVE SMOOTH",
"391 455 OFFCURVE",
"371 456 OFFCURVE",
"370 488 CURVE SMOOTH",
"370 549 LINE",
"160 549 LINE",
"160 348 LINE",
"304 348 LINE SMOOTH",
"432 348 OFFCURVE",
"482 248 OFFCURVE",
"482 174 CURVE SMOOTH",
"482 115 OFFCURVE",
"446 0 OFFCURVE",
"302 0 CURVE SMOOTH",
"57 0 LINE SMOOTH",
"29 1 OFFCURVE",
"22 16 OFFCURVE",
"22 32 CURVE SMOOTH"
);
},
{
closed = 1;
nodes = (
"288 62 LINE SMOOTH",
"374 62 OFFCURVE",
"411 125 OFFCURVE",
"411 174 CURVE SMOOTH",
"411 227 OFFCURVE",
"369 287 OFFCURVE",
"290 287 CURVE SMOOTH",
"160 287 LINE",
"160 62 LINE"
);
}
);
width = 525;
}
);
unicode = 0411;
},
{
glyphname = "Ge-cy";
layers = (
{
layerId = master01;
paths = (
{
closed = 1;
nodes = (
"45 45 OFFCURVE",
"51 61 OFFCURVE",
"79 62 CURVE SMOOTH",
"139 62 LINE",
"139 549 LINE",
"84 549 LINE SMOOTH",
"69 549 OFFCURVE",
"45 550 OFFCURVE",
"45 580 CURVE SMOOTH",
"45 606 OFFCURVE",
"63 611 OFFCURVE",
"81 611 CURVE SMOOTH",
"444 611 LINE SMOOTH",
"481 611 OFFCURVE",
"480 585 OFFCURVE",
"480 573 CURVE SMOOTH",
"480 489 LINE SMOOTH",
"480 461 OFFCURVE",
"463 455 OFFCURVE",
"448 455 CURVE SMOOTH",
"446 455 LINE SMOOTH",
"430 455 OFFCURVE",
"411 457 OFFCURVE",
"410 488 CURVE SMOOTH",
"410 549 LINE",
"209 549 LINE",
"209 62 LINE",
"292 62 LINE SMOOTH",
"320 62 OFFCURVE",
"327 45 OFFCURVE",
"327 31 CURVE SMOOTH",
"327 15 OFFCURVE",
"319 0 OFFCURVE",
"291 0 CURVE SMOOTH",
"81 0 LINE SMOOTH",
"49 0 OFFCURVE",
"45 20 OFFCURVE",
"45 30 CURVE SMOOTH"
);
}
);
width = 525;
}
);
unicode = 0413;
},
{
glyphname = "Gje-cy";
layers = (
{
components = (
{
name = "Ge-cy";
}
);
layerId = master01;
paths = (
{
closed = 1;
nodes = (
"188 748 OFFCURVE",
"208 754 OFFCURVE",
"220 758 CURVE SMOOTH",
"361 806 OFFCURVE",
"360 807 OFFCURVE",
"370 807 CURVE SMOOTH",
"387 807 OFFCURVE",
"404 792 OFFCURVE",
"404 772 CURVE SMOOTH",
"404 750 OFFCURVE",
"388 741 OFFCURVE",
"372 736 CURVE SMOOTH",
"236 689 OFFCURVE",
"226 686 OFFCURVE",
"220 686 CURVE SMOOTH",
"194 686 OFFCURVE",
"188 718 OFFCURVE",
"188 727 CURVE SMOOTH"
);
}
);
width = 525;
}
);
unicode = 0403;
},
{
glyphname = "Gheupturn-cy";
layers = (
{
layerId = master01;
paths = (
{
closed = 1;
nodes = (
"45 45 OFFCURVE",
"51 61 OFFCURVE",
"79 62 CURVE SMOOTH",
"139 62 LINE",
"139 549 LINE",
"84 549 LINE SMOOTH",
"68 549 OFFCURVE",
"45 551 OFFCURVE",
"45 580 CURVE SMOOTH",
"45 609 OFFCURVE",
"70 611 OFFCURVE",
"80 611 CURVE SMOOTH",
"410 611 LINE",
"410 739 LINE SMOOTH",
"410 755 OFFCURVE",
"412 778 OFFCURVE",
"443 778 CURVE SMOOTH",
"444 778 OFFCURVE",
"445 778 OFFCURVE",
"445 777 CURVE",
"447 777 LINE SMOOTH",
"481 777 OFFCURVE",
"480 749 OFFCURVE",
"480 740 CURVE SMOOTH",
"480 588 LINE SMOOTH",
"480 549 OFFCURVE",
"460 549 OFFCURVE",
"440 549 CURVE SMOOTH",
"209 549 LINE",
"209 62 LINE",
"292 62 LINE SMOOTH",
"320 62 OFFCURVE",
"327 45 OFFCURVE",
"327 31 CURVE SMOOTH",
"327 15 OFFCURVE",
"319 0 OFFCURVE",
"291 0 CURVE SMOOTH",
"81 0 LINE SMOOTH",
"49 0 OFFCURVE",
"45 20 OFFCURVE",
"45 30 CURVE SMOOTH"
);
}
);
width = 525;
}
);
unicode = 0490;
},
{
glyphname = "De-cy";
layers = (
{
layerId = master01;
paths = (
{
closed = 1;
nodes = (
"13 67 OFFCURVE",
"42 60 OFFCURVE",
"55 63 CURVE",
"61 65 OFFCURVE",
"65 70 OFFCURVE",
"69 75 CURVE SMOOTH",
"145 170 OFFCURVE",
"162 314 OFFCURVE",
"165 501 CURVE SMOOTH",
"165 549 LINE",
"140 549 LINE SMOOTH",
"121 549 OFFCURVE",
"103 554 OFFCURVE",
"103 580 CURVE SMOOTH",
"103 592 OFFCURVE",
"108 610 OFFCURVE",
"137 611 CURVE SMOOTH",
"471 611 LINE SMOOTH",
"498 611 OFFCURVE",
"505 592 OFFCURVE",
"505 580 CURVE SMOOTH",
"505 551 OFFCURVE",
"480 549 OFFCURVE",
"471 549 CURVE SMOOTH",
"442 549 LINE",
"442 62 LINE",
"471 62 LINE SMOOTH",
"514 62 OFFCURVE",
"512 35 OFFCURVE",
"512 23 CURVE SMOOTH",
"512 -128 LINE SMOOTH",
"512 -161 OFFCURVE",
"495 -166 OFFCURVE",
"484 -166 CURVE SMOOTH",
"474 -166 OFFCURVE",
"456 -161 OFFCURVE",
"455 -133 CURVE SMOOTH",
"455 0 LINE",
"69 0 LINE",
"69 -130 LINE SMOOTH",
"69 -159 OFFCURVE",
"52 -166 OFFCURVE",
"41 -166 CURVE SMOOTH",
"30 -166 OFFCURVE",
"12 -160 OFFCURVE",
"12 -131 CURVE SMOOTH",
"12 28 LINE SMOOTH"
);
},
{
closed = 1;
nodes = (
"372 62 LINE",
"372 549 LINE",
"222 549 LINE",
"222 516 LINE SMOOTH",
"222 228 OFFCURVE",
"174 137 OFFCURVE",
"129 62 CURVE"
);
}
);
width = 525;
}
);
unicode = 0414;
},
{
glyphname = "Iegrave-cy";
layers = (
{
components = (
{
name = E;
}
);
layerId = master01;
paths = (
{
closed = 1;
nodes = (
"141 788 OFFCURVE",
"153 807 OFFCURVE",
"175 807 CURVE SMOOTH",
"189 807 OFFCURVE",
"236 787 OFFCURVE",
"328 757 CURVE SMOOTH",
"342 752 OFFCURVE",
"357 745 OFFCURVE",
"357 727 CURVE SMOOTH",
"357 717 OFFCURVE",
"351 686 OFFCURVE",
"325 686 CURVE SMOOTH",
"319 686 OFFCURVE",
"167 734 OFFCURVE",
"154 745 CURVE",
"146 751 OFFCURVE",
"141 759 OFFCURVE",
"141 772 CURVE SMOOTH"
);
}
);
width = 525;
}
);
unicode = 0400;
},
{
glyphname = "Io-cy";
layers = (
{
components = (
{
name = E;
}
);
layerId = master01;
paths = (
{
closed = 1;
nodes = (
"110 798 OFFCURVE",
"133 819 OFFCURVE",
"160 819 CURVE SMOOTH",
"186 819 OFFCURVE",
"210 798 OFFCURVE",
"210 769 CURVE SMOOTH",
"210 740 OFFCURVE",
"185 719 OFFCURVE",
"161 719 CURVE SMOOTH",
"131 719 OFFCURVE",
"110 742 OFFCURVE",
"110 769 CURVE SMOOTH"
);
},
{
closed = 1;
nodes = (
"314 797 OFFCURVE",
"337 819 OFFCURVE",
"364 819 CURVE SMOOTH",
"390 819 OFFCURVE",
"414 798 OFFCURVE",
"414 769 CURVE SMOOTH",
"414 740 OFFCURVE",
"390 719 OFFCURVE",
"364 719 CURVE SMOOTH",
"335 719 OFFCURVE",
"314 742 OFFCURVE",
"314 769 CURVE SMOOTH"
);
}
);
width = 525;
}
);
unicode = 0401;
},
{
glyphname = "Zhe-cy";
layers = (
{
layerId = master01;
paths = (
{
closed = 1;
nodes = (
"0 43 OFFCURVE",
"7 62 OFFCURVE",
"33 62 CURVE SMOOTH",
"35 62 LINE",
"147 358 LINE",
"45 549 LINE",
"40 549 LINE SMOOTH",
"20 549 OFFCURVE",
"6 561 OFFCURVE",
"6 579 CURVE SMOOTH",
"6 599 OFFCURVE",
"19 611 OFFCURVE",
"40 611 CURVE SMOOTH",
"100 611 LINE SMOOTH",
"117 611 OFFCURVE",
"135 605 OFFCURVE",
"135 580 CURVE SMOOTH",
"135 556 OFFCURVE",
"117 551 OFFCURVE",
"109 549 CURVE",
"234 316 LINE",
"234 549 LINE",
"219 549 OFFCURVE",
"194 550 OFFCURVE",
"194 579 CURVE SMOOTH",
"194 591 OFFCURVE",
"199 611 OFFCURVE",
"229 611 CURVE SMOOTH",
"295 611 LINE SMOOTH",
"322 611 OFFCURVE",
"331 596 OFFCURVE",
"331 582 CURVE SMOOTH",
"331 551 OFFCURVE",
"307 549 OFFCURVE",
"295 549 CURVE SMOOTH",
"291 549 LINE",
"291 317 LINE",
"416 549 LINE",
"398 552 OFFCURVE",
"389 566 OFFCURVE",
"389 580 CURVE SMOOTH",
"389 592 OFFCURVE",
"395 611 OFFCURVE",
"425 611 CURVE SMOOTH",
"485 611 LINE SMOOTH",
"508 611 OFFCURVE",
"518 596 OFFCURVE",
"518 581 CURVE SMOOTH",
"518 552 OFFCURVE",
"497 549 OFFCURVE",
"480 549 CURVE",
"378 358 LINE",
"490 62 LINE",
"491 62 LINE SMOOTH",
"518 62 OFFCURVE",
"524 43 OFFCURVE",
"524 31 CURVE SMOOTH",
"524 18 OFFCURVE",
"518 0 OFFCURVE",
"492 0 CURVE SMOOTH",
"439 0 LINE SMOOTH",
"422 0 OFFCURVE",
"404 6 OFFCURVE",
"404 31 CURVE SMOOTH",
"404 47 OFFCURVE",
"413 58 OFFCURVE",
"429 62 CURVE",
"342 292 LINE",
"298 210 LINE",
"292 196 LINE",
"291 178 LINE",
"291 62 LINE",
"306 62 OFFCURVE",
"331 61 OFFCURVE",
"331 31 CURVE SMOOTH",
"331 20 OFFCURVE",
"326 0 OFFCURVE",
"296 0 CURVE SMOOTH",
"230 0 LINE SMOOTH",
"204 0 OFFCURVE",
"194 14 OFFCURVE",
"194 29 CURVE SMOOTH",
"194 43 OFFCURVE",
"203 58 OFFCURVE",
"217 61 CURVE SMOOTH",
"222 62 OFFCURVE",
"228 62 OFFCURVE",
"234 62 CURVE",
"234 178 LINE",
"233 195 LINE",
"218 229 OFFCURVE",
"199 259 OFFCURVE",
"182 292 CURVE",
"95 62 LINE",
"108 59 OFFCURVE",
"121 49 OFFCURVE",
"121 31 CURVE SMOOTH",
"121 15 OFFCURVE",
"113 0 OFFCURVE",
"85 0 CURVE SMOOTH",
"33 0 LINE SMOOTH",
"7 0 OFFCURVE",
"0 18 OFFCURVE",
"0 31 CURVE SMOOTH"
);
}
);
width = 525;
}
);
unicode = 0416;
},
{
glyphname = "Ze-cy";
layers = (
{
layerId = master01;
paths = (
{
closed = 1;
nodes = (
"56 194 OFFCURVE",
"73 202 OFFCURVE",
"89 202 CURVE SMOOTH",
"91 202 LINE SMOOTH",
"103 202 OFFCURVE",
"116 200 OFFCURVE",
"123 185 CURVE SMOOTH",
"131 168 OFFCURVE",
"113 50 OFFCURVE",
"261 50 CURVE SMOOTH",
"345 50 OFFCURVE",
"409 104 OFFCURVE",
"409 169 CURVE SMOOTH",
"409 225 OFFCURVE",
"354 287 OFFCURVE",
"262 287 CURVE SMOOTH",
"208 287 LINE SMOOTH",
"184 287 OFFCURVE",
"173 303 OFFCURVE",
"173 318 CURVE SMOOTH",
"173 333 OFFCURVE",
"185 348 OFFCURVE",
"205 348 CURVE SMOOTH",
"263 348 LINE SMOOTH",
"356 348 OFFCURVE",
"386 414 OFFCURVE",
"386 454 CURVE SMOOTH",
"386 510 OFFCURVE",
"334 560 OFFCURVE",
"263 560 CURVE SMOOTH",
"226 560 OFFCURVE",
"147 547 OFFCURVE",
"136 435 CURVE SMOOTH",
"133 412 OFFCURVE",
"128 399 OFFCURVE",
"99 399 CURVE SMOOTH",
"98 399 LINE SMOOTH",
"63 400 OFFCURVE",
"65 425 OFFCURVE",
"65 441 CURVE SMOOTH",
"65 588 LINE SMOOTH",
"65 615 OFFCURVE",
"83 622 OFFCURVE",
"95 622 CURVE SMOOTH",
"114 622 OFFCURVE",
"123 606 OFFCURVE",
"142 586 CURVE",
"173 607 OFFCURVE",
"210 622 OFFCURVE",
"262 622 CURVE SMOOTH",
"369 622 OFFCURVE",
"456 548 OFFCURVE",
"456 454 CURVE SMOOTH",
"456 369 OFFCURVE",
"386 326 OFFCURVE",
"374 319 CURVE",
"460 277 OFFCURVE",
"479 207 OFFCURVE",
"479 170 CURVE SMOOTH",
"479 73 OFFCURVE",
"389 -11 OFFCURVE",
"262 -11 CURVE SMOOTH",
"97 -11 OFFCURVE",
"56 99 OFFCURVE",
"56 169 CURVE SMOOTH"
);
}
);
width = 525;
}
);
unicode = 0417;
},
{
glyphname = "Ii-cy";
layers = (
{
layerId = master01;
paths = (
{
closed = 1;
nodes = (
"18 60 OFFCURVE",
"44 62 OFFCURVE",
"53 62 CURVE SMOOTH",
"81 62 LINE",
"81 549 LINE",
"55 549 LINE SMOOTH",
"36 549 OFFCURVE",
"18 555 OFFCURVE",
"18 579 CURVE SMOOTH",
"18 595 OFFCURVE",
"25 611 OFFCURVE",
"53 611 CURVE SMOOTH",
"164 611 LINE SMOOTH",
"196 611 OFFCURVE",
"200 591 OFFCURVE",
"200 580 CURVE SMOOTH",
"200 551 OFFCURVE",
"175 549 OFFCURVE",
"165 549 CURVE SMOOTH",
"138 549 LINE",
"138 132 LINE",
"145 170 OFFCURVE",
"225 304 OFFCURVE",
"362 512 CURVE SMOOTH",
"371 527 OFFCURVE",
"374 530 OFFCURVE",
"385 537 CURVE",
"385 549 LINE",
"360 549 LINE SMOOTH",
"340 549 OFFCURVE",
"323 555 OFFCURVE",
"323 579 CURVE SMOOTH",
"323 595 OFFCURVE",
"330 611 OFFCURVE",
"358 611 CURVE SMOOTH",
"469 611 LINE SMOOTH",
"501 611 OFFCURVE",
"505 591 OFFCURVE",
"505 580 CURVE SMOOTH",
"505 551 OFFCURVE",
"479 549 OFFCURVE",
"470 549 CURVE SMOOTH",
"442 549 LINE",
"442 62 LINE",
"468 62 LINE SMOOTH",
"487 62 OFFCURVE",
"505 56 OFFCURVE",
"505 31 CURVE SMOOTH",
"505 16 OFFCURVE",
"498 0 OFFCURVE",
"470 0 CURVE SMOOTH",
"359 0 LINE SMOOTH",
"327 0 OFFCURVE",
"323 19 OFFCURVE",
"323 30 CURVE SMOOTH",
"323 60 OFFCURVE",
"348 62 OFFCURVE",
"357 62 CURVE SMOOTH",
"385 62 LINE",
"385 479 LINE",
"374 417 OFFCURVE",
"151 85 OFFCURVE",
"150 83 CURVE",
"146 79 OFFCURVE",
"142 77 OFFCURVE",
"138 74 CURVE",
"138 62 LINE",
"163 62 LINE SMOOTH",
"183 62 OFFCURVE",
"200 56 OFFCURVE",
"200 31 CURVE SMOOTH",
"200 13 OFFCURVE",
"190 0 OFFCURVE",
"164 0 CURVE SMOOTH",
"53 0 LINE SMOOTH",
"23 0 OFFCURVE",
"18 20 OFFCURVE",
"18 30 CURVE SMOOTH"
);
}
);
width = 525;
}
);
unicode = 0418;
},
{
glyphname = "Iishort-cy";
layers = (
{
components = (
{
name = "Ii-cy";
}
);
layerId = master01;
paths = (
{
closed = 1;
nodes = (
"110 763 OFFCURVE",
"111 766 OFFCURVE",
"112 770 CURVE",
"111 775 OFFCURVE",
"110 781 OFFCURVE",
"110 787 CURVE SMOOTH",
"110 812 OFFCURVE",
"130 837 OFFCURVE",
"159 837 CURVE SMOOTH",
"188 837 OFFCURVE",
"209 813 OFFCURVE",
"209 787 CURVE SMOOTH",
"209 778 OFFCURVE",
"207 759 OFFCURVE",
"186 744 CURVE",
"207 737 OFFCURVE",
"234 737 OFFCURVE",
"261 737 CURVE SMOOTH",
"266 737 LINE SMOOTH",
"292 737 OFFCURVE",
"318 737 OFFCURVE",
"338 744 CURVE",
"321 755 OFFCURVE",
"314 771 OFFCURVE",
"314 787 CURVE SMOOTH",
"314 812 OFFCURVE",
"333 837 OFFCURVE",
"364 837 CURVE SMOOTH",
"389 837 OFFCURVE",
"413 816 OFFCURVE",
"413 787 CURVE SMOOTH",
"413 780 OFFCURVE",
"413 777 OFFCURVE",
"411 770 CURVE",
"413 764 OFFCURVE",
"413 762 OFFCURVE",
"413 756 CURVE SMOOTH",
"413 734 OFFCURVE",
"402 716 OFFCURVE",
"392 706 CURVE SMOOTH",
"364 679 OFFCURVE",
"315 673 OFFCURVE",
"261 673 CURVE SMOOTH",
"193 673 OFFCURVE",
"110 685 OFFCURVE",
"110 756 CURVE SMOOTH"
);
}
);
width = 525;
}
);
unicode = 0419;
},
{
glyphname = "Iigrave-cy";
layers = (
{
components = (
{
name = "Ii-cy";
}
);
layerId = master01;
paths = (
{
closed = 1;
nodes = (
"133 788 OFFCURVE",
"145 807 OFFCURVE",
"167 807 CURVE SMOOTH",
"181 807 OFFCURVE",
"228 787 OFFCURVE",
"320 757 CURVE SMOOTH",
"334 752 OFFCURVE",
"349 745 OFFCURVE",
"349 727 CURVE SMOOTH",
"349 717 OFFCURVE",
"343 686 OFFCURVE",
"317 686 CURVE SMOOTH",
"311 686 OFFCURVE",
"159 734 OFFCURVE",
"146 745 CURVE",
"138 751 OFFCURVE",
"133 759 OFFCURVE",
"133 772 CURVE SMOOTH"
);
}
);
width = 525;
}
);
unicode = 040D;
},
{
glyphname = "Iishorttail-cy";
layers = (
{
layerId = master01;
paths = (
{
closed = 1;
nodes = (
"18 60 OFFCURVE",
"44 62 OFFCURVE",
"53 62 CURVE SMOOTH",
"81 62 LINE",
"81 549 LINE",
"55 549 LINE SMOOTH",
"36 549 OFFCURVE",
"18 555 OFFCURVE",
"18 579 CURVE SMOOTH",
"18 595 OFFCURVE",
"25 611 OFFCURVE",
"53 611 CURVE SMOOTH",
"164 611 LINE SMOOTH",
"196 611 OFFCURVE",
"200 591 OFFCURVE",
"200 580 CURVE SMOOTH",
"200 551 OFFCURVE",
"175 549 OFFCURVE",
"165 549 CURVE SMOOTH",
"138 549 LINE",
"138 132 LINE",
"145 170 OFFCURVE",
"225 304 OFFCURVE",
"362 512 CURVE SMOOTH",
"371 527 OFFCURVE",
"374 530 OFFCURVE",
"385 537 CURVE",
"385 549 LINE",
"360 549 LINE SMOOTH",
"340 549 OFFCURVE",
"323 555 OFFCURVE",
"323 579 CURVE SMOOTH",
"323 595 OFFCURVE",
"330 611 OFFCURVE",
"358 611 CURVE SMOOTH",
"469 611 LINE SMOOTH",
"501 611 OFFCURVE",
"505 591 OFFCURVE",
"505 580 CURVE SMOOTH",
"505 554 OFFCURVE",
"486 549 OFFCURVE",
"468 549 CURVE SMOOTH",
"442 549 LINE",
"442 62 LINE",
"471 62 LINE SMOOTH",
"514 62 OFFCURVE",
"511 35 OFFCURVE",
"511 23 CURVE SMOOTH",
"511 -128 LINE SMOOTH",
"511 -161 OFFCURVE",
"495 -166 OFFCURVE",
"483 -166 CURVE SMOOTH",
"474 -166 OFFCURVE",
"456 -161 OFFCURVE",
"455 -133 CURVE SMOOTH",
"455 0 LINE",
"358 0 LINE SMOOTH",
"327 0 OFFCURVE",
"323 20 OFFCURVE",
"323 30 CURVE SMOOTH",
"323 60 OFFCURVE",
"348 62 OFFCURVE",
"358 62 CURVE SMOOTH",
"385 62 LINE",
"385 479 LINE",
"374 417 OFFCURVE",
"151 84 OFFCURVE",
"150 84 CURVE",
"147 80 OFFCURVE",
"142 77 OFFCURVE",
"138 74 CURVE",
"138 62 LINE",
"163 62 LINE SMOOTH",
"183 62 OFFCURVE",
"200 56 OFFCURVE",
"200 31 CURVE SMOOTH",
"200 13 OFFCURVE",
"190 0 OFFCURVE",
"164 0 CURVE SMOOTH",
"53 0 LINE SMOOTH",
"23 0 OFFCURVE",
"18 20 OFFCURVE",
"18 30 CURVE SMOOTH"
);
},
{
closed = 1;
nodes = (
"110 763 OFFCURVE",
"111 766 OFFCURVE",
"112 770 CURVE",
"111 775 OFFCURVE",
"110 781 OFFCURVE",
"110 787 CURVE SMOOTH",
"110 812 OFFCURVE",
"130 837 OFFCURVE",
"159 837 CURVE SMOOTH",
"186 837 OFFCURVE",
"209 816 OFFCURVE",
"209 787 CURVE SMOOTH",
"209 778 OFFCURVE",
"207 759 OFFCURVE",
"185 744 CURVE",
"207 737 OFFCURVE",
"234 737 OFFCURVE",
"262 737 CURVE SMOOTH",
"266 737 LINE SMOOTH",
"292 737 OFFCURVE",
"318 737 OFFCURVE",
"338 744 CURVE",
"321 755 OFFCURVE",
"314 771 OFFCURVE",
"314 787 CURVE SMOOTH",
"314 812 OFFCURVE",
"333 837 OFFCURVE",
"364 837 CURVE SMOOTH",
"389 837 OFFCURVE",
"413 816 OFFCURVE",
"413 787 CURVE SMOOTH",
"413 780 OFFCURVE",
"413 777 OFFCURVE",
"411 770 CURVE",
"413 764 OFFCURVE",
"413 762 OFFCURVE",
"413 756 CURVE SMOOTH",
"413 746 OFFCURVE",
"410 724 OFFCURVE",
"392 707 CURVE SMOOTH",
"364 679 OFFCURVE",
"315 673 OFFCURVE",
"261 673 CURVE SMOOTH",
"193 673 OFFCURVE",
"110 685 OFFCURVE",
"110 756 CURVE SMOOTH"
);
}
);
width = 525;
}
);
unicode = 048A;
},
{
glyphname = "Kje-cy";
layers = (
{
components = (
{
name = K;
}
);
layerId = master01;
paths = (
{
closed = 1;
nodes = (
"203 749 OFFCURVE",
"224 754 OFFCURVE",
"235 758 CURVE SMOOTH",
"376 806 OFFCURVE",
"375 807 OFFCURVE",
"386 807 CURVE SMOOTH",
"403 807 OFFCURVE",
"420 792 OFFCURVE",
"420 772 CURVE SMOOTH",
"420 750 OFFCURVE",
"403 741 OFFCURVE",
"388 736 CURVE SMOOTH",
"252 690 OFFCURVE",
"242 686 OFFCURVE",
"235 686 CURVE SMOOTH",
"209 686 OFFCURVE",
"203 718 OFFCURVE",
"203 727 CURVE SMOOTH"
);
}
);
width = 525;
}
);
unicode = 040C;
},
{
glyphname = "El-cy";
layers = (
{
layerId = master01;
paths = (
{
closed = 1;
nodes = (
"19 109 OFFCURVE",
"40 127 OFFCURVE",
"64 127 CURVE SMOOTH",
"85 127 OFFCURVE",
"108 110 OFFCURVE",
"108 83 CURVE SMOOTH",
"108 63 OFFCURVE",
"96 53 OFFCURVE",
"94 50 CURVE",
"94 49 LINE",
"99 47 OFFCURVE",
"104 46 OFFCURVE",
"108 46 CURVE SMOOTH",
"153 46 OFFCURVE",
"160 124 OFFCURVE",
"165 343 CURVE SMOOTH",
"165 405 LINE SMOOTH",
"166 427 OFFCURVE",
"166 427 OFFCURVE",
"166 436 CURVE SMOOTH",
"166 549 LINE",
"138 549 LINE SMOOTH",
"118 549 OFFCURVE",
"100 555 OFFCURVE",
"100 579 CURVE SMOOTH",
"100 594 OFFCURVE",
"107 610 OFFCURVE",
"134 611 CURVE SMOOTH",
"471 611 LINE SMOOTH",
"499 611 OFFCURVE",
"505 592 OFFCURVE",
"505 580 CURVE SMOOTH",
"505 551 OFFCURVE",
"480 549 OFFCURVE",
"471 549 CURVE SMOOTH",
"443 549 LINE",
"443 62 LINE",
"468 62 LINE SMOOTH",
"488 62 OFFCURVE",
"505 56 OFFCURVE",
"505 31 CURVE SMOOTH",
"505 3 OFFCURVE",
"485 0 OFFCURVE",
"469 0 CURVE SMOOTH",
"346 0 LINE SMOOTH",
"314 0 OFFCURVE",
"310 19 OFFCURVE",
"310 30 CURVE SMOOTH",
"310 61 OFFCURVE",
"335 62 OFFCURVE",
"345 62 CURVE SMOOTH",
"373 62 LINE",
"373 549 LINE",
"223 549 LINE",
"222 530 OFFCURVE",
"222 530 OFFCURVE",
"222 502 CURVE SMOOTH",
"222 373 LINE",
"221 358 LINE",
"221 340 LINE",
"216 103 OFFCURVE",
"214 -11 OFFCURVE",
"102 -11 CURVE SMOOTH",
"36 -11 OFFCURVE",
"19 47 OFFCURVE",
"19 80 CURVE SMOOTH"
);
}
);
width = 525;
}
);
unicode = 041B;
},
{
glyphname = "En-cy";
layers = (
{
layerId = master01;
paths = (
{
closed = 1;
nodes = (
"18 61 OFFCURVE",
"44 62 OFFCURVE",
"53 62 CURVE SMOOTH",
"81 62 LINE",
"81 549 LINE",
"56 549 LINE SMOOTH",
"36 549 OFFCURVE",
"18 555 OFFCURVE",
"18 579 CURVE SMOOTH",
"18 607 OFFCURVE",
"39 611 OFFCURVE",
"55 611 CURVE SMOOTH",
"178 611 LINE SMOOTH",
"209 611 OFFCURVE",
"214 592 OFFCURVE",
"214 580 CURVE SMOOTH",
"214 551 OFFCURVE",
"188 549 OFFCURVE",
"179 549 CURVE SMOOTH",
"151 549 LINE",
"151 348 LINE",
"372 348 LINE",
"372 549 LINE",
"347 549 LINE SMOOTH",
"327 549 OFFCURVE",
"309 555 OFFCURVE",
"309 580 CURVE SMOOTH",
"309 591 OFFCURVE",
"314 611 OFFCURVE",
"346 611 CURVE SMOOTH",
"469 611 LINE SMOOTH",
"501 611 OFFCURVE",
"505 591 OFFCURVE",
"505 580 CURVE SMOOTH",
"505 552 OFFCURVE",
"484 549 OFFCURVE",
"468 549 CURVE SMOOTH",
"442 549 LINE",
"442 62 LINE",
"468 62 LINE SMOOTH",
"493 62 OFFCURVE",
"505 51 OFFCURVE",
"505 31 CURVE SMOOTH",
"505 5 OFFCURVE",
"486 0 OFFCURVE",
"468 0 CURVE SMOOTH",
"346 0 LINE SMOOTH",
"314 0 OFFCURVE",
"309 19 OFFCURVE",
"309 30 CURVE SMOOTH",
"309 61 OFFCURVE",
"335 62 OFFCURVE",
"345 62 CURVE SMOOTH",
"372 62 LINE",
"372 287 LINE",
"151 287 LINE",
"151 62 LINE",
"177 62 LINE SMOOTH",
"209 62 OFFCURVE",
"214 43 OFFCURVE",
"214 31 CURVE SMOOTH",
"214 5 OFFCURVE",
"194 0 OFFCURVE",
"177 0 CURVE SMOOTH",
"54 0 LINE SMOOTH",
"22 0 OFFCURVE",
"18 19 OFFCURVE",
"18 30 CURVE SMOOTH"
);
}
);
width = 525;
}
);
unicode = 041D;
},
{
glyphname = "Pe-cy";
layers = (
{
layerId = master01;
paths = (
{
closed = 1;
nodes = (
"18 61 OFFCURVE",
"44 62 OFFCURVE",
"53 62 CURVE SMOOTH",
"81 62 LINE",
"81 549 LINE",
"55 549 LINE SMOOTH",
"39 549 OFFCURVE",
"18 552 OFFCURVE",
"18 580 CURVE SMOOTH",
"18 592 OFFCURVE",
"23 611 OFFCURVE",
"53 611 CURVE SMOOTH",
"470 611 LINE SMOOTH",
"501 611 OFFCURVE",
"505 591 OFFCURVE",
"505 580 CURVE SMOOTH",
"505 551 OFFCURVE",
"479 549 OFFCURVE",
"470 549 CURVE SMOOTH",
"442 549 LINE",
"442 62 LINE",
"468 62 LINE SMOOTH",
"500 62 OFFCURVE",
"505 43 OFFCURVE",
"505 31 CURVE SMOOTH",
"505 5 OFFCURVE",
"486 0 OFFCURVE",
"468 0 CURVE SMOOTH",
"346 0 LINE SMOOTH",
"314 0 OFFCURVE",
"309 19 OFFCURVE",
"309 30 CURVE SMOOTH",
"309 61 OFFCURVE",
"335 62 OFFCURVE",
"345 62 CURVE SMOOTH",
"372 62 LINE",
"372 549 LINE",
"151 549 LINE",
"151 62 LINE",
"177 62 LINE SMOOTH",
"209 62 OFFCURVE",
"214 43 OFFCURVE",
"214 31 CURVE SMOOTH",
"214 5 OFFCURVE",
"194 0 OFFCURVE",
"177 0 CURVE SMOOTH",
"54 0 LINE SMOOTH",
"22 0 OFFCURVE",
"18 19 OFFCURVE",
"18 30 CURVE SMOOTH"
);
}
);
width = 525;
}
);
unicode = 041F;
},
{
glyphname = "U-cy";
layers = (
{
layerId = master01;
paths = (
{
closed = 1;
nodes = (
"25 606 OFFCURVE",
"44 611 OFFCURVE",
"60 611 CURVE SMOOTH",
"167 611 LINE SMOOTH",
"196 611 OFFCURVE",
"204 596 OFFCURVE",
"204 580 CURVE SMOOTH",
"204 565 OFFCURVE",
"197 549 OFFCURVE",
"168 549 CURVE SMOOTH",
"156 549 LINE",
"232 372 LINE",
"258 308 LINE",
"273 266 LINE",
"277 253 LINE",
"285 295 OFFCURVE",
"360 500 OFFCURVE",
"375 549 CURVE",
"356 549 LINE SMOOTH",
"326 549 OFFCURVE",
"321 567 OFFCURVE",
"321 580 CURVE SMOOTH",
"321 591 OFFCURVE",
"325 611 OFFCURVE",
"357 611 CURVE SMOOTH",
"467 611 LINE SMOOTH",
"498 611 OFFCURVE",
"502 591 OFFCURVE",
"502 580 CURVE SMOOTH",
"502 565 OFFCURVE",
"495 549 OFFCURVE",
"466 549 CURVE SMOOTH",
"447 549 LINE",
"334 227 LINE SMOOTH",
"288 102 OFFCURVE",
"242 -11 OFFCURVE",
"181 -11 CURVE SMOOTH",
"124 -11 OFFCURVE",
"92 49 OFFCURVE",
"92 99 CURVE SMOOTH",
"92 137 OFFCURVE",
"121 146 OFFCURVE",
"137 146 CURVE SMOOTH",
"163 146 OFFCURVE",
"181 125 OFFCURVE",
"181 102 CURVE SMOOTH",
"181 87 OFFCURVE",
"174 77 OFFCURVE",
"167 70 CURVE",
"172 64 OFFCURVE",
"174 57 OFFCURVE",
"183 56 CURVE",
"187 57 LINE",
"191 60 LINE",
"195 64 LINE",
"206 81 LINE",
"220 111 LINE",
"248 187 LINE",
"244 183 LINE",
"82 549 LINE",
"62 549 LINE SMOOTH",
"30 549 OFFCURVE",
"25 567 OFFCURVE",
"25 580 CURVE SMOOTH"
);
}
);
width = 525;
}
);
unicode = 0423;
},
{
glyphname = "Ushort-cy";
layers = (
{
components = (
{
name = "U-cy";
}
);
layerId = master01;
paths = (
{
closed = 1;
nodes = (
"109 763 OFFCURVE",
"111 766 OFFCURVE",
"112 770 CURVE",
"111 775 OFFCURVE",
"109 781 OFFCURVE",
"109 787 CURVE SMOOTH",
"109 812 OFFCURVE",
"130 837 OFFCURVE",
"159 837 CURVE SMOOTH",
"189 837 OFFCURVE",
"209 813 OFFCURVE",
"209 787 CURVE SMOOTH",
"209 766 OFFCURVE",
"198 753 OFFCURVE",
"185 744 CURVE",
"207 737 OFFCURVE",
"234 737 OFFCURVE",
"261 737 CURVE SMOOTH",
"266 737 LINE SMOOTH",
"292 737 OFFCURVE",
"317 737 OFFCURVE",
"337 744 CURVE",
"324 754 OFFCURVE",
"313 766 OFFCURVE",
"313 787 CURVE SMOOTH",
"313 817 OFFCURVE",
"339 837 OFFCURVE",
"363 837 CURVE SMOOTH",
"393 837 OFFCURVE",
"413 812 OFFCURVE",
"413 787 CURVE SMOOTH",
"413 780 OFFCURVE",
"412 776 OFFCURVE",
"412 771 CURVE SMOOTH",
"412 766 OFFCURVE",
"413 763 OFFCURVE",
"413 757 CURVE SMOOTH",
"413 739 OFFCURVE",
"406 693 OFFCURVE",
"333 679 CURVE SMOOTH",
"309 674 OFFCURVE",
"283 673 OFFCURVE",
"258 673 CURVE SMOOTH",
"250 673 LINE SMOOTH",
"132 673 OFFCURVE",
"109 723 OFFCURVE",
"109 756 CURVE SMOOTH"
);
}
);
width = 525;
}
);
unicode = 040E;
},
{
glyphname = "Ef-cy";
layers = (
{
layerId = master01;
paths = (
{
closed = 1;
nodes = (
"18 473 OFFCURVE",
"127 508 OFFCURVE",
"227 512 CURVE",
"227 549 LINE",
"190 549 LINE SMOOTH",
"170 549 OFFCURVE",
"151 553 OFFCURVE",
"151 580 CURVE SMOOTH",
"151 609 OFFCURVE",
"176 611 OFFCURVE",
"186 611 CURVE SMOOTH",
"337 611 LINE SMOOTH",
"369 611 OFFCURVE",
"373 591 OFFCURVE",
"373 580 CURVE SMOOTH",
"373 551 OFFCURVE",
"347 549 OFFCURVE",
"337 549 CURVE SMOOTH",
"297 549 LINE",
"297 512 LINE",
"398 507 OFFCURVE",
"505 473 OFFCURVE",
"505 317 CURVE SMOOTH",
"505 162 OFFCURVE",
"396 128 OFFCURVE",
"297 123 CURVE",
"297 62 LINE",
"333 62 LINE SMOOTH",
"354 62 OFFCURVE",
"372 58 OFFCURVE",
"372 31 CURVE SMOOTH",
"372 2 OFFCURVE",
"347 0 OFFCURVE",
"338 0 CURVE SMOOTH",
"188 0 LINE SMOOTH",
"169 0 OFFCURVE",
"151 5 OFFCURVE",
"151 31 CURVE SMOOTH",
"151 60 OFFCURVE",
"176 62 OFFCURVE",
"187 62 CURVE SMOOTH",
"227 62 LINE",
"227 123 LINE",
"127 127 OFFCURVE",
"18 162 OFFCURVE",
"18 317 CURVE SMOOTH"
);
},
{
closed = 1;
nodes = (
"89 210 OFFCURVE",
"169 189 OFFCURVE",
"227 185 CURVE",
"227 450 LINE",
"110 444 OFFCURVE",
"88 375 OFFCURVE",
"88 316 CURVE SMOOTH"
);
},
{
closed = 1;
nodes = (
"413 192 OFFCURVE",
"435 263 OFFCURVE",
"435 316 CURVE SMOOTH",
"435 373 OFFCURVE",
"413 443 OFFCURVE",
"297 450 CURVE",
"297 185 LINE"
);
}
);
width = 525;
}
);
unicode = 0424;
},
{
glyphname = "Che-cy";
layers = (
{
layerId = master01;
paths = (
{
closed = 1;
nodes = (
"18 607 OFFCURVE",
"39 611 OFFCURVE",
"55 611 CURVE SMOOTH",
"178 611 LINE SMOOTH",
"209 611 OFFCURVE",
"214 592 OFFCURVE",
"214 580 CURVE SMOOTH",
"214 551 OFFCURVE",
"188 549 OFFCURVE",
"179 549 CURVE SMOOTH",
"151 549 LINE",
"151 407 LINE SMOOTH",
"151 388 OFFCURVE",
"154 303 OFFCURVE",
"223 303 CURVE SMOOTH",
"372 303 LINE",
"372 549 LINE",
"347 549 LINE SMOOTH",
"327 549 OFFCURVE",
"309 555 OFFCURVE",
"309 580 CURVE SMOOTH",
"309 591 OFFCURVE",
"314 611 OFFCURVE",
"346 611 CURVE SMOOTH",
"469 611 LINE SMOOTH",
"501 611 OFFCURVE",
"505 591 OFFCURVE",
"505 580 CURVE SMOOTH",
"505 552 OFFCURVE",
"484 549 OFFCURVE",
"468 549 CURVE SMOOTH",
"442 549 LINE",
"442 62 LINE",
"468 62 LINE SMOOTH",
"493 62 OFFCURVE",
"505 51 OFFCURVE",
"505 31 CURVE SMOOTH",
"505 5 OFFCURVE",
"486 0 OFFCURVE",
"468 0 CURVE SMOOTH",
"346 0 LINE SMOOTH",
"314 0 OFFCURVE",
"309 19 OFFCURVE",
"309 30 CURVE SMOOTH",
"309 61 OFFCURVE",
"335 62 OFFCURVE",
"345 62 CURVE SMOOTH",
"372 62 LINE",
"372 242 LINE",
"227 242 LINE SMOOTH",
"199 242 OFFCURVE",
"156 242 OFFCURVE",
"116 293 CURVE SMOOTH",
"88 330 OFFCURVE",
"81 370 OFFCURVE",
"81 412 CURVE SMOOTH",
"81 549 LINE",
"56 549 LINE SMOOTH",
"36 549 OFFCURVE",
"18 555 OFFCURVE",
"18 579 CURVE SMOOTH"
);
}
);
width = 525;
}
);
unicode = 0427;
},
{
glyphname = "Tse-cy";
layers = (
{
layerId = master01;
paths = (
{
closed = 1;
nodes = (
"18 60 OFFCURVE",
"44 62 OFFCURVE",
"53 62 CURVE SMOOTH",
"81 62 LINE",
"81 549 LINE",
"55 549 LINE SMOOTH",
"36 549 OFFCURVE",
"18 555 OFFCURVE",
"18 579 CURVE SMOOTH",
"18 607 OFFCURVE",
"39 611 OFFCURVE",
"55 611 CURVE SMOOTH",
"178 611 LINE SMOOTH",
"209 611 OFFCURVE",
"214 592 OFFCURVE",
"214 580 CURVE SMOOTH",
"214 551 OFFCURVE",
"188 549 OFFCURVE",
"179 549 CURVE SMOOTH",
"151 549 LINE",
"151 62 LINE",
"372 62 LINE",
"372 549 LINE",
"347 549 LINE SMOOTH",
"327 549 OFFCURVE",
"309 555 OFFCURVE",
"309 580 CURVE SMOOTH",
"309 591 OFFCURVE",
"314 611 OFFCURVE",
"345 611 CURVE SMOOTH",
"469 611 LINE SMOOTH",
"501 611 OFFCURVE",
"505 591 OFFCURVE",
"505 580 CURVE SMOOTH",
"505 550 OFFCURVE",
"479 549 OFFCURVE",
"469 549 CURVE SMOOTH",
"442 549 LINE",
"442 62 LINE",
"471 62 LINE SMOOTH",
"514 62 OFFCURVE",
"511 35 OFFCURVE",
"511 23 CURVE SMOOTH",
"511 -128 LINE SMOOTH",
"511 -161 OFFCURVE",
"495 -166 OFFCURVE",
"483 -166 CURVE SMOOTH",
"474 -166 OFFCURVE",
"456 -161 OFFCURVE",
"455 -133 CURVE SMOOTH",
"455 0 LINE",
"56 0 LINE SMOOTH",
"38 0 OFFCURVE",
"18 4 OFFCURVE",
"18 31 CURVE SMOOTH"
);
}
);
width = 525;
}
);
unicode = 0426;
},
{
glyphname = "Sha-cy";
layers = (
{
layerId = master01;
paths = (
{
closed = 1;
nodes = (
"10 60 OFFCURVE",
"32 62 OFFCURVE",
"47 62 CURVE SMOOTH",
"53 62 LINE",
"53 549 LINE",
"47 549 LINE SMOOTH",
"15 549 OFFCURVE",
"10 568 OFFCURVE",
"10 580 CURVE SMOOTH",
"10 596 OFFCURVE",
"18 611 OFFCURVE",
"46 611 CURVE SMOOTH",
"116 611 LINE SMOOTH",
"143 611 OFFCURVE",
"153 596 OFFCURVE",
"153 582 CURVE SMOOTH",
"153 566 OFFCURVE",
"145 549 OFFCURVE",
"116 549 CURVE SMOOTH",
"110 549 LINE",
"110 62 LINE",
"234 62 LINE",
"234 549 LINE",
"225 549 OFFCURVE",
"215 548 OFFCURVE",
"206 553 CURVE SMOOTH",
"196 559 OFFCURVE",
"191 569 OFFCURVE",
"191 579 CURVE SMOOTH",
"191 591 OFFCURVE",
"197 611 OFFCURVE",
"227 611 CURVE SMOOTH",
"298 611 LINE SMOOTH",
"324 611 OFFCURVE",
"334 596 OFFCURVE",
"334 581 CURVE SMOOTH",
"334 566 OFFCURVE",
"327 549 OFFCURVE",
"297 549 CURVE SMOOTH",
"291 549 LINE",
"291 62 LINE",
"415 62 LINE",
"415 549 LINE",
"409 549 LINE SMOOTH",
"382 549 OFFCURVE",
"372 564 OFFCURVE",
"372 578 CURVE SMOOTH",
"372 593 OFFCURVE",
"379 611 OFFCURVE",
"408 611 CURVE SMOOTH",
"479 611 LINE SMOOTH",
"506 611 OFFCURVE",
"514 596 OFFCURVE",
"514 580 CURVE SMOOTH",
"514 564 OFFCURVE",
"507 549 OFFCURVE",
"478 549 CURVE SMOOTH",
"472 549 LINE",
"472 62 LINE",
"478 62 LINE SMOOTH",
"498 62 OFFCURVE",
"514 55 OFFCURVE",
"514 31 CURVE SMOOTH",
"514 16 OFFCURVE",
"507 0 OFFCURVE",
"479 0 CURVE SMOOTH",
"46 0 LINE SMOOTH",
"18 0 OFFCURVE",
"10 15 OFFCURVE",
"10 31 CURVE SMOOTH"
);
}
);
width = 525;
}
);
unicode = 0428;
},
{
glyphname = "Shcha-cy";
layers = (
{
layerId = master01;
paths = (
{
closed = 1;
nodes = (
"10 60 OFFCURVE",
"33 62 OFFCURVE",
"48 62 CURVE SMOOTH",
"53 62 LINE",
"53 549 LINE",
"47 549 LINE SMOOTH",
"15 549 OFFCURVE",
"10 568 OFFCURVE",
"10 580 CURVE SMOOTH",
"10 596 OFFCURVE",
"18 611 OFFCURVE",
"46 611 CURVE SMOOTH",
"117 611 LINE SMOOTH",
"143 611 OFFCURVE",
"152 596 OFFCURVE",
"152 581 CURVE SMOOTH",
"152 566 OFFCURVE",
"145 549 OFFCURVE",
"116 549 CURVE SMOOTH",
"110 549 LINE",
"110 62 LINE",
"234 62 LINE",
"234 549 LINE",
"228 549 LINE SMOOTH",
"201 549 OFFCURVE",
"191 564 OFFCURVE",
"191 578 CURVE SMOOTH",
"191 593 OFFCURVE",
"199 611 OFFCURVE",
"228 611 CURVE SMOOTH",
"298 611 LINE SMOOTH",
"325 611 OFFCURVE",
"334 596 OFFCURVE",
"334 581 CURVE SMOOTH",
"334 566 OFFCURVE",
"327 549 OFFCURVE",
"297 549 CURVE SMOOTH",
"291 549 LINE",
"291 62 LINE",
"415 62 LINE",
"415 549 LINE",
"409 549 LINE SMOOTH",
"382 549 OFFCURVE",
"372 564 OFFCURVE",
"372 578 CURVE SMOOTH",
"372 593 OFFCURVE",
"379 611 OFFCURVE",
"408 611 CURVE SMOOTH",
"479 611 LINE SMOOTH",
"505 611 OFFCURVE",
"515 596 OFFCURVE",
"515 581 CURVE SMOOTH",
"515 566 OFFCURVE",
"507 549 OFFCURVE",
"478 549 CURVE SMOOTH",
"472 549 LINE",
"472 62 LINE",
"485 62 LINE SMOOTH",
"519 62 OFFCURVE",
"519 37 OFFCURVE",
"519 24 CURVE SMOOTH",
"519 -130 LINE SMOOTH",
"519 -161 OFFCURVE",
"502 -166 OFFCURVE",
"490 -166 CURVE SMOOTH",
"479 -166 OFFCURVE",
"463 -160 OFFCURVE",
"462 -131 CURVE SMOOTH",
"462 0 LINE",
"48 0 LINE SMOOTH",
"28 0 OFFCURVE",
"10 5 OFFCURVE",
"10 31 CURVE SMOOTH"
);
}
);
width = 525;
}
);
unicode = 0429;
},
{
glyphname = "Dzhe-cy";
layers = (
{
layerId = master01;
paths = (
{
closed = 1;
nodes = (
"18 60 OFFCURVE",
"42 62 OFFCURVE",
"56 62 CURVE SMOOTH",
"81 62 LINE",
"81 549 LINE",
"55 549 LINE SMOOTH",
"36 549 OFFCURVE",
"18 555 OFFCURVE",
"18 579 CURVE SMOOTH",
"18 607 OFFCURVE",
"39 611 OFFCURVE",
"55 611 CURVE SMOOTH",
"178 611 LINE SMOOTH",
"209 611 OFFCURVE",
"214 592 OFFCURVE",
"214 580 CURVE SMOOTH",
"214 551 OFFCURVE",
"188 549 OFFCURVE",
"179 549 CURVE SMOOTH",
"151 549 LINE",
"151 62 LINE",
"372 62 LINE",
"372 549 LINE",
"347 549 LINE SMOOTH",
"327 549 OFFCURVE",
"309 555 OFFCURVE",
"309 580 CURVE SMOOTH",
"309 591 OFFCURVE",
"314 611 OFFCURVE",
"345 611 CURVE SMOOTH",
"469 611 LINE SMOOTH",
"501 611 OFFCURVE",
"505 591 OFFCURVE",
"505 581 CURVE SMOOTH",
"505 550 OFFCURVE",
"480 549 OFFCURVE",
"470 549 CURVE SMOOTH",
"442 549 LINE",
"442 62 LINE",
"467 62 LINE SMOOTH",
"487 62 OFFCURVE",
"505 56 OFFCURVE",
"505 31 CURVE SMOOTH",
"505 19 OFFCURVE",
"500 1 OFFCURVE",
"472 0 CURVE SMOOTH",
"290 0 LINE",
"290 -134 LINE",
"289 -162 OFFCURVE",
"270 -166 OFFCURVE",
"262 -166 CURVE SMOOTH",
"251 -166 OFFCURVE",
"233 -160 OFFCURVE",
"233 -129 CURVE SMOOTH",
"233 0 LINE",
"51 0 LINE SMOOTH",
"24 0 OFFCURVE",
"18 18 OFFCURVE",
"18 31 CURVE SMOOTH"
);
}
);
width = 525;
}
);
unicode = 040F;
},
{
glyphname = "Softsign-cy";
layers = (
{
layerId = master01;
paths = (
{
closed = 1;
nodes = (
"45 60 OFFCURVE",
"67 62 OFFCURVE",
"83 62 CURVE SMOOTH",
"139 62 LINE",
"139 549 LINE",
"82 549 LINE SMOOTH",
"67 549 OFFCURVE",
"45 551 OFFCURVE",
"45 580 CURVE SMOOTH",
"45 598 OFFCURVE",
"55 611 OFFCURVE",
"81 611 CURVE SMOOTH",
"267 611 LINE SMOOTH",
"295 611 OFFCURVE",
"303 596 OFFCURVE",
"303 580 CURVE SMOOTH",
"303 551 OFFCURVE",
"281 549 OFFCURVE",
"266 549 CURVE SMOOTH",
"209 549 LINE",
"209 348 LINE",
"326 348 LINE SMOOTH",
"424 348 OFFCURVE",
"465 252 OFFCURVE",
"465 174 CURVE SMOOTH",
"465 118 OFFCURVE",
"438 0 OFFCURVE",
"327 0 CURVE SMOOTH",
"80 0 LINE SMOOTH",
"51 0 OFFCURVE",
"45 17 OFFCURVE",
"45 30 CURVE SMOOTH"
);
},
{
closed = 1;
nodes = (
"302 62 LINE SMOOTH",
"358 62 OFFCURVE",
"395 114 OFFCURVE",
"395 174 CURVE SMOOTH",
"395 234 OFFCURVE",
"358 287 OFFCURVE",
"302 287 CURVE SMOOTH",
"209 287 LINE",
"209 62 LINE"
);
}
);
width = 525;
}
);
unicode = 042C;
},
{
glyphname = "Hardsign-cy";
layers = (
{
layerId = master01;
paths = (
{
closed = 1;
nodes = (
"21 570 LINE SMOOTH",
"21 584 OFFCURVE",
"19 611 OFFCURVE",
"56 611 CURVE SMOOTH",
"239 611 LINE SMOOTH",
"256 611 OFFCURVE",
"277 606 OFFCURVE",
"277 580 CURVE SMOOTH",
"277 574 OFFCURVE",
"275 554 OFFCURVE",
"250 549 CURVE",
"250 348 LINE",
"354 348 LINE SMOOTH",
"448 348 OFFCURVE",
"491 256 OFFCURVE",
"491 174 CURVE SMOOTH",
"491 117 OFFCURVE",
"463 0 OFFCURVE",
"352 0 CURVE SMOOTH",
"163 0 LINE SMOOTH",
"137 0 OFFCURVE",
"127 12 OFFCURVE",
"127 31 CURVE SMOOTH",
"127 43 OFFCURVE",
"132 62 OFFCURVE",
"163 62 CURVE SMOOTH",
"180 62 LINE",
"180 549 LINE",
"91 549 LINE",
"91 488 LINE",
"90 457 OFFCURVE",
"70 455 OFFCURVE",
"55 455 CURVE SMOOTH",
"20 455 OFFCURVE",
"21 480 OFFCURVE",
"21 497 CURVE SMOOTH"
);
},
{
closed = 1;
nodes = (
"341 62 LINE SMOOTH",
"391 62 OFFCURVE",
"421 115 OFFCURVE",
"421 174 CURVE SMOOTH",
"421 235 OFFCURVE",
"389 287 OFFCURVE",
"342 287 CURVE SMOOTH",
"250 287 LINE",
"250 62 LINE"
);
}
);
width = 525;
}
);
unicode = 042A;
},
{
glyphname = "Yeru-cy";
layers = (
{
layerId = master01;
paths = (
{
closed = 1;
nodes = (
"11 43 OFFCURVE",
"17 62 OFFCURVE",
"47 62 CURVE SMOOTH",
"61 62 LINE",
"61 549 LINE",
"46 549 LINE SMOOTH",
"33 549 OFFCURVE",
"11 552 OFFCURVE",
"11 581 CURVE SMOOTH",
"11 593 OFFCURVE",
"17 611 OFFCURVE",
"47 611 CURVE SMOOTH",
"146 611 LINE SMOOTH",
"177 611 OFFCURVE",
"181 590 OFFCURVE",
"181 580 CURVE SMOOTH",
"181 566 OFFCURVE",
"174 549 OFFCURVE",
"145 549 CURVE SMOOTH",
"131 549 LINE",
"131 348 LINE",
"226 348 LINE SMOOTH",
"308 348 OFFCURVE",
"354 264 OFFCURVE",
"354 175 CURVE SMOOTH",
"354 106 OFFCURVE",
"323 0 OFFCURVE",
"224 0 CURVE SMOOTH",
"46 0 LINE SMOOTH",
"18 0 OFFCURVE",
"11 16 OFFCURVE",
"11 31 CURVE SMOOTH"
);
},
{
closed = 1;
nodes = (
"213 62 LINE SMOOTH",
"263 62 OFFCURVE",
"284 124 OFFCURVE",
"284 175 CURVE SMOOTH",
"284 219 OFFCURVE",
"266 287 OFFCURVE",
"214 287 CURVE SMOOTH",
"131 287 LINE",
"131 62 LINE"
);
},
{
closed = 1;
nodes = (
"342 42 OFFCURVE",
"348 62 OFFCURVE",
"378 62 CURVE SMOOTH",
"392 62 LINE",
"392 549 LINE",
"378 549 LINE SMOOTH",
"348 549 OFFCURVE",
"342 567 OFFCURVE",
"342 580 CURVE SMOOTH",
"342 592 OFFCURVE",
"348 611 OFFCURVE",
"378 611 CURVE SMOOTH",
"477 611 LINE SMOOTH",
"506 611 OFFCURVE",
"512 594 OFFCURVE",
"512 580 CURVE SMOOTH",
"512 553 OFFCURVE",
"492 549 OFFCURVE",
"476 549 CURVE SMOOTH",
"462 549 LINE",
"462 62 LINE",
"476 62 LINE SMOOTH",
"504 62 OFFCURVE",
"512 47 OFFCURVE",
"512 31 CURVE SMOOTH",
"512 16 OFFCURVE",
"505 0 OFFCURVE",
"477 0 CURVE SMOOTH",
"378 0 LINE SMOOTH",
"348 0 OFFCURVE",
"342 18 OFFCURVE",
"342 31 CURVE SMOOTH"
);
}
);
width = 525;
}
);
unicode = 042B;
},
{
glyphname = "Lje-cy";
layers = (
{
layerId = master01;
paths = (
{
closed = 1;
nodes = (
"13 120 OFFCURVE",
"45 127 OFFCURVE",
"58 127 CURVE SMOOTH",
"76 127 OFFCURVE",
"89 117 OFFCURVE",
"97 105 CURVE",
"103 164 OFFCURVE",
"105 230 OFFCURVE",
"105 293 CURVE SMOOTH",
"105 308 LINE",
"106 324 LINE",
"106 417 LINE SMOOTH",
"107 440 OFFCURVE",
"107 440 OFFCURVE",
"107 476 CURVE SMOOTH",
"107 549 LINE",
"95 549 LINE SMOOTH",
"70 550 OFFCURVE",
"60 564 OFFCURVE",
"60 579 CURVE SMOOTH",
"60 610 OFFCURVE",
"86 611 OFFCURVE",
"97 611 CURVE SMOOTH",
"324 611 LINE SMOOTH",
"348 610 OFFCURVE",
"357 596 OFFCURVE",
"357 581 CURVE SMOOTH",
"357 551 OFFCURVE",
"334 549 OFFCURVE",
"320 549 CURVE SMOOTH",
"313 549 LINE",
"313 348 LINE",
"387 348 LINE SMOOTH",
"461 348 OFFCURVE",
"497 261 OFFCURVE",
"497 175 CURVE SMOOTH",
"497 114 OFFCURVE",
"475 0 OFFCURVE",
"386 0 CURVE SMOOTH",
"241 0 LINE SMOOTH",
"234 0 OFFCURVE",
"226 -1 OFFCURVE",
"218 2 CURVE SMOOTH",
"205 7 OFFCURVE",
"199 19 OFFCURVE",
"199 30 CURVE SMOOTH",
"199 60 OFFCURVE",
"221 62 OFFCURVE",
"236 62 CURVE SMOOTH",
"243 62 LINE",
"243 549 LINE",
"163 549 LINE",
"163 524 OFFCURVE",
"164 498 OFFCURVE",
"164 473 CURVE SMOOTH",
"164 420 OFFCURVE",
"163 426 OFFCURVE",
"163 414 CURVE SMOOTH",
"163 321 LINE",
"162 307 LINE",
"162 291 LINE",
"157 126 OFFCURVE",
"165 -11 OFFCURVE",
"74 -11 CURVE SMOOTH",
"25 -11 OFFCURVE",
"13 31 OFFCURVE",
"13 77 CURVE SMOOTH"
);
},
{
closed = 1;
nodes = (
"373 62 LINE SMOOTH",
"416 62 OFFCURVE",
"427 125 OFFCURVE",
"427 172 CURVE SMOOTH",
"427 218 OFFCURVE",
"419 287 OFFCURVE",
"373 287 CURVE SMOOTH",
"313 287 LINE",
"313 62 LINE"
);
}
);
width = 525;
}
);
unicode = 0409;
},
{
glyphname = "Nje-cy";
layers = (
{
layerId = master01;
paths = (
{
closed = 1;
nodes = (
"10 42 OFFCURVE",
"14 62 OFFCURVE",
"47 62 CURVE SMOOTH",
"54 62 LINE",
"54 549 LINE",
"46 549 LINE SMOOTH",
"18 549 OFFCURVE",
"10 564 OFFCURVE",
"10 580 CURVE SMOOTH",
"10 594 OFFCURVE",
"17 611 OFFCURVE",
"46 611 CURVE SMOOTH",
"134 611 LINE SMOOTH",
"164 610 OFFCURVE",
"168 591 OFFCURVE",
"168 580 CURVE SMOOTH",
"168 564 OFFCURVE",
"160 549 OFFCURVE",
"132 549 CURVE SMOOTH",
"124 549 LINE",
"124 348 LINE",
"243 348 LINE",
"243 549 LINE",
"235 549 LINE SMOOTH",
"218 549 OFFCURVE",
"199 555 OFFCURVE",
"199 580 CURVE SMOOTH",
"199 595 OFFCURVE",
"207 611 OFFCURVE",
"234 611 CURVE SMOOTH",
"322 611 LINE SMOOTH",
"353 610 OFFCURVE",
"357 591 OFFCURVE",
"357 580 CURVE SMOOTH",
"357 564 OFFCURVE",
"349 549 OFFCURVE",
"321 549 CURVE SMOOTH",
"313 549 LINE",
"313 348 LINE",
"387 348 LINE SMOOTH",
"461 348 OFFCURVE",
"497 261 OFFCURVE",
"497 175 CURVE SMOOTH",
"497 114 OFFCURVE",
"475 0 OFFCURVE",
"386 0 CURVE SMOOTH",
"234 0 LINE SMOOTH",
"209 0 OFFCURVE",
"199 14 OFFCURVE",
"199 29 CURVE SMOOTH",
"199 59 OFFCURVE",
"221 62 OFFCURVE",
"236 62 CURVE SMOOTH",
"243 62 LINE",
"243 287 LINE",
"124 287 LINE",
"124 62 LINE",
"132 62 LINE SMOOTH",
"150 62 OFFCURVE",
"168 56 OFFCURVE",
"168 31 CURVE SMOOTH",
"168 17 OFFCURVE",
"161 1 OFFCURVE",
"134 0 CURVE SMOOTH",
"45 0 LINE SMOOTH",
"17 0 OFFCURVE",
"10 17 OFFCURVE",
"10 31 CURVE SMOOTH"
);
},
{
closed = 1;
nodes = (
"373 62 LINE SMOOTH",
"416 62 OFFCURVE",
"427 125 OFFCURVE",
"427 172 CURVE SMOOTH",
"427 218 OFFCURVE",
"419 287 OFFCURVE",
"373 287 CURVE SMOOTH",
"313 287 LINE",
"313 62 LINE"
);
}
);
width = 525;
}
);
unicode = 040A;
},
{
glyphname = "Dze-cy";
layers = (
{
layerId = master01;
paths = (
{
closed = 1;
nodes = (
"52 162 LINE SMOOTH",
"52 182 OFFCURVE",
"52 203 OFFCURVE",
"87 203 CURVE SMOOTH",
"119 203 OFFCURVE",
"120 185 OFFCURVE",
"121 168 CURVE SMOOTH",
"122 150 OFFCURVE",
"126 108 OFFCURVE",
"168 81 CURVE SMOOTH",
"208 54 OFFCURVE",
"257 50 OFFCURVE",
"285 50 CURVE SMOOTH",
"364 50 OFFCURVE",
"407 109 OFFCURVE",
"407 161 CURVE SMOOTH",
"407 248 OFFCURVE",
"324 268 OFFCURVE",
"296 274 CURVE SMOOTH",
"282 277 OFFCURVE",
"185 300 OFFCURVE",
"181 301 CURVE SMOOTH",
"98 325 OFFCURVE",
"52 391 OFFCURVE",
"52 458 CURVE SMOOTH",
"52 543 OFFCURVE",
"127 622 OFFCURVE",
"238 622 CURVE SMOOTH",
"283 622 OFFCURVE",
"337 610 OFFCURVE",
"378 575 CURVE",
"386 605 OFFCURVE",
"391 622 OFFCURVE",
"415 622 CURVE SMOOTH",
"445 622 OFFCURVE",
"445 597 OFFCURVE",
"445 581 CURVE SMOOTH",
"445 449 LINE SMOOTH",
"445 429 OFFCURVE",
"445 408 OFFCURVE",
"410 408 CURVE SMOOTH",
"390 408 OFFCURVE",
"379 414 OFFCURVE",
"376 436 CURVE",
"370 467 OFFCURVE",
"355 561 OFFCURVE",
"237 561 CURVE SMOOTH",
"166 561 OFFCURVE",
"117 513 OFFCURVE",
"117 462 CURVE SMOOTH",
"117 415 OFFCURVE",
"155 380 OFFCURVE",
"197 368 CURVE",
"278 350 LINE SMOOTH",
"356 332 OFFCURVE",
"383 325 OFFCURVE",
"424 285 CURVE",
"436 272 OFFCURVE",
"472 230 OFFCURVE",
"472 166 CURVE SMOOTH",
"472 77 OFFCURVE",
"400 -11 OFFCURVE",
"284 -11 CURVE SMOOTH",
"220 -11 OFFCURVE",
"159 5 OFFCURVE",
"119 35 CURVE",
"110 3 OFFCURVE",
"104 -11 OFFCURVE",
"82 -11 CURVE SMOOTH",
"52 -11 OFFCURVE",
"52 14 OFFCURVE",
"52 30 CURVE SMOOTH"
);
}
);
width = 525;
}
);
unicode = 0405;
},
{
glyphname = "E-cy";
layers = (
{
layerId = master01;
paths = (
{
closed = 1;
nodes = (
"40 482 OFFCURVE",
"147 622 OFFCURVE",
"282 622 CURVE SMOOTH",
"342 622 OFFCURVE",
"382 597 OFFCURVE",
"411 577 CURVE",
"424 604 OFFCURVE",
"432 622 OFFCURVE",
"454 622 CURVE SMOOTH",
"482 622 OFFCURVE",
"484 598 OFFCURVE",
"484 584 CURVE SMOOTH",
"484 453 LINE SMOOTH",
"484 421 OFFCURVE",
"468 411 OFFCURVE",
"452 411 CURVE SMOOTH",
"438 411 OFFCURVE",
"424 418 OFFCURVE",
"420 424 CURVE",
"409 438 OFFCURVE",
"414 502 OFFCURVE",
"350 542 CURVE SMOOTH",
"333 552 OFFCURVE",
"311 560 OFFCURVE",
"286 560 CURVE SMOOTH",
"208 560 OFFCURVE",
"119 480 OFFCURVE",
"110 336 CURVE",
"371 336 LINE SMOOTH",
"384 336 OFFCURVE",
"399 334 OFFCURVE",
"405 317 CURVE",
"406 313 OFFCURVE",
"407 309 OFFCURVE",
"407 306 CURVE SMOOTH",
"407 293 OFFCURVE",
"400 281 OFFCURVE",
"387 276 CURVE",
"379 274 OFFCURVE",
"371 275 OFFCURVE",
"363 275 CURVE SMOOTH",
"112 275 LINE",
"130 144 OFFCURVE",
"198 51 OFFCURVE",
"288 51 CURVE SMOOTH",
"293 51 OFFCURVE",
"298 51 OFFCURVE",
"303 52 CURVE",
"416 65 OFFCURVE",
"415 167 OFFCURVE",
"415 167 CURVE",
"419 189 OFFCURVE",
"439 190 OFFCURVE",
"447 190 CURVE SMOOTH",
"451 190 LINE SMOOTH",
"473 190 OFFCURVE",
"483 179 OFFCURVE",
"483 155 CURVE SMOOTH",
"483 76 OFFCURVE",
"403 -11 OFFCURVE",
"282 -11 CURVE SMOOTH",
"138 -11 OFFCURVE",
"40 142 OFFCURVE",
"40 305 CURVE SMOOTH"
);
}
);
width = 525;
}
);
unicode = 0404;
},
{
glyphname = "Ereversed-cy";
layers = (
{
layerId = master01;
paths = (
{
closed = 1;
nodes = (
"40 184 OFFCURVE",
"59 190 OFFCURVE",
"75 190 CURVE SMOOTH",
"116 190 OFFCURVE",
"107 158 OFFCURVE",
"115 132 CURVE SMOOTH",
"131 81 OFFCURVE",
"185 50 OFFCURVE",
"236 50 CURVE SMOOTH",
"271 50 OFFCURVE",
"384 75 OFFCURVE",
"412 275 CURVE",
"160 275 LINE SMOOTH",
"158 275 OFFCURVE",
"155 274 OFFCURVE",
"151 274 CURVE SMOOTH",
"124 274 OFFCURVE",
"117 293 OFFCURVE",
"117 305 CURVE SMOOTH",
"117 335 OFFCURVE",
"140 336 OFFCURVE",
"156 336 CURVE SMOOTH",
"413 336 LINE",
"403 480 OFFCURVE",
"317 560 OFFCURVE",
"238 560 CURVE SMOOTH",
"180 560 OFFCURVE",
"125 517 OFFCURVE",
"111 447 CURVE SMOOTH",
"107 422 OFFCURVE",
"101 412 OFFCURVE",
"74 412 CURVE SMOOTH",
"73 412 LINE SMOOTH",
"39 413 OFFCURVE",
"40 438 OFFCURVE",
"40 453 CURVE SMOOTH",
"40 584 LINE SMOOTH",
"40 592 OFFCURVE",
"39 622 OFFCURVE",
"70 622 CURVE SMOOTH",
"94 622 OFFCURVE",
"103 597 OFFCURVE",
"113 577 CURVE",
"148 602 OFFCURVE",
"187 622 OFFCURVE",
"242 622 CURVE SMOOTH",
"377 622 OFFCURVE",
"484 481 OFFCURVE",
"484 305 CURVE SMOOTH",
"484 132 OFFCURVE",
"379 -11 OFFCURVE",
"242 -11 CURVE SMOOTH",
"119 -11 OFFCURVE",
"40 76 OFFCURVE",
"40 157 CURVE SMOOTH"
);
}
);
width = 525;
}
);
unicode = 042D;
},
{
glyphname = "Yi-cy";
layers = (
{
components = (
{
name = I;
}
);
layerId = master01;
paths = (
{
closed = 1;
nodes = (
"314 797 OFFCURVE",
"336 819 OFFCURVE",
"363 819 CURVE SMOOTH",
"389 819 OFFCURVE",
"413 798 OFFCURVE",
"413 769 CURVE SMOOTH",
"413 740 OFFCURVE",
"390 719 OFFCURVE",
"364 719 CURVE SMOOTH",
"335 719 OFFCURVE",
"314 742 OFFCURVE",
"314 769 CURVE SMOOTH"
);
},
{
closed = 1;
nodes = (
"109 798 OFFCURVE",
"134 819 OFFCURVE",
"159 819 CURVE SMOOTH",
"185 819 OFFCURVE",
"209 798 OFFCURVE",
"209 769 CURVE SMOOTH",
"209 740 OFFCURVE",
"185 719 OFFCURVE",
"160 719 CURVE SMOOTH",
"130 719 OFFCURVE",
"109 742 OFFCURVE",
"109 769 CURVE SMOOTH"
);
}
);
width = 525;
}
);
unicode = 0407;
},
{
glyphname = "Tshe-cy";
layers = (
{
layerId = master01;
paths = (
{
closed = 1;
nodes = (
"24 575 LINE SMOOTH",
"24 609 OFFCURVE",
"45 611 OFFCURVE",
"61 611 CURVE SMOOTH",
"397 611 LINE SMOOTH",
"431 611 OFFCURVE",
"432 592 OFFCURVE",
"432 570 CURVE SMOOTH",
"432 523 LINE SMOOTH",
"432 503 OFFCURVE",
"429 482 OFFCURVE",
"398 482 CURVE SMOOTH",
"360 482 OFFCURVE",
"362 513 OFFCURVE",
"362 523 CURVE SMOOTH",
"362 549 LINE",
"244 549 LINE",
"244 390 LINE",
"273 417 OFFCURVE",
"311 436 OFFCURVE",
"356 436 CURVE SMOOTH",
"393 436 OFFCURVE",
"440 422 OFFCURVE",
"460 365 CURVE SMOOTH",
"469 339 OFFCURVE",
"470 312 OFFCURVE",
"470 285 CURVE SMOOTH",
"470 62 LINE",
"480 62 LINE SMOOTH",
"512 62 OFFCURVE",
"516 42 OFFCURVE",
"516 31 CURVE SMOOTH",
"516 17 OFFCURVE",
"509 0 OFFCURVE",
"481 0 CURVE SMOOTH",
"389 0 LINE SMOOTH",
"363 0 OFFCURVE",
"354 15 OFFCURVE",
"354 29 CURVE SMOOTH",
"354 44 OFFCURVE",
"361 62 OFFCURVE",
"390 62 CURVE SMOOTH",
"400 62 LINE",
"400 278 LINE SMOOTH",
"400 323 OFFCURVE",
"401 374 OFFCURVE",
"351 374 CURVE SMOOTH",
"310 374 OFFCURVE",
"244 342 OFFCURVE",
"244 235 CURVE SMOOTH",
"244 62 LINE",
"255 62 LINE SMOOTH",
"281 62 OFFCURVE",
"290 47 OFFCURVE",
"290 32 CURVE SMOOTH",
"290 18 OFFCURVE",
"283 0 OFFCURVE",
"255 0 CURVE SMOOTH",
"148 0 LINE SMOOTH",
"120 0 OFFCURVE",
"113 16 OFFCURVE",
"113 31 CURVE SMOOTH",
"113 60 OFFCURVE",
"137 62 OFFCURVE",
"150 62 CURVE SMOOTH",
"174 62 LINE",
"174 549 LINE",
"94 549 LINE",
"94 491 LINE SMOOTH",
"94 462 OFFCURVE",
"82 455 OFFCURVE",
"58 455 CURVE SMOOTH",
"57 455 LINE SMOOTH",
"26 455 OFFCURVE",
"24 478 OFFCURVE",
"24 493 CURVE SMOOTH"
);
}
);
width = 525;
}
);
unicode = 040B;
},
{
glyphname = "Iu-cy";
layers = (
{
layerId = master01;
paths = (
{
closed = 1;
nodes = (
"0 46 OFFCURVE",
"7 62 OFFCURVE",
"36 62 CURVE SMOOTH",
"44 62 LINE",
"44 549 LINE",
"37 549 LINE SMOOTH",
"4 549 OFFCURVE",
"0 568 OFFCURVE",
"0 580 CURVE SMOOTH",
"0 594 OFFCURVE",
"7 610 OFFCURVE",
"35 611 CURVE SMOOTH",
"122 611 LINE SMOOTH",
"149 611 OFFCURVE",
"158 596 OFFCURVE",
"158 581 CURVE SMOOTH",
"158 566 OFFCURVE",
"151 549 OFFCURVE",
"122 549 CURVE SMOOTH",
"114 549 LINE",
"114 336 LINE",
"217 336 LINE",
"217 358 LINE SMOOTH",
"218 396 OFFCURVE",
"216 539 OFFCURVE",
"247 582 CURVE SMOOTH",
"272 615 OFFCURVE",
"315 622 OFFCURVE",
"369 622 CURVE SMOOTH",
"483 622 OFFCURVE",
"500 582 OFFCURVE",
"510 503 CURVE SMOOTH",
"516 452 OFFCURVE",
"517 401 OFFCURVE",
"517 347 CURVE SMOOTH",
"517 285 LINE SMOOTH",
"517 168 OFFCURVE",
"513 65 OFFCURVE",
"486 28 CURVE SMOOTH",
"462 -5 OFFCURVE",
"419 -11 OFFCURVE",
"365 -11 CURVE SMOOTH",
"235 -11 OFFCURVE",
"220 30 OFFCURVE",
"217 253 CURVE SMOOTH",
"217 275 LINE",
"114 275 LINE",
"114 62 LINE",
"117 62 LINE SMOOTH",
"137 62 OFFCURVE",
"158 57 OFFCURVE",
"158 31 CURVE SMOOTH",
"158 6 OFFCURVE",
"140 0 OFFCURVE",
"123 0 CURVE SMOOTH",
"35 0 LINE SMOOTH",
"5 0 OFFCURVE",
"0 19 OFFCURVE",
"0 30 CURVE SMOOTH"
);
},
{
closed = 1;
nodes = (
"289 183 OFFCURVE",
"289 101 OFFCURVE",
"309 76 CURVE SMOOTH",
"323 59 OFFCURVE",
"344 51 OFFCURVE",
"367 51 CURVE SMOOTH",
"395 51 OFFCURVE",
"419 63 OFFCURVE",
"430 84 CURVE SMOOTH",
"446 113 OFFCURVE",
"447 228 OFFCURVE",
"447 264 CURVE SMOOTH",
"447 347 LINE SMOOTH",
"447 516 OFFCURVE",
"439 560 OFFCURVE",
"367 560 CURVE SMOOTH",
"297 560 OFFCURVE",
"287 523 OFFCURVE",
"287 346 CURVE SMOOTH",
"287 264 LINE SMOOTH"
);
}
);
width = 525;
}
);
unicode = 042E;
},
{
glyphname = "Ia-cy";
layers = (
{
layerId = master01;
paths = (
{
closed = 1;
nodes = (
"29 60 OFFCURVE",
"54 62 OFFCURVE",
"66 62 CURVE SMOOTH",
"82 62 LINE",
"211 285 LINE",
"124 312 OFFCURVE",
"78 382 OFFCURVE",
"78 447 CURVE SMOOTH",
"78 512 OFFCURVE",
"135 611 OFFCURVE",
"291 611 CURVE SMOOTH",
"472 611 LINE SMOOTH",
"501 610 OFFCURVE",
"506 591 OFFCURVE",
"506 580 CURVE SMOOTH",
"506 551 OFFCURVE",
"479 549 OFFCURVE",
"471 549 CURVE SMOOTH",
"443 549 LINE",
"443 62 LINE",
"468 62 LINE SMOOTH",
"488 62 OFFCURVE",
"505 56 OFFCURVE",
"505 31 CURVE SMOOTH",
"505 13 OFFCURVE",
"496 0 OFFCURVE",
"469 0 CURVE SMOOTH",
"346 0 LINE SMOOTH",
"314 0 OFFCURVE",
"310 19 OFFCURVE",
"310 30 CURVE SMOOTH",
"310 61 OFFCURVE",
"336 62 OFFCURVE",
"345 62 CURVE SMOOTH",
"373 62 LINE",
"373 275 LINE",
"270 275 LINE",
"147 62 LINE",
"168 62 OFFCURVE",
"187 56 OFFCURVE",
"187 31 CURVE SMOOTH",
"187 20 OFFCURVE",
"182 0 OFFCURVE",
"152 0 CURVE SMOOTH",
"68 0 LINE SMOOTH",
"51 0 OFFCURVE",
"29 3 OFFCURVE",
"29 31 CURVE SMOOTH"
);
},
{
closed = 1;
nodes = (
"148 403 OFFCURVE",
"187 336 OFFCURVE",
"298 336 CURVE SMOOTH",
"373 336 LINE",
"373 549 LINE",
"298 549 LINE SMOOTH",
"187 549 OFFCURVE",
"148 487 OFFCURVE",
"148 446 CURVE SMOOTH"
);
}
);
width = 525;
}
);
unicode = 042F;
},
{
glyphname = "Dje-cy";
layers = (
{
layerId = master01;
paths = (
{
closed = 1;
nodes = (
"22 575 LINE SMOOTH",
"22 607 OFFCURVE",
"40 611 OFFCURVE",
"59 611 CURVE SMOOTH",
"381 611 LINE SMOOTH",
"420 611 OFFCURVE",
"418 586 OFFCURVE",
"418 570 CURVE SMOOTH",
"418 523 LINE SMOOTH",
"418 502 OFFCURVE",
"414 482 OFFCURVE",
"383 482 CURVE SMOOTH",
"346 482 OFFCURVE",
"348 513 OFFCURVE",
"348 523 CURVE SMOOTH",
"348 549 LINE",
"255 549 LINE",
"255 389 LINE",
"290 422 OFFCURVE",
"331 442 OFFCURVE",
"382 442 CURVE SMOOTH",
"449 442 OFFCURVE",
"480 407 OFFCURVE",
"493 378 CURVE SMOOTH",
"507 347 OFFCURVE",
"509 314 OFFCURVE",
"509 281 CURVE SMOOTH",
"509 195 LINE SMOOTH",
"509 81 OFFCURVE",
"460 -11 OFFCURVE",
"387 -11 CURVE SMOOTH",
"339 -11 OFFCURVE",
"306 34 OFFCURVE",
"306 81 CURVE SMOOTH",
"306 118 OFFCURVE",
"336 127 OFFCURVE",
"350 127 CURVE SMOOTH",
"375 127 OFFCURVE",
"395 109 OFFCURVE",
"395 83 CURVE SMOOTH",
"395 71 OFFCURVE",
"391 63 OFFCURVE",
"384 52 CURVE",
"385 52 LINE SMOOTH",
"412 52 OFFCURVE",
"439 107 OFFCURVE",
"439 205 CURVE SMOOTH",
"439 279 LINE SMOOTH",
"439 325 OFFCURVE",
"438 380 OFFCURVE",
"377 380 CURVE SMOOTH",
"329 380 OFFCURVE",
"255 345 OFFCURVE",
"255 233 CURVE SMOOTH",
"255 62 LINE",
"260 61 OFFCURVE",
"282 56 OFFCURVE",
"282 31 CURVE SMOOTH",
"282 2 OFFCURVE",
"258 0 OFFCURVE",
"245 0 CURVE SMOOTH",
"141 0 LINE SMOOTH",
"114 0 OFFCURVE",
"108 18 OFFCURVE",
"108 31 CURVE SMOOTH",
"108 60 OFFCURVE",
"132 62 OFFCURVE",
"143 62 CURVE SMOOTH",
"185 62 LINE",
"185 549 LINE",
"92 549 LINE",
"92 492 LINE SMOOTH",
"92 469 OFFCURVE",
"86 455 OFFCURVE",
"57 455 CURVE SMOOTH",
"54 455 LINE SMOOTH",
"39 455 OFFCURVE",
"22 462 OFFCURVE",
"22 490 CURVE SMOOTH"
);
}
);
width = 525;
}
);
unicode = 0402;
},
{
glyphname = "Omega-cy";
layers = (
{
layerId = master01;
paths = (
{
closed = 1;
nodes = (
"29 415 OFFCURVE",
"55 622 OFFCURVE",
"159 622 CURVE SMOOTH",
"185 622 OFFCURVE",
"224 610 OFFCURVE",
"224 529 CURVE SMOOTH",
"224 518 OFFCURVE",
"223 510 OFFCURVE",
"222 507 CURVE",
"219 488 OFFCURVE",
"202 472 OFFCURVE",
"179 472 CURVE SMOOTH",
"156 472 OFFCURVE",
"135 490 OFFCURVE",
"135 516 CURVE SMOOTH",
"135 538 OFFCURVE",
"149 550 OFFCURVE",
"152 552 CURVE",
"152 558 LINE",
"122 524 OFFCURVE",
"99 420 OFFCURVE",
"99 305 CURVE SMOOTH",
"99 195 OFFCURVE",
"129 51 OFFCURVE",
"175 51 CURVE SMOOTH",
"197 51 OFFCURVE",
"227 71 OFFCURVE",
"227 105 CURVE SMOOTH",
"227 256 LINE SMOOTH",
"227 257 OFFCURVE",
"203 263 OFFCURVE",
"203 286 CURVE SMOOTH",
"203 299 OFFCURVE",
"212 311 OFFCURVE",
"223 315 CURVE",
"230 318 OFFCURVE",
"238 317 OFFCURVE",
"246 317 CURVE SMOOTH",
"282 317 LINE SMOOTH",
"298 317 OFFCURVE",
"321 315 OFFCURVE",
"321 286 CURVE SMOOTH",
"321 280 OFFCURVE",
"320 264 OFFCURVE",
"297 256 CURVE",
"297 105 LINE SMOOTH",
"297 70 OFFCURVE",
"329 51 OFFCURVE",
"350 51 CURVE SMOOTH",
"395 51 OFFCURVE",
"426 191 OFFCURVE",
"426 306 CURVE SMOOTH",
"426 423 OFFCURVE",
"402 524 OFFCURVE",
"373 558 CURVE",
"372 552 LINE",
"378 547 OFFCURVE",
"390 538 OFFCURVE",
"390 516 CURVE SMOOTH",
"390 491 OFFCURVE",
"370 472 OFFCURVE",
"346 472 CURVE SMOOTH",
"323 472 OFFCURVE",
"306 488 OFFCURVE",
"302 507 CURVE",
"302 509 OFFCURVE",
"301 518 OFFCURVE",
"301 531 CURVE SMOOTH",
"301 564 OFFCURVE",
"309 622 OFFCURVE",
"365 622 CURVE SMOOTH",
"470 622 OFFCURVE",
"496 415 OFFCURVE",
"496 304 CURVE SMOOTH",
"496 198 OFFCURVE",
"468 -11 OFFCURVE",
"357 -11 CURVE SMOOTH",
"319 -11 OFFCURVE",
"287 6 OFFCURVE",
"263 38 CURVE",
"262 38 LINE",
"228 -8 OFFCURVE",
"184 -11 OFFCURVE",
"168 -11 CURVE SMOOTH",
"57 -11 OFFCURVE",
"29 199 OFFCURVE",
"29 304 CURVE SMOOTH"
);
}
);
width = 525;
}
);
unicode = 0460;
},
{
glyphname = "Yat-cy";
layers = (
{
layerId = master01;
paths = (
{
closed = 1;
nodes = (
"23 555 LINE SMOOTH",
"23 573 OFFCURVE",
"28 590 OFFCURVE",
"58 590 CURVE SMOOTH",
"145 590 LINE",
"145 632 LINE",
"123 632 LINE SMOOTH",
"113 632 OFFCURVE",
"87 633 OFFCURVE",
"87 663 CURVE SMOOTH",
"87 678 OFFCURVE",
"94 694 OFFCURVE",
"123 694 CURVE SMOOTH",
"238 694 LINE SMOOTH",
"268 694 OFFCURVE",
"274 676 OFFCURVE",
"274 663 CURVE SMOOTH",
"274 651 OFFCURVE",
"269 632 OFFCURVE",
"237 632 CURVE SMOOTH",
"215 632 LINE",
"215 590 LINE",
"387 590 LINE SMOOTH",
"406 590 OFFCURVE",
"429 588 OFFCURVE",
"428 556 CURVE",
"428 506 LINE SMOOTH",
"428 491 OFFCURVE",
"429 465 OFFCURVE",
"395 465 CURVE SMOOTH",
"365 465 OFFCURVE",
"358 477 OFFCURVE",
"358 503 CURVE SMOOTH",
"358 528 LINE",
"215 528 LINE",
"215 348 LINE",
"334 348 LINE SMOOTH",
"441 348 OFFCURVE",
"488 253 OFFCURVE",
"488 174 CURVE SMOOTH",
"488 115 OFFCURVE",
"456 0 OFFCURVE",
"332 0 CURVE SMOOTH",
"122 0 LINE SMOOTH",
"91 0 OFFCURVE",
"87 20 OFFCURVE",
"87 31 CURVE SMOOTH",
"87 43 OFFCURVE",
"91 62 OFFCURVE",
"123 62 CURVE SMOOTH",
"145 62 LINE",
"145 528 LINE",
"93 528 LINE",
"93 507 LINE SMOOTH",
"93 485 OFFCURVE",
"92 465 OFFCURVE",
"56 465 CURVE SMOOTH",
"55 465 LINE SMOOTH",
"20 465 OFFCURVE",
"23 498 OFFCURVE",
"23 506 CURVE SMOOTH"
);
},
{
closed = 1;
nodes = (
"321 62 LINE SMOOTH",
"379 62 OFFCURVE",
"418 114 OFFCURVE",
"418 174 CURVE SMOOTH",
"418 234 OFFCURVE",
"379 287 OFFCURVE",
"321 287 CURVE SMOOTH",
"215 287 LINE",
"215 62 LINE"
);
}
);
width = 525;
}
);
unicode = 0462;
},
{
glyphname = "Eiotified-cy";
layers = (
{
layerId = master01;
paths = (
{
closed = 1;
nodes = (
"0 43 OFFCURVE",
"5 62 OFFCURVE",
"37 62 CURVE SMOOTH",
"43 62 LINE",
"43 549 LINE",
"37 549 LINE SMOOTH",
"5 549 OFFCURVE",
"0 568 OFFCURVE",
"0 580 CURVE SMOOTH",
"0 591 OFFCURVE",
"4 611 OFFCURVE",
"37 611 CURVE SMOOTH",
"122 611 LINE SMOOTH",
"148 611 OFFCURVE",
"157 596 OFFCURVE",
"157 581 CURVE SMOOTH",
"157 566 OFFCURVE",
"150 549 OFFCURVE",
"121 549 CURVE SMOOTH",
"113 549 LINE",
"113 336 LINE",
"202 336 LINE",
"217 557 OFFCURVE",
"297 622 OFFCURVE",
"361 622 CURVE SMOOTH",
"391 622 OFFCURVE",
"415 609 OFFCURVE",
"433 595 CURVE",
"439 606 OFFCURVE",
"447 622 OFFCURVE",
"466 622 CURVE SMOOTH",
"499 622 OFFCURVE",
"497 590 OFFCURVE",
"497 584 CURVE SMOOTH",
"497 448 LINE SMOOTH",
"497 438 OFFCURVE",
"497 413 OFFCURVE",
"463 413 CURVE SMOOTH",
"405 413 OFFCURVE",
"442 461 OFFCURVE",
"405 530 CURVE SMOOTH",
"394 550 OFFCURVE",
"380 560 OFFCURVE",
"365 560 CURVE SMOOTH",
"319 560 OFFCURVE",
"274 457 OFFCURVE",
"272 336 CURVE",
"385 336 LINE SMOOTH",
"415 336 OFFCURVE",
"420 316 OFFCURVE",
"420 305 CURVE SMOOTH",
"420 275 OFFCURVE",
"394 275 OFFCURVE",
"382 275 CURVE SMOOTH",
"273 275 LINE",
"277 196 OFFCURVE",
"309 51 OFFCURVE",
"365 51 CURVE SMOOTH",
"402 51 OFFCURVE",
"424 98 OFFCURVE",
"426 155 CURVE SMOOTH",
"427 173 OFFCURVE",
"433 190 OFFCURVE",
"459 190 CURVE SMOOTH",
"461 190 LINE SMOOTH",
"487 190 OFFCURVE",
"496 179 OFFCURVE",
"496 155 CURVE SMOOTH",
"496 114 OFFCURVE",
"469 -11 OFFCURVE",
"361 -11 CURVE SMOOTH",
"297 -11 OFFCURVE",
"219 49 OFFCURVE",
"202 275 CURVE",
"113 275 LINE",
"113 62 LINE",
"116 62 LINE SMOOTH",
"136 62 OFFCURVE",
"157 57 OFFCURVE",
"157 31 CURVE SMOOTH",
"157 18 OFFCURVE",
"152 0 OFFCURVE",
"122 0 CURVE SMOOTH",
"36 0 LINE SMOOTH",
"8 0 OFFCURVE",
"0 15 OFFCURVE",
"0 31 CURVE SMOOTH"
);
}
);
width = 525;
}
);
unicode = 0464;
},
{
glyphname = "Yuslittle-cy";
layers = (
{
layerId = master01;
paths = (
{
closed = 1;
nodes = (
"25 60 OFFCURVE",
"50 62 OFFCURVE",
"62 62 CURVE SMOOTH",
"77 62 LINE",
"208 583 LINE SMOOTH",
"215 612 OFFCURVE",
"226 623 OFFCURVE",
"254 623 CURVE SMOOTH",
"268 623 LINE SMOOTH",
"310 623 OFFCURVE",
"311 602 OFFCURVE",
"318 576 CURVE SMOOTH",
"434 116 LINE SMOOTH",
"439 98 OFFCURVE",
"444 80 OFFCURVE",
"448 62 CURVE",
"462 62 LINE SMOOTH",
"482 62 OFFCURVE",
"499 56 OFFCURVE",
"499 31 CURVE SMOOTH",
"499 20 OFFCURVE",
"495 0 OFFCURVE",
"462 0 CURVE SMOOTH",
"384 0 LINE SMOOTH",
"356 0 OFFCURVE",
"349 16 OFFCURVE",
"349 31 CURVE SMOOTH",
"349 54 OFFCURVE",
"369 61 OFFCURVE",
"375 62 CURVE",
"339 209 LINE",
"295 209 LINE",
"295 62 LINE",
"297 62 LINE SMOOTH",
"322 62 OFFCURVE",
"331 47 OFFCURVE",
"331 32 CURVE SMOOTH",
"331 17 OFFCURVE",
"324 0 OFFCURVE",
"295 0 CURVE SMOOTH",
"227 0 LINE SMOOTH",
"201 0 OFFCURVE",
"194 17 OFFCURVE",
"194 31 CURVE SMOOTH",
"194 43 OFFCURVE",
"200 62 OFFCURVE",
"227 62 CURVE SMOOTH",
"230 62 LINE",
"230 209 LINE",
"186 209 LINE",
"185 208 LINE",
"149 62 LINE",
"164 59 OFFCURVE",
"176 48 OFFCURVE",
"176 31 CURVE SMOOTH",
"176 19 OFFCURVE",
"171 0 OFFCURVE",
"141 0 CURVE SMOOTH",
"59 0 LINE SMOOTH",
"32 0 OFFCURVE",
"25 18 OFFCURVE",
"25 31 CURVE SMOOTH"
);
},
{
closed = 1;
nodes = (
"323 270 LINE",
"331 239 LINE",
"284 435 LINE",
"271 495 LINE",
"262 541 LINE",
"240 433 LINE",
"201 270 LINE"
);
}
);
width = 525;
}
);
unicode = 0466;
},
{
glyphname = "Yuslittleiotified-cy";
layers = (
{
layerId = master01;
paths = (
{
closed = 1;
nodes = (
"0 59 OFFCURVE",
"25 62 OFFCURVE",
"35 62 CURVE SMOOTH",
"39 62 LINE",
"39 549 LINE",
"17 549 OFFCURVE",
"0 555 OFFCURVE",
"0 580 CURVE SMOOTH",
"0 609 OFFCURVE",
"25 611 OFFCURVE",
"36 611 CURVE SMOOTH",
"113 611 LINE SMOOTH",
"138 611 OFFCURVE",
"147 596 OFFCURVE",
"147 581 CURVE SMOOTH",
"147 551 OFFCURVE",
"122 549 OFFCURVE",
"112 549 CURVE SMOOTH",
"109 549 LINE",
"109 270 LINE",
"242 270 LINE",
"243 282 OFFCURVE",
"245 293 OFFCURVE",
"247 304 CURVE SMOOTH",
"292 584 LINE SMOOTH",
"297 620 OFFCURVE",
"314 623 OFFCURVE",
"335 623 CURVE SMOOTH",
"343 623 LINE SMOOTH",
"382 623 OFFCURVE",
"384 605 OFFCURVE",
"388 577 CURVE SMOOTH",
"471 62 LINE",
"472 62 LINE SMOOTH",
"499 62 OFFCURVE",
"507 45 OFFCURVE",
"507 31 CURVE SMOOTH",
"507 16 OFFCURVE",
"499 0 OFFCURVE",
"471 0 CURVE SMOOTH",
"432 0 LINE SMOOTH",
"398 0 OFFCURVE",
"395 22 OFFCURVE",
"395 30 CURVE SMOOTH",
"395 39 OFFCURVE",
"400 46 OFFCURVE",
"400 58 CURVE SMOOTH",
"400 69 OFFCURVE",
"382 167 OFFCURVE",
"377 209 CURVE",
"372 209 LINE",
"372 65 LINE",
"373 55 OFFCURVE",
"383 43 OFFCURVE",
"383 30 CURVE SMOOTH",
"383 20 OFFCURVE",
"377 0 OFFCURVE",
"349 0 CURVE SMOOTH",
"332 0 LINE SMOOTH",
"303 0 OFFCURVE",
"296 16 OFFCURVE",
"296 32 CURVE SMOOTH",
"296 46 OFFCURVE",
"306 51 OFFCURVE",
"306 67 CURVE SMOOTH",
"306 209 LINE",
"302 209 LINE",
"302 209 OFFCURVE",
"279 62 OFFCURVE",
"279 54 CURVE SMOOTH",
"279 49 OFFCURVE",
"284 42 OFFCURVE",
"284 30 CURVE SMOOTH",
"284 3 OFFCURVE",
"262 0 OFFCURVE",
"245 0 CURVE SMOOTH",
"208 0 LINE SMOOTH",
"183 0 OFFCURVE",
"172 15 OFFCURVE",
"172 30 CURVE SMOOTH",
"172 42 OFFCURVE",
"177 62 OFFCURVE",
"208 62 CURVE",
"232 209 LINE",
"109 209 LINE",
"109 62 LINE",
"130 62 OFFCURVE",
"147 56 OFFCURVE",
"147 31 CURVE SMOOTH",
"147 19 OFFCURVE",
"142 0 OFFCURVE",
"113 0 CURVE SMOOTH",
"37 0 LINE SMOOTH",
"17 0 OFFCURVE",
"0 6 OFFCURVE",
"0 31 CURVE SMOOTH"
);
},
{
closed = 1;
nodes = (
"368 270 LINE",
"363 312 OFFCURVE",
"340 455 OFFCURVE",
"340 541 CURVE",
"336 445 OFFCURVE",
"323 358 OFFCURVE",
"311 270 CURVE"
);
}
);
width = 525;
}
);
unicode = 0468;
},
{
glyphname = "Yusbig-cy";
layers = (
{
layerId = master01;
paths = (
{
closed = 1;
nodes = (
"8 58 OFFCURVE",
"29 62 OFFCURVE",
"45 62 CURVE",
"122 305 OFFCURVE",
"110 271 OFFCURVE",
"125 290 CURVE SMOOTH",
"149 321 OFFCURVE",
"185 338 OFFCURVE",
"221 345 CURVE",
"140 528 OFFCURVE",
"116 577 OFFCURVE",
"116 595 CURVE SMOOTH",
"116 599 OFFCURVE",
"118 602 OFFCURVE",
"121 605 CURVE",
"124 607 OFFCURVE",
"125 611 OFFCURVE",
"141 611 CURVE SMOOTH",
"382 611 LINE SMOOTH",
"400 611 OFFCURVE",
"407 604 OFFCURVE",
"407 593 CURVE SMOOTH",
"407 578 OFFCURVE",
"394 554 OFFCURVE",
"383 529 CURVE SMOOTH",
"302 345 LINE",
"414 323 OFFCURVE",
"414 263 OFFCURVE",
"478 62 CURVE",
"497 62 OFFCURVE",
"515 56 OFFCURVE",
"515 30 CURVE SMOOTH",
"515 1 OFFCURVE",
"488 0 OFFCURVE",
"479 0 CURVE SMOOTH",
"419 0 LINE SMOOTH",
"394 0 OFFCURVE",
"383 15 OFFCURVE",
"383 30 CURVE SMOOTH",
"383 44 OFFCURVE",
"391 57 OFFCURVE",
"406 61 CURVE",
"409 61 OFFCURVE",
"413 62 OFFCURVE",
"416 62 CURVE",
"342 267 OFFCURVE",
"348 266 OFFCURVE",
"324 278 CURVE SMOOTH",
"313 283 OFFCURVE",
"302 285 OFFCURVE",
"290 286 CURVE",
"290 62 LINE",
"321 62 OFFCURVE",
"325 42 OFFCURVE",
"325 31 CURVE SMOOTH",
"325 18 OFFCURVE",
"320 0 OFFCURVE",
"289 0 CURVE SMOOTH",
"233 0 LINE SMOOTH",
"206 0 OFFCURVE",
"198 17 OFFCURVE",
"198 31 CURVE SMOOTH",
"198 47 OFFCURVE",
"206 61 OFFCURVE",
"233 62 CURVE",
"233 286 LINE",
"179 281 OFFCURVE",
"179 261 OFFCURVE",
"157 201 CURVE SMOOTH",
"107 62 LINE",
"130 61 OFFCURVE",
"140 46 OFFCURVE",
"140 31 CURVE SMOOTH",
"140 21 OFFCURVE",
"135 10 OFFCURVE",
"127 5 CURVE",
"120 0 OFFCURVE",
"112 0 OFFCURVE",
"104 0 CURVE SMOOTH",
"47 0 LINE SMOOTH",
"26 0 OFFCURVE",
"8 5 OFFCURVE",
"8 30 CURVE SMOOTH"
);
},
{
closed = 1;
nodes = (
"261 382 LINE",
"262 382 LINE",
"335 549 LINE",
"188 549 LINE"
);
}
);
width = 525;
}
);
unicode = 046A;
},
{
glyphname = "Yusbigiotified-cy";
layers = (
{
layerId = master01;
paths = (
{
closed = 1;
nodes = (
"0 45 OFFCURVE",
"7 62 OFFCURVE",
"33 62 CURVE SMOOTH",
"35 62 LINE",
"35 549 LINE",
"33 549 LINE SMOOTH",
"7 549 OFFCURVE",
"0 566 OFFCURVE",
"0 580 CURVE SMOOTH",
"0 595 OFFCURVE",
"8 611 OFFCURVE",
"36 611 CURVE SMOOTH",
"106 611 LINE SMOOTH",
"128 611 OFFCURVE",
"139 596 OFFCURVE",
"139 580 CURVE SMOOTH",
"139 568 OFFCURVE",
"133 549 OFFCURVE",
"105 549 CURVE",
"105 348 LINE",
"294 348 LINE",
"229 564 OFFCURVE",
"224 579 OFFCURVE",
"224 590 CURVE SMOOTH",
"224 609 OFFCURVE",
"242 611 OFFCURVE",
"252 611 CURVE SMOOTH",
"407 611 LINE SMOOTH",
"430 611 OFFCURVE",
"438 603 OFFCURVE",
"438 590 CURVE SMOOTH",
"438 575 OFFCURVE",
"367 343 OFFCURVE",
"367 343 CURVE",
"435 320 OFFCURVE",
"446 275 OFFCURVE",
"454 237 CURVE SMOOTH",
"476 132 OFFCURVE",
"488 79 OFFCURVE",
"491 62 CURVE",
"516 57 OFFCURVE",
"517 37 OFFCURVE",
"517 31 CURVE SMOOTH",
"517 19 OFFCURVE",
"512 1 OFFCURVE",
"483 0 CURVE SMOOTH",
"471 0 LINE SMOOTH",
"425 0 OFFCURVE",
"438 28 OFFCURVE",
"431 56 CURVE SMOOTH",
"373 284 OFFCURVE",
"381 264 OFFCURVE",
"360 280 CURVE",
"360 62 LINE",
"378 57 OFFCURVE",
"386 44 OFFCURVE",
"386 32 CURVE SMOOTH",
"386 20 OFFCURVE",
"379 0 OFFCURVE",
"351 0 CURVE SMOOTH",
"315 0 LINE SMOOTH",
"294 0 OFFCURVE",
"277 6 OFFCURVE",
"277 31 CURVE SMOOTH",
"277 48 OFFCURVE",
"288 58 OFFCURVE",
"303 62 CURVE",
"303 280 LINE",
"283 267 OFFCURVE",
"281 251 OFFCURVE",
"279 243 CURVE SMOOTH",
"268 199 OFFCURVE",
"228 50 OFFCURVE",
"228 38 CURVE SMOOTH",
"228 22 OFFCURVE",
"227 0 OFFCURVE",
"193 0 CURVE SMOOTH",
"182 0 LINE SMOOTH",
"150 0 OFFCURVE",
"145 18 OFFCURVE",
"145 31 CURVE SMOOTH",
"145 47 OFFCURVE",
"155 59 OFFCURVE",
"171 62 CURVE",
"208 234 LINE",
"215 265 LINE",
"224 287 LINE",
"105 287 LINE",
"105 62 LINE",
"106 62 LINE SMOOTH",
"129 62 OFFCURVE",
"139 46 OFFCURVE",
"139 31 CURVE SMOOTH",
"139 20 OFFCURVE",
"133 0 OFFCURVE",
"107 0 CURVE SMOOTH",
"36 0 LINE SMOOTH",
"8 0 OFFCURVE",
"0 15 OFFCURVE",
"0 31 CURVE SMOOTH"
);
},
{
closed = 1;
nodes = (
"298 518 OFFCURVE",
"324 441 OFFCURVE",
"331 393 CURVE",
"335 415 OFFCURVE",
"340 436 OFFCURVE",
"346 457 CURVE SMOOTH",
"354 488 OFFCURVE",
"363 518 OFFCURVE",
"372 549 CURVE",
"291 549 LINE"
);
}
);
width = 525;
}
);
unicode = 046C;
},
{
glyphname = "Ksi-cy";
layers = (
{
layerId = master01;
paths = (
{
closed = 1;
nodes = (
"12 -86 OFFCURVE",
"50 -53 OFFCURVE",
"82 -38 CURVE SMOOTH",
"89 -35 OFFCURVE",
"241 21 OFFCURVE",
"320 51 CURVE SMOOTH",
"375 72 OFFCURVE",
"419 97 OFFCURVE",
"419 166 CURVE SMOOTH",
"419 214 OFFCURVE",
"395 287 OFFCURVE",
"260 287 CURVE SMOOTH",
"229 287 LINE SMOOTH",
"208 287 OFFCURVE",
"184 287 OFFCURVE",
"184 318 CURVE SMOOTH",
"184 336 OFFCURVE",
"197 348 OFFCURVE",
"216 348 CURVE SMOOTH",
"269 348 LINE SMOOTH",
"365 348 OFFCURVE",
"389 417 OFFCURVE",
"389 456 CURVE SMOOTH",
"389 492 OFFCURVE",
"374 560 OFFCURVE",
"265 560 CURVE SMOOTH",
"209 560 OFFCURVE",
"159 542 OFFCURVE",
"135 502 CURVE",
"142 492 OFFCURVE",
"146 484 OFFCURVE",
"146 472 CURVE SMOOTH",
"146 446 OFFCURVE",
"125 428 OFFCURVE",
"102 428 CURVE SMOOTH",
"81 428 OFFCURVE",
"58 442 OFFCURVE",
"58 476 CURVE SMOOTH",
"58 506 OFFCURVE",
"69 580 OFFCURVE",
"197 615 CURVE",
"183 626 OFFCURVE",
"112 690 OFFCURVE",
"100 702 CURVE SMOOTH",
"89 713 OFFCURVE",
"85 723 OFFCURVE",
"85 731 CURVE SMOOTH",
"85 755 OFFCURVE",
"110 758 OFFCURVE",
"138 758 CURVE SMOOTH",
"168 758 LINE SMOOTH",
"202 758 OFFCURVE",
"192 754 OFFCURVE",
"264 692 CURVE",
"278 708 OFFCURVE",
"323 760 OFFCURVE",
"377 760 CURVE SMOOTH",
"399 760 OFFCURVE",
"412 743 OFFCURVE",
"412 726 CURVE SMOOTH",
"412 716 OFFCURVE",
"407 706 OFFCURVE",
"395 701 CURVE SMOOTH",
"380 695 OFFCURVE",
"366 706 OFFCURVE",
"340 661 CURVE SMOOTH",
"332 647 OFFCURVE",
"326 632 OFFCURVE",
"318 617 CURVE",
"449 595 OFFCURVE",
"459 486 OFFCURVE",
"459 456 CURVE SMOOTH",
"459 374 OFFCURVE",
"400 333 OFFCURVE",
"382 320 CURVE",
"470 281 OFFCURVE",
"485 204 OFFCURVE",
"485 159 CURVE SMOOTH",
"485 25 OFFCURVE",
"369 -5 OFFCURVE",
"312 -27 CURVE SMOOTH",
"134 -96 OFFCURVE",
"80 -102 OFFCURVE",
"80 -140 CURVE SMOOTH",
"80 -179 OFFCURVE",
"133 -152 OFFCURVE",
"133 -196 CURVE SMOOTH",
"133 -215 OFFCURVE",
"120 -227 OFFCURVE",
"102 -227 CURVE SMOOTH",
"57 -227 OFFCURVE",
"12 -191 OFFCURVE",
"12 -136 CURVE SMOOTH"
);
}
);
width = 525;
}
);
unicode = 046E;
},
{
glyphname = "Psi-cy";
layers = (
{
layerId = master01;
paths = (
{
closed = 1;
nodes = (
"37 466 OFFCURVE",
"44 482 OFFCURVE",
"72 482 CURVE SMOOTH",
"75 482 LINE SMOOTH",
"132 482 OFFCURVE",
"144 432 OFFCURVE",
"146 390 CURVE SMOOTH",
"150 335 OFFCURVE",
"144 247 OFFCURVE",
"227 220 CURVE",
"227 549 LINE",
"191 549 LINE SMOOTH",
"173 549 OFFCURVE",
"151 552 OFFCURVE",
"151 580 CURVE SMOOTH",
"151 594 OFFCURVE",
"159 611 OFFCURVE",
"188 611 CURVE SMOOTH",
"335 611 LINE SMOOTH",
"355 611 OFFCURVE",
"373 605 OFFCURVE",
"373 580 CURVE SMOOTH",
"373 551 OFFCURVE",
"348 549 OFFCURVE",
"337 549 CURVE SMOOTH",
"297 549 LINE",
"297 220 LINE",
"409 257 OFFCURVE",
"356 394 OFFCURVE",
"394 453 CURVE SMOOTH",
"404 470 OFFCURVE",
"421 482 OFFCURVE",
"448 482 CURVE SMOOTH",
"451 482 LINE SMOOTH",
"479 482 OFFCURVE",
"486 466 OFFCURVE",
"486 451 CURVE SMOOTH",
"486 423 OFFCURVE",
"462 422 OFFCURVE",
"456 417 CURVE SMOOTH",
"434 398 OFFCURVE",
"466 295 OFFCURVE",
"402 215 CURVE SMOOTH",
"374 181 OFFCURVE",
"336 163 OFFCURVE",
"297 156 CURVE",
"297 62 LINE",
"333 62 LINE SMOOTH",
"354 62 OFFCURVE",
"373 57 OFFCURVE",
"373 31 CURVE SMOOTH",
"373 2 OFFCURVE",
"347 0 OFFCURVE",
"338 0 CURVE SMOOTH",
"188 0 LINE SMOOTH",
"155 0 OFFCURVE",
"151 21 OFFCURVE",
"151 31 CURVE SMOOTH",
"151 59 OFFCURVE",
"177 62 OFFCURVE",
"187 62 CURVE SMOOTH",
"227 62 LINE",
"227 156 LINE",
"186 163 OFFCURVE",
"82 193 OFFCURVE",
"77 357 CURVE SMOOTH",
"75 427 OFFCURVE",
"69 416 OFFCURVE",
"54 423 CURVE",
"44 429 OFFCURVE",
"37 437 OFFCURVE",
"37 451 CURVE SMOOTH"
);
}
);
width = 525;
}
);
unicode = 0470;
},
{
glyphname = "Fita-cy";
layers = (
{
layerId = master01;
paths = (
{
closed = 1;
nodes = (
"56 349 LINE SMOOTH",
"56 418 OFFCURVE",
"59 536 OFFCURVE",
"94 579 CURVE SMOOTH",
"128 620 OFFCURVE",
"198 622 OFFCURVE",
"249 622 CURVE SMOOTH",
"261 622 LINE SMOOTH",
"441 622 OFFCURVE",
"468 600 OFFCURVE",
"468 310 CURVE SMOOTH",
"468 231 LINE",
"464 59 OFFCURVE",
"440 19 OFFCURVE",
"379 0 CURVE SMOOTH",
"340 -12 OFFCURVE",
"297 -11 OFFCURVE",
"249 -11 CURVE SMOOTH",
"78 -11 OFFCURVE",
"56 27 OFFCURVE",
"56 298 CURVE SMOOTH"
);
},
{
closed = 1;
nodes = (
"126 186 OFFCURVE",
"132 113 OFFCURVE",
"153 85 CURVE SMOOTH",
"174 56 OFFCURVE",
"214 50 OFFCURVE",
"262 50 CURVE SMOOTH",
"265 50 LINE SMOOTH",
"271 50 OFFCURVE",
"277 51 OFFCURVE",
"283 51 CURVE SMOOTH",
"308 52 OFFCURVE",
"335 55 OFFCURVE",
"356 69 CURVE",
"362 74 OFFCURVE",
"368 80 OFFCURVE",
"373 87 CURVE",
"384 105 OFFCURVE",
"388 129 OFFCURVE",
"392 153 CURVE",
"397 197 OFFCURVE",
"397 240 OFFCURVE",
"398 287 CURVE",
"126 287 LINE"
);
},
{
closed = 1;
nodes = (
"398 348 LINE",
"396 483 OFFCURVE",
"393 541 OFFCURVE",
"326 556 CURVE SMOOTH",
"304 560 OFFCURVE",
"282 560 OFFCURVE",
"257 560 CURVE SMOOTH",
"167 560 OFFCURVE",
"144 542 OFFCURVE",
"132 468 CURVE SMOOTH",
"127 429 OFFCURVE",
"126 390 OFFCURVE",
"126 348 CURVE"
);
}
);
width = 525;
}
);
unicode = 0472;
},
{
glyphname = "Izhitsa-cy";
layers = (
{
layerId = master01;
paths = (
{
closed = 1;
nodes = (
"16 595 OFFCURVE",
"23 611 OFFCURVE",
"51 611 CURVE SMOOTH",
"153 611 LINE SMOOTH",
"180 611 OFFCURVE",
"188 596 OFFCURVE",
"188 580 CURVE SMOOTH",
"188 566 OFFCURVE",
"181 549 OFFCURVE",
"154 549 CURVE SMOOTH",
"138 549 LINE",
"138 549 OFFCURVE",
"224 174 OFFCURVE",
"235 70 CURVE",
"237 113 OFFCURVE",
"260 224 OFFCURVE",
"322 504 CURVE SMOOTH",
"330 544 OFFCURVE",
"337 570 OFFCURVE",
"367 596 CURVE SMOOTH",
"392 618 OFFCURVE",
"420 622 OFFCURVE",
"434 622 CURVE SMOOTH",
"478 622 OFFCURVE",
"506 584 OFFCURVE",
"506 548 CURVE SMOOTH",
"506 520 OFFCURVE",
"486 503 OFFCURVE",
"462 503 CURVE SMOOTH",
"436 503 OFFCURVE",
"417 522 OFFCURVE",
"417 547 CURVE SMOOTH",
"417 550 OFFCURVE",
"418 553 OFFCURVE",
"418 557 CURVE",
"398 541 OFFCURVE",
"401 533 OFFCURVE",
"394 505 CURVE SMOOTH",
"288 28 LINE SMOOTH",
"281 -1 OFFCURVE",
"269 -8 OFFCURVE",
"243 -8 CURVE SMOOTH",
"225 -8 LINE SMOOTH",
"190 -8 OFFCURVE",
"185 15 OFFCURVE",
"181 35 CURVE SMOOTH",
"66 549 LINE",
"52 549 LINE SMOOTH",
"20 549 OFFCURVE",
"16 569 OFFCURVE",
"16 580 CURVE SMOOTH"
);
}
);
width = 525;
}
);
unicode = 0474;
},
